<svg width="64" height="64" viewBox="0 0 64 64" fill="none" xmlns="http://www.w3.org/2000/svg">
<circle cx="32" cy="32" r="32" fill="#D7E8FF"/>
<path d="M37.4605 16.3333C38.6009 16.3333 39.5877 16.7556 40.4211 17.6C41.2544 18.4444 41.6711 19.4444 41.6711 20.6V43.4C41.6711 44.5556 41.2544 45.5556 40.4211 46.4C39.5877 47.2444 38.6009 47.6667 37.4605 47.6667H26.2105C25.0263 47.6667 24.0285 47.2444 23.2171 46.4C22.4057 45.5556 22 44.5556 22 43.4V20.6C22 19.4444 22.4057 18.4444 23.2171 17.6C24.0285 16.7556 25.0263 16.3333 26.2105 16.3333H37.4605ZM34.6316 44.8V43.4H29.0395V44.8H34.6316ZM39.1711 40.5333V20.6H24.4342V40.5333H39.1711Z" fill="black"/>
</svg>
