<svg width="64" height="64" viewBox="0 0 64 64" fill="none" xmlns="http://www.w3.org/2000/svg">
<circle cx="32" cy="32" r="32" fill="#D7E8FF"/>
<path fill-rule="evenodd" clip-rule="evenodd" d="M46.7143 32.166C47.2847 30.926 47.9115 29.894 47.9115 28.274C47.9115 26.7 47.4861 25.566 46.6485 24.904C45.6301 24.104 43.2433 24.292 42.112 24.442C41.9501 24.358 41.7355 24.044 41.5435 24.044L29.199 25.258C27.8249 25.56 26.4602 27.024 26.4602 27.024L17.9557 36.53C17.9557 37.278 18.0612 37.914 19.215 37.914L40.4706 37.886C40.4706 37.886 39.5125 32 42.3529 32V25.734C43.3637 25.648 45.3892 25.596 45.9219 26.02C46.4132 26.408 46.6616 27.164 46.6616 28.274C46.6616 29.57 46.1835 30.61 45.632 31.81C44.4254 34.432 43.0588 36.906 46.1459 43.386C46.2588 43.618 46.4753 43.754 46.7012 43.754C46.802 43.7535 46.901 43.726 46.9892 43.674C47.138 43.5876 47.2489 43.4426 47.2982 43.2702C47.3475 43.0978 47.3311 42.9117 47.2527 42.752C44.463 36.894 45.6245 34.866 46.7501 32.426L46.7143 32.166ZM40.6155 30.278C40.0207 30.278 36.5779 30.576 36.5779 30.558V29.45C36.5804 29.2829 36.5518 29.1169 36.4938 28.9615C36.4357 28.8062 36.3494 28.6645 36.2398 28.5447C36.1301 28.4248 35.9993 28.3292 35.8548 28.2632C35.7103 28.1971 35.5549 28.1621 35.3976 28.16H34.2739C34.1164 28.1618 33.9609 28.1967 33.8161 28.2626C33.6714 28.3285 33.5403 28.4241 33.4305 28.544C33.3206 28.6638 33.2342 28.8056 33.176 28.9611C33.1179 29.1166 33.0893 29.2827 33.0917 29.45V30.558C33.0917 30.708 25.12 31.92 25.12 31.92L27.823 28.29C27.823 28.29 28.6626 27.068 29.6508 27.068L39.7026 25.836C40.2089 25.836 40.6155 26.38 40.6155 27.058V30.278Z" fill="black"/>
</svg>
