<svg width="64" height="64" viewBox="0 0 64 64" fill="none" xmlns="http://www.w3.org/2000/svg">
<circle cx="32" cy="32" r="32" fill="#D7E8FF"/>
<path d="M32 18C24.2688 18 18 24.2688 18 32C18 39.7313 24.2688 46 32 46C39.7313 46 46 39.7313 46 32C46 24.2688 39.7313 18 32 18ZM32 43.625C25.5813 43.625 20.375 38.4188 20.375 32C20.375 25.5813 25.5813 20.375 32 20.375C38.4188 20.375 43.625 25.5813 43.625 32C43.625 38.4188 38.4188 43.625 32 43.625Z" fill="black"/>
<path d="M35.4875 25.8969C34.55 25.075 33.3125 24.625 32 24.625C30.6875 24.625 29.45 25.0781 28.5125 25.8969C27.5375 26.75 27 27.8969 27 29.125V29.3625C27 29.5 27.1125 29.6125 27.25 29.6125H28.75C28.8875 29.6125 29 29.5 29 29.3625V29.125C29 27.7469 30.3469 26.625 32 26.625C33.6531 26.625 35 27.7469 35 29.125C35 30.0969 34.3125 30.9875 33.2469 31.3969C32.5844 31.65 32.0219 32.0937 31.6187 32.675C31.2094 33.2687 30.9969 33.9812 30.9969 34.7031V35.375C30.9969 35.5125 31.1094 35.625 31.2469 35.625H32.7469C32.8844 35.625 32.9969 35.5125 32.9969 35.375V34.6656C32.9985 34.3623 33.0915 34.0664 33.2637 33.8167C33.436 33.5669 33.6795 33.3749 33.9625 33.2656C35.8062 32.5563 36.9969 30.9313 36.9969 29.125C37 27.8969 36.4625 26.75 35.4875 25.8969ZM30.75 38.875C30.75 39.2065 30.8817 39.5245 31.1161 39.7589C31.3505 39.9933 31.6685 40.125 32 40.125C32.3315 40.125 32.6495 39.9933 32.8839 39.7589C33.1183 39.5245 33.25 39.2065 33.25 38.875C33.25 38.5435 33.1183 38.2255 32.8839 37.9911C32.6495 37.7567 32.3315 37.625 32 37.625C31.6685 37.625 31.3505 37.7567 31.1161 37.9911C30.8817 38.2255 30.75 38.5435 30.75 38.875Z" fill="black"/>
</svg>
