<svg width="64" height="64" viewBox="0 0 64 64" fill="none" xmlns="http://www.w3.org/2000/svg">
<circle cx="32" cy="32" r="32" fill="#D7E8FF"/>
<path d="M29.3334 18.6667V21.3333H30.5467C30.2 23.72 28 26 26.6667 28V34.36C27.0822 34.7359 27.4143 35.1947 27.6417 35.7068C27.869 36.2189 27.9864 36.773 27.9864 37.3333C27.9864 37.8936 27.869 38.4477 27.6417 38.9599C27.4143 39.472 27.0822 39.9308 26.6667 40.3067V42.6667C26.6667 43.3739 26.9476 44.0522 27.4477 44.5523C27.9478 45.0524 28.6261 45.3333 29.3334 45.3333H34.6667C36.1467 45.3333 37.3334 44.1467 37.3334 42.6667V40.3067C36.9178 39.9308 36.5857 39.472 36.3584 38.9599C36.1311 38.4477 36.0136 37.8936 36.0136 37.3333C36.0136 36.773 36.1311 36.2189 36.3584 35.7068C36.5857 35.1947 36.9178 34.7359 37.3334 34.36V28C36 26 33.8 23.72 33.4534 21.3333H34.6667V18.6667H29.3334ZM32 24.6667C32.32 25.3333 34.0534 27.3333 34.5334 27.88L34.6667 28V33.3333C33.8 34.4933 33.3334 35.8933 33.3334 37.3333C33.3334 38.7733 33.8 40.1733 34.6667 41.3333V42.6667H29.3334V41.3333C30.2 40.1733 30.6667 38.7733 30.6667 37.3333C30.6667 35.8933 30.2 34.4933 29.3334 33.3333V28L29.4667 27.88C29.9467 27.3333 31.68 25.3333 32 24.6667Z" fill="black"/>
</svg>
