<svg width="64" height="64" viewBox="0 0 64 64" fill="none" xmlns="http://www.w3.org/2000/svg">
<circle cx="32" cy="32" r="32" fill="#D7E8FF"/>
<path d="M21.3333 21.3334V42.6667C21.3333 43.3739 21.6143 44.0522 22.1144 44.5523C22.6145 45.0524 23.2927 45.3334 24 45.3334H40C40.7072 45.3334 41.3855 45.0524 41.8856 44.5523C42.3857 44.0522 42.6666 43.3739 42.6666 42.6667V27.1227C42.6666 26.7674 42.5956 26.4158 42.4577 26.0883C42.3199 25.7609 42.118 25.4643 41.864 25.216L35.944 19.4267C35.4458 18.9396 34.7767 18.6668 34.08 18.6667H24C23.2927 18.6667 22.6145 18.9476 22.1144 19.4477C21.6143 19.9478 21.3333 20.6261 21.3333 21.3334V21.3334Z" stroke="black" stroke-width="2" stroke-linecap="round" stroke-linejoin="round"/>
<path d="M34.6666 18.6667V24C34.6666 24.7073 34.9476 25.3855 35.4477 25.8856C35.9478 26.3857 36.626 26.6667 37.3333 26.6667H42.6666" stroke="black" stroke-width="2" stroke-linejoin="round"/>
</svg>
