<svg width="64" height="64" viewBox="0 0 64 64" fill="none" xmlns="http://www.w3.org/2000/svg">
<circle cx="32" cy="32" r="32" fill="#0DEC66"/>
<g clip-path="url(#clip0_502_21)">
<path d="M20.6868 49.11L21.4715 49.4979C24.7415 51.437 28.4035 52.342 32.0658 52.342C43.5755 52.342 52.9925 43.0341 52.9925 31.6577C52.9925 26.2281 50.7689 20.9277 46.8453 17.0494C42.9215 13.171 37.6897 10.9734 32.0658 10.9734C20.5561 10.9734 11.1389 20.2813 11.2698 31.787C11.2698 35.6652 12.4469 39.4144 14.4087 42.6462L14.9318 43.4219L12.8393 51.0493L20.6868 49.11Z" fill="#00E676"/>
<path d="M49.0687 14.9809C44.6217 10.4563 38.4746 8 32.1965 8C18.8559 8 8.13087 18.7299 8.26156 31.7869C8.26156 35.9238 9.43868 39.9315 11.4007 43.5511L9.5 54.5L20.6868 52.6005C24.2182 54.5398 28.1418 55.4448 32.0658 55.4448C45.2757 55.4448 56.0007 44.7146 56.0007 31.6579C56.0007 25.3232 53.5154 19.3764 49.0687 14.9809ZM32.1965 51.4372C28.6651 51.4372 25.1337 50.5324 22.1255 48.7225L21.3408 48.3346L13.7549 50.2737L15.7167 42.9051L15.1936 42.1293C9.43868 32.9507 12.1854 20.7984 21.6024 15.1101C31.0194 9.42202 43.1831 12.1369 48.938 21.4448C54.6927 30.7527 51.9461 42.7755 42.5292 48.4638C39.5208 50.4029 35.8587 51.4372 32.1965 51.4372ZM43.7062 37.0876L42.2675 36.4412C42.2675 36.4412 40.175 35.5362 38.867 34.8898C38.7361 34.8898 38.6054 34.7605 38.4746 34.7605C38.0821 34.7605 37.8206 34.8898 37.559 35.0192C37.559 35.0192 37.4283 35.1484 35.5972 37.2168C35.4663 37.4753 35.2047 37.6047 34.9432 37.6047H34.8123C34.6816 37.6047 34.4201 37.4753 34.2892 37.3462L33.6352 37.0876C32.1965 36.4412 30.8887 35.6654 29.8422 34.6313C29.5807 34.3728 29.1882 34.1142 28.9267 33.8557C28.0111 32.9507 27.0956 31.9164 26.4417 30.7529L26.3109 30.4944C26.1802 30.365 26.1802 30.2359 26.0493 29.9773C26.0493 29.7188 26.0493 29.4603 26.1802 29.3309C26.1802 29.3309 26.7033 28.6845 27.0956 28.2968C27.3573 28.0381 27.488 27.6503 27.7496 27.3918C28.0111 27.0039 28.142 26.4869 28.0111 26.099C27.8804 25.4525 26.3109 21.9621 25.9186 21.1865C25.6569 20.7986 25.3955 20.6694 25.0031 20.54H23.5644C23.3026 20.54 23.0412 20.6694 22.7795 20.6694L22.6486 20.7986C22.3871 20.9279 22.1255 21.1865 21.8639 21.3156C21.6024 21.5744 21.4715 21.8327 21.2099 22.0914C20.2944 23.2549 19.7712 24.6769 19.7712 26.099C19.7712 27.1331 20.0328 28.1674 20.4252 29.0724L20.5561 29.4603C21.7332 31.9164 23.3026 34.1142 25.3955 36.0533L25.9186 36.5704C26.3109 36.9583 26.7033 37.2168 26.9649 37.6045C29.7116 39.9317 32.8505 41.6122 36.3819 42.5172C36.7743 42.6464 37.2974 42.6464 37.6899 42.7757H38.9977C39.6517 42.7757 40.4364 42.5172 40.9597 42.2587C41.3519 42.0001 41.6135 42.0001 41.8751 41.7416L42.1368 41.4829C42.3984 41.2243 42.6599 41.0952 42.9215 40.8366C43.1831 40.5781 43.4446 40.3196 43.5755 40.0608C43.8371 39.5438 43.9677 38.8974 44.0986 38.2511V37.3462C44.0986 37.3462 43.9677 37.2168 43.7062 37.0876Z" fill="white"/>
</g>
<defs>
<clipPath id="clip0_502_21">
<rect width="48" height="48" fill="white" transform="translate(8 8)"/>
</clipPath>
</defs>
</svg>
