<svg width="131" height="126" viewBox="0 0 131 126" fill="none" xmlns="http://www.w3.org/2000/svg">
<path d="M54.0635 14.3633C24.205 14.3633 2.61031e-06 39.1671 0 69.7642C-2.61031e-06 100.361 24.205 125.165 54.0635 125.165L54.0635 14.3633Z" fill="#00FF00" fill-opacity="0.8"/>
<path d="M54.0637 125.165C40.2829 125.165 29.1113 113.222 29.1113 98.4905C29.1113 83.7586 40.2829 71.816 54.0637 71.816L54.0637 125.165Z" fill="#90FF90"/>
<path d="M54.0634 125.165C71.2895 125.165 85.2539 113.222 85.2539 98.4905C85.2539 83.7586 71.2895 71.816 54.0634 71.816L54.0634 125.165Z" fill="#40FF40" fill-opacity="0.8"/>
<path d="M126.191 33.9061C132.603 37.5317 132.603 46.5956 126.191 50.2212L68.4891 82.8512C62.0777 86.4768 54.0635 81.9448 54.0635 74.6937L54.0635 9.43355C54.0635 2.18242 62.0777 -2.34954 68.4891 1.27603L126.191 33.9061Z" fill="#00FF00"/>
</svg>
