<svg width="248" height="200" viewBox="0 0 248 200" fill="none" xmlns="http://www.w3.org/2000/svg">
<path d="M197.172 83.0267H132.184C130.489 83.0267 129.115 84.5042 129.115 86.3267V87.0267C129.115 88.8492 130.489 90.3267 132.184 90.3267H197.172C198.867 90.3267 200.241 88.8492 200.241 87.0267V86.3267C200.241 84.5042 198.867 83.0267 197.172 83.0267Z" fill="white"/>
<path d="M197.16 90.6667H132.184C131.288 90.6649 130.43 90.2816 129.796 89.6006C129.163 88.9196 128.807 87.9964 128.805 87.0334V86.3667C128.798 85.8842 128.879 85.405 129.046 84.9568C129.212 84.5087 129.46 84.1006 129.774 83.7563C130.089 83.412 130.464 83.1384 130.877 82.9513C131.291 82.7643 131.735 82.6675 132.184 82.6667H197.16C198.056 82.6667 198.916 83.0495 199.549 83.7309C200.183 84.4122 200.539 85.3364 200.539 86.3V86.9667C200.546 87.4492 200.465 87.9284 200.298 88.3765C200.132 88.8247 199.884 89.2328 199.57 89.5771C199.255 89.9214 198.88 90.195 198.467 90.382C198.053 90.5691 197.609 90.6659 197.16 90.6667ZM132.184 83.3334C131.453 83.3351 130.752 83.6482 130.235 84.2042C129.718 84.7602 129.427 85.5138 129.425 86.3V86.9667C129.418 87.3616 129.483 87.7542 129.619 88.1214C129.754 88.4887 129.956 88.8233 130.213 89.1057C130.47 89.3881 130.776 89.6126 131.115 89.7662C131.453 89.9197 131.817 89.9992 132.184 90H197.16C197.891 89.9983 198.592 89.6851 199.109 89.1292C199.626 88.5732 199.917 87.8196 199.919 87.0334V86.3667C199.926 85.9718 199.861 85.5792 199.725 85.212C199.59 84.8447 199.388 84.5101 199.131 84.2277C198.874 83.9453 198.568 83.7208 198.229 83.5672C197.891 83.4137 197.527 83.3342 197.16 83.3334H132.184Z" fill="#093269"/>
<path d="M195.207 90.3267L194.847 94.66L188.027 176.14C187.899 177.69 187.235 179.133 186.166 180.183C185.098 181.233 183.703 181.815 182.255 181.813H147.083C145.635 181.815 144.24 181.233 143.171 180.183C142.103 179.133 141.439 177.69 141.31 176.14L135.551 107.06L134.156 90.3267H195.207Z" fill="white"/>
<path d="M182.28 182.147H147.083C145.552 182.155 144.075 181.542 142.947 180.429C141.819 179.317 141.124 177.787 141 176.147L133.846 90.3533C133.842 90.261 133.871 90.1705 133.926 90.1C133.956 90.0667 133.991 90.0401 134.031 90.0218C134.07 90.0035 134.113 89.9938 134.156 89.9933H195.207C195.25 89.9938 195.292 90.0035 195.332 90.0218C195.371 90.0401 195.407 90.0667 195.436 90.1C195.492 90.1705 195.521 90.261 195.517 90.3533L195.157 94.6867L188.337 176.167C188.21 177.799 187.516 179.32 186.394 180.428C185.272 181.535 183.803 182.149 182.28 182.147ZM134.497 90.6667L141.62 176.12C141.737 177.589 142.364 178.957 143.376 179.951C144.388 180.945 145.712 181.494 147.083 181.487H182.28C183.651 181.494 184.974 180.945 185.986 179.951C186.999 178.957 187.625 177.589 187.742 176.12L194.866 90.6667H134.497Z" fill="#093269"/>
<path d="M160.71 116.627C162.49 117.013 163.463 118.527 164.579 119.8L160.096 127.8L154.411 124.193C154.485 124.06 154.535 123.953 154.597 123.847C155.756 121.847 156.928 119.92 158.069 117.933C158.243 117.611 158.481 117.335 158.766 117.124C159.051 116.913 159.376 116.773 159.718 116.713C159.774 116.697 159.828 116.675 159.879 116.647L160.71 116.627Z" fill="#53B953" fill-opacity="0.8"/>
<path d="M169.384 144.82L169.514 147.753C169.427 147.633 169.378 147.56 169.334 147.487L165.732 141.333C165.688 141.271 165.665 141.195 165.665 141.117C165.665 141.039 165.688 140.962 165.732 140.9C166.842 138.867 167.952 136.82 169.055 134.78C169.086 134.72 169.13 134.667 169.21 134.547C169.241 135.287 169.266 135.953 169.291 136.62C169.291 136.893 169.291 137.173 169.328 137.447C169.336 137.497 169.357 137.543 169.387 137.582C169.418 137.621 169.457 137.65 169.502 137.667C171.817 137.982 174.165 137.871 176.446 137.34C176.936 137.207 177.413 136.98 177.934 136.787C177.897 136.887 177.872 136.967 177.841 137.033C176.799 139.18 175.753 141.329 174.704 143.48C174.547 143.805 174.313 144.08 174.026 144.275C173.738 144.471 173.407 144.581 173.067 144.593C172.031 144.687 170.996 144.733 169.967 144.793L169.384 144.82Z" fill="#53B953" fill-opacity="0.8"/>
<path d="M160.078 134.193L157.598 132.54C156.035 134.367 154.064 137.4 153.394 140.667C153.326 140.533 153.27 140.44 153.221 140.347C152.175 138.24 151.142 136.136 150.121 134.033C149.965 133.751 149.879 133.431 149.871 133.103C149.863 132.775 149.934 132.45 150.077 132.16C150.641 131.053 151.268 129.973 151.869 128.887C151.931 128.78 151.993 128.673 152.074 128.547L149.817 127.053V126.993C149.922 126.993 150.021 126.993 150.127 126.993L156.755 127.267C156.91 127.267 157.046 127.267 157.139 127.48C158.088 129.66 159.049 131.827 160.01 134L160.078 134.193Z" fill="#53B953" fill-opacity="0.8"/>
<path d="M164.92 126.247L167.456 124.687C166.383 121.753 165.038 119.02 162.762 116.847H163.116H169.775C170.125 116.844 170.469 116.944 170.77 117.136C171.071 117.327 171.319 117.603 171.486 117.933C172.05 118.947 172.602 119.967 173.16 120.98L173.34 121.307L175.72 119.813C175.64 119.98 175.603 120.06 175.559 120.14C174.425 122.213 173.284 124.28 172.155 126.36C172.122 126.441 172.066 126.508 171.994 126.551C171.923 126.595 171.84 126.612 171.759 126.6C169.545 126.48 167.326 126.373 165.112 126.26L164.92 126.247Z" fill="#53B953" fill-opacity="0.8"/>
<path d="M163.618 138L163.345 145.093C162.831 145.093 162.353 145.033 161.876 144.993C160.016 144.853 158.156 144.707 156.296 144.573C155.828 144.539 155.387 144.323 155.056 143.967C154.634 143.566 154.321 143.048 154.152 142.47C153.982 141.892 153.963 141.276 154.095 140.687C154.318 139.6 154.64 138.54 154.907 137.52L163.618 138Z" fill="#53B953" fill-opacity="0.8"/>
<path d="M170.116 129.213L175.733 125.453C175.801 125.567 175.863 125.66 175.913 125.753L179.161 131.753C179.493 132.333 179.623 133.02 179.528 133.693C179.432 134.365 179.118 134.98 178.641 135.427C177.958 136.051 177.149 136.494 176.278 136.72C175.795 136.873 175.311 137.013 174.815 137.133C174.765 137.141 174.714 137.135 174.666 137.116C174.619 137.098 174.576 137.067 174.542 137.027C173.104 134.507 171.67 131.982 170.24 129.453L170.116 129.213Z" fill="#53B953" fill-opacity="0.8"/>
<path d="M188.722 90.6667H134.162C134.08 90.6667 134.001 90.6316 133.943 90.5691C133.884 90.5066 133.852 90.4218 133.852 90.3334C133.852 90.245 133.884 90.1602 133.943 90.0977C134.001 90.0352 134.08 90 134.162 90H188.722C188.804 90 188.883 90.0352 188.941 90.0977C188.999 90.1602 189.032 90.245 189.032 90.3334C189.032 90.4218 188.999 90.5066 188.941 90.5691C188.883 90.6316 188.804 90.6667 188.722 90.6667Z" fill="#093269"/>
<path d="M185.182 173.647H145.471C145.388 173.647 145.31 173.612 145.251 173.549C145.193 173.487 145.161 173.402 145.161 173.313C145.161 173.225 145.193 173.14 145.251 173.078C145.31 173.015 145.388 172.98 145.471 172.98H185.182C185.264 172.98 185.343 173.015 185.401 173.078C185.459 173.14 185.492 173.225 185.492 173.313C185.492 173.402 185.459 173.487 185.401 173.549C185.343 173.612 185.264 173.647 185.182 173.647Z" fill="#D5E6FB"/>
<path d="M98.3134 58.4467L107.378 70.38C107.378 70.38 118.29 65.92 120.243 64.5934C122.196 63.2667 126.852 57.26 128.204 59.0134C129.555 60.7667 131.924 64.3934 129.351 68.7C126.778 73.0067 105.4 80.9534 102.864 81.2667C100.328 81.58 87.8168 60.3467 87.8168 60.3467L98.3134 58.4467Z" fill="#FFDEC0"/>
<path d="M102.827 81.6067C100.093 81.6067 89.6396 64.0667 87.5502 60.52C87.5258 60.472 87.513 60.4181 87.513 60.3633C87.513 60.3086 87.5258 60.2547 87.5502 60.2067C87.5716 60.1573 87.6036 60.1141 87.6434 60.0805C87.6833 60.047 87.7299 60.0239 87.7796 60.0133L98.2824 58.1133C98.3365 58.1031 98.3922 58.1089 98.4435 58.13C98.4948 58.1512 98.5399 58.1869 98.5738 58.2333L107.477 70C108.996 69.3733 118.321 65.52 120.082 64.3333C120.916 63.6706 121.706 62.9442 122.444 62.16C124.353 60.2533 126.313 58.28 127.639 58.3733C127.795 58.3826 127.948 58.4271 128.087 58.5041C128.226 58.5811 128.348 58.6887 128.445 58.82C129.437 60.1533 132.463 64.1 129.611 68.9C126.951 73.3333 105.338 81.3333 102.92 81.6L102.827 81.6067ZM88.3252 60.5867C93.1488 68.7467 101.159 81.1533 102.833 80.94C105.208 80.6467 126.585 72.7333 129.09 68.52C131.694 64.1267 128.886 60.4333 127.962 59.1867C127.918 59.1265 127.863 59.0774 127.8 59.0429C127.736 59.0083 127.667 58.9891 127.596 58.9867C126.554 58.92 124.496 60.9867 122.865 62.5933C122.095 63.4118 121.266 64.1631 120.385 64.84C118.426 66.1733 107.911 70.4733 107.465 70.6533C107.404 70.6797 107.338 70.6841 107.275 70.6661C107.213 70.648 107.157 70.6084 107.117 70.5533L98.1894 58.8067L88.3252 60.5867Z" fill="#093269"/>
<path d="M78.2874 120.847C78.2874 120.847 82.5778 128.847 82.801 132.013C83.0242 135.18 75.1316 168.013 75.1316 168.013H85.7398C85.7398 168.013 93.8618 136.627 94.3144 131.527C94.767 126.427 90.706 115.527 90.706 115.527L78.2874 120.847Z" fill="#FFDEC0"/>
<path d="M85.7398 168.347H75.1316C75.0841 168.347 75.0371 168.336 74.9941 168.314C74.9512 168.292 74.9134 168.26 74.8836 168.22C74.8553 168.178 74.8356 168.131 74.826 168.08C74.8164 168.029 74.817 167.977 74.8278 167.927C74.9084 167.6 82.7142 135.1 82.4972 132.04C82.2802 128.98 78.0642 121.093 78.0208 121.013C78.0024 120.97 77.9929 120.924 77.9929 120.877C77.9929 120.829 78.0024 120.783 78.0208 120.74C78.0348 120.694 78.0583 120.653 78.0894 120.618C78.1206 120.583 78.1586 120.557 78.2006 120.54L90.6006 115.207C90.6385 115.19 90.6789 115.182 90.7197 115.183C90.7604 115.184 90.8007 115.193 90.8381 115.21C90.8755 115.227 90.9094 115.253 90.9378 115.284C90.9662 115.315 90.9886 115.353 91.0036 115.393C91.171 115.84 95.0894 126.447 94.6368 131.567C94.1842 136.687 86.3784 166.827 86.0498 168.107C86.0305 168.178 85.9894 168.241 85.9333 168.284C85.8771 168.328 85.809 168.35 85.7398 168.347ZM75.5284 167.68H85.5042C86.2606 164.733 93.5642 136.267 94.0044 131.493C94.4012 127.013 91.1772 117.753 90.5262 115.94L78.7462 121.013C79.5708 122.587 82.9188 129.127 83.1234 131.987C83.328 135 76.4894 163.687 75.5284 167.68Z" fill="#093269"/>
<path d="M58.4164 119.393L60.5244 131.933C60.5244 131.933 53.5246 162.833 51.8444 168.5L62.0062 169.953C62.0062 169.953 73.2902 136.46 73.594 133.713C73.8978 130.967 71.6348 118.26 71.6348 118.26L58.4164 119.393Z" fill="#FFDEC0"/>
<path d="M62.031 170.287H62L51.832 168.827C51.7872 168.821 51.7441 168.805 51.7056 168.779C51.6671 168.754 51.6341 168.72 51.6088 168.68C51.589 168.636 51.5788 168.589 51.5788 168.54C51.5788 168.492 51.589 168.444 51.6088 168.4C53.2022 162.94 59.8672 133.553 60.2392 131.92L58.1436 119.453C58.1365 119.407 58.1383 119.359 58.149 119.313C58.1596 119.267 58.1789 119.224 58.2056 119.187C58.2312 119.15 58.2639 119.12 58.3013 119.098C58.3387 119.076 58.3801 119.063 58.4226 119.06L71.6658 117.927C71.7411 117.922 71.8157 117.946 71.876 117.995C71.9362 118.044 71.9782 118.114 71.9944 118.193C72.0874 118.72 74.2574 130.98 73.9536 133.747C73.6498 136.513 62.7936 168.7 62.3534 170.067C62.3302 170.137 62.2858 170.197 62.2274 170.236C62.169 170.276 62.0998 170.294 62.031 170.287ZM52.2784 168.22L61.8264 169.553C62.8618 166.46 73.0298 136.22 73.3088 133.64C73.5754 131.2 71.7402 120.5 71.4054 118.58L58.7822 119.66L60.8282 131.84C60.8374 131.886 60.8374 131.934 60.8282 131.98C60.76 132.313 54.0888 161.74 52.2784 168.22Z" fill="#093269"/>
<path d="M74.6914 34.5C74.2698 34.08 74.028 31.3733 73.811 30.6267C73.1901 28.4503 73.2161 26.1198 73.8854 23.96C74.6404 22.0052 76.085 20.4518 77.903 19.64C78.8598 19.1117 79.9667 18.9903 81.003 19.3C81.2908 19.454 81.6013 19.5533 81.9206 19.5934C82.1968 19.5653 82.4648 19.4769 82.708 19.3334C86.242 17.62 89.466 17.8534 92.8388 19.84C93.7223 20.3086 94.5105 20.9613 95.1576 21.76C95.6817 22.5365 96.0316 23.4328 96.1801 24.3788C96.3285 25.3249 96.2714 26.295 96.0132 27.2133C95.6846 28.5467 94.86 30.7734 93.7316 31.5734C93.1116 32 92.4234 31.78 91.8344 32.0267C90.5944 32.52 89.4412 33.7534 88.2632 34.4067C84.1092 36.7334 78.554 38.2934 74.6914 34.5Z" fill="#414141"/>
<path d="M80.4388 37.1267C78.2422 37.1854 76.1088 36.3332 74.4806 34.7467C74.152 34.42 73.9722 33.4134 73.7428 31.98C73.6622 31.46 73.5816 30.9667 73.5134 30.7267C72.8728 28.48 72.9031 26.0739 73.6002 23.8467C73.9864 22.8358 74.5543 21.9168 75.2714 21.1423C75.9884 20.3678 76.8406 19.7531 77.779 19.3334C78.8041 18.7626 79.9942 18.6385 81.1022 18.9867L81.3378 19.0867C81.517 19.18 81.7101 19.2386 81.9082 19.26C82.1259 19.2336 82.3366 19.1611 82.5282 19.0467C86.1304 17.3 89.4412 17.4667 92.9752 19.5467C93.8948 20.0373 94.7163 20.7168 95.3932 21.5467C95.9551 22.3675 96.3311 23.318 96.4915 24.3226C96.6519 25.3271 96.5921 26.358 96.317 27.3334C95.9202 28.92 95.077 31.0667 93.899 31.8867C93.5222 32.1217 93.0946 32.2459 92.659 32.2467C92.4236 32.2531 92.19 32.2934 91.9646 32.3667C91.2581 32.7094 90.5921 33.1413 89.9806 33.6534C89.4866 34.0549 88.9665 34.4181 88.4244 34.74C86.4404 35.8067 83.452 37.1267 80.4388 37.1267ZM74.896 34.2534C78.9942 38.2534 84.94 35.8934 88.1206 34.1134C88.6349 33.804 89.1299 33.4588 89.6024 33.08C90.2551 32.5428 90.9674 32.095 91.7228 31.7467C92.0053 31.6463 92.2997 31.5902 92.597 31.58C92.9316 31.5863 93.2621 31.5014 93.558 31.3334C94.6368 30.5667 95.418 28.3467 95.7156 27.16C95.9646 26.2923 96.0219 25.3741 95.8831 24.4783C95.7442 23.5826 95.413 22.734 94.9158 22C94.2907 21.2403 93.5349 20.6178 92.69 20.1667C89.342 18.1667 86.211 18.0334 82.832 19.6734C82.5477 19.8357 82.2353 19.9332 81.9144 19.96C81.6358 19.9382 81.3629 19.8638 81.1084 19.74L80.8976 19.6534C79.9371 19.3634 78.9098 19.4803 78.027 19.98C77.1636 20.3623 76.3791 20.9242 75.7183 21.6336C75.0576 22.3429 74.5337 23.1856 74.1768 24.1134C73.5263 26.2015 73.5025 28.4565 74.1086 30.56C74.1892 30.84 74.2636 31.3267 74.3566 31.8934C74.4381 32.7023 74.6195 33.4959 74.896 34.2534Z" fill="#093269"/>
<path d="M85.653 93.6667L96.7572 127.087L79.2174 130.26L74.2574 112.68L76.1174 130.46L56.7796 131.7C56.7796 131.7 51.3484 105.333 53.4502 94.6667L85.653 93.6667Z" fill="#093269"/>
<path d="M56.7424 132.033C56.6725 132.033 56.6048 132.008 56.5506 131.96C56.4964 131.913 56.459 131.847 56.4448 131.773C56.2216 130.693 51.0508 105.193 53.1526 94.5667C53.1654 94.493 53.2013 94.4264 53.2543 94.3778C53.3074 94.3293 53.3743 94.3018 53.444 94.3L85.6468 93.3333C85.712 93.3299 85.7764 93.3495 85.8302 93.3893C85.8839 93.429 85.9241 93.4867 85.9444 93.5533L97.0486 126.973C97.0684 127.018 97.0787 127.067 97.0787 127.117C97.0787 127.166 97.0684 127.215 97.0486 127.26C97.0253 127.301 96.9946 127.336 96.9584 127.363C96.9222 127.391 96.8812 127.41 96.8378 127.42L79.2918 130.593C79.2177 130.604 79.1426 130.586 79.0793 130.544C79.016 130.501 78.9684 130.436 78.9446 130.36L74.9394 116.22L76.4088 130.42C76.4148 130.465 76.4119 130.511 76.4001 130.555C76.3883 130.598 76.368 130.639 76.3406 130.673C76.3128 130.708 76.2786 130.736 76.2402 130.755C76.2017 130.775 76.1599 130.786 76.1174 130.787L56.7858 132.033H56.7424ZM53.7044 94.96C51.8816 105.013 56.4324 128.52 56.9904 131.347L75.733 130.147L73.9288 112.72C73.9207 112.676 73.9206 112.631 73.9287 112.587C73.9367 112.544 73.9527 112.502 73.9757 112.465C73.9988 112.428 74.0284 112.396 74.0629 112.371C74.0974 112.346 74.1361 112.329 74.1768 112.32C74.2175 112.311 74.2594 112.311 74.3001 112.32C74.3409 112.329 74.3796 112.346 74.4142 112.371C74.4487 112.395 74.4784 112.427 74.5015 112.464C74.5246 112.501 74.5406 112.543 74.5488 112.587L79.4468 129.92L96.3542 126.86L85.436 94L53.7044 94.96Z" fill="#093269"/>
<path d="M77.0598 44.2067C77.0598 44.2067 60.14 41.38 56.0666 50.6667C51.615 60.8534 51.8258 96.94 51.8258 96.94L88.6166 95.4734L87.4758 73.1267L93 77.5667L101.885 60C101.885 60 94.674 52.5934 89.7574 48.7934C84.8408 44.9934 77.0598 44.2067 77.0598 44.2067Z" fill="#82D285"/>
<path d="M84.8408 44.9934L83.824 52C83.824 52 82.5158 55.0667 78.306 53.2467C74.0962 51.4267 73.8854 48.0867 73.8854 48.0867L76.2104 35.0667C76.2104 35.0667 83.5884 32.2267 83.6504 24.52C84.9268 26.1363 86.5048 27.4462 88.282 28.3649C90.0592 29.2837 91.9961 29.7908 93.9672 29.8534C93.9672 29.8534 93.3472 37.7934 92.3118 41.3467C91.2764 44.9 84.8408 44.9934 84.8408 44.9934Z" fill="#FFDEC0"/>
<path d="M80.7488 54.1734C79.8674 54.1521 78.998 53.9484 78.1882 53.5734C73.8482 51.6934 73.5878 48.24 73.5754 48.1267C73.5724 48.1001 73.5724 48.0733 73.5754 48.0467L75.9004 35.02C75.9112 34.9634 75.935 34.9105 75.9697 34.8662C76.0043 34.822 76.0487 34.7878 76.0988 34.7667C76.1732 34.7667 83.2784 31.92 83.3528 24.5334C83.3542 24.4643 83.3751 24.3973 83.4127 24.3413C83.4504 24.2854 83.503 24.243 83.5636 24.22C83.6242 24.1967 83.6902 24.1952 83.7517 24.2156C83.8131 24.2361 83.8668 24.2774 83.9046 24.3334C85.1562 25.908 86.6988 27.1852 88.4344 28.0839C90.17 28.9826 92.0606 29.483 93.9858 29.5534C94.0279 29.5532 94.0696 29.5625 94.108 29.5809C94.1465 29.5993 94.1809 29.6263 94.209 29.66C94.2383 29.6937 94.2607 29.7337 94.2745 29.7774C94.2884 29.8211 94.2936 29.8674 94.2896 29.9134C94.2896 30.24 93.6386 37.9134 92.6218 41.48C91.6546 44.8134 86.366 45.2667 85.1012 45.32L84.134 52.0667C84.1367 52.0977 84.1367 52.129 84.134 52.16C83.7957 52.7972 83.301 53.322 82.7039 53.6771C82.1069 54.0322 81.4305 54.2039 80.7488 54.1734ZM74.1954 48.1267C74.2388 48.5067 74.648 51.3267 78.4176 52.9534C82.088 54.54 83.3776 52.2867 83.5264 51.9134L84.5308 44.9467C84.5435 44.8688 84.5805 44.7979 84.6357 44.7458C84.691 44.6937 84.7612 44.6634 84.8346 44.66C84.8966 44.66 91.0966 44.5667 92.039 41.2867C92.9132 38.2267 93.5146 31.78 93.651 30.2067C89.9571 30.0089 86.4776 28.2816 83.9418 25.3867C83.4086 31.98 77.5558 34.8534 76.5018 35.3267L74.1954 48.1267Z" fill="#093269"/>
<path d="M78.3308 35.0334C78.2106 34.2039 77.8302 33.4435 77.2528 32.8784C76.6754 32.3133 75.9357 31.9775 75.1564 31.9267C73.2158 31.9267 72.912 34.2467 73.2964 35.8334C73.414 36.3178 73.6204 36.772 73.9035 37.1695C74.1866 37.567 74.5406 37.8997 74.9449 38.1481C75.3491 38.3965 75.7954 38.5555 76.2576 38.616C76.7198 38.6764 77.1886 38.637 77.6364 38.5" fill="#FFDEC0"/>
<path d="M76.6878 38.96C75.8478 38.9622 75.0308 38.665 74.3645 38.115C73.6982 37.565 73.2201 36.7931 73.005 35.92C72.8422 35.3457 72.795 34.7407 72.8666 34.1452C72.9382 33.5498 73.127 32.9776 73.4204 32.4667C73.6253 32.1844 73.8894 31.9581 74.1911 31.8063C74.4928 31.6546 74.8235 31.5816 75.1564 31.5934C76.0084 31.6544 76.8159 32.0247 77.4466 32.6436C78.0774 33.2625 78.4941 34.0933 78.6284 35C78.6366 35.0884 78.6118 35.1767 78.5595 35.2455C78.5072 35.3143 78.4316 35.3578 78.3494 35.3667C78.2672 35.3755 78.1851 35.3489 78.1211 35.2926C78.0572 35.2364 78.0166 35.1551 78.0084 35.0667C77.8918 34.3241 77.5478 33.6446 77.0311 33.1362C76.5145 32.6277 75.8546 32.3193 75.1564 32.26C74.9189 32.2462 74.6819 32.2948 74.4658 32.4017C74.2498 32.5086 74.0612 32.6705 73.9164 32.8734C73.6807 33.3023 73.5308 33.7794 73.4763 34.2741C73.4219 34.7689 73.4641 35.2705 73.6002 35.7467C73.7079 36.1857 73.8957 36.5972 74.1526 36.9575C74.4095 37.3178 74.7304 37.6196 75.0967 37.8454C75.463 38.0712 75.8674 38.2164 76.2863 38.2727C76.7053 38.329 77.1305 38.2953 77.5372 38.1734C77.5779 38.1615 77.6204 38.1585 77.6622 38.1643C77.704 38.1701 77.7444 38.1848 77.7809 38.2073C77.8175 38.2299 77.8495 38.2601 77.8753 38.296C77.901 38.3319 77.9199 38.3729 77.9309 38.4167C77.9419 38.4605 77.9448 38.5061 77.9393 38.5511C77.9339 38.5961 77.9203 38.6394 77.8993 38.6788C77.8783 38.7181 77.8503 38.7525 77.8169 38.7802C77.7835 38.8079 77.7453 38.8282 77.7046 38.84C77.3723 38.9293 77.0302 38.9696 76.6878 38.96Z" fill="#093269"/>
<path d="M87.5626 33.5934C87.5626 33.5934 89.4846 37.5934 88.8708 38.1334C88.257 38.6734 86.7752 38.1334 86.7752 38.1334" fill="#FFDEC0"/>
<path d="M88.0772 38.72C87.5942 38.7009 87.1171 38.5997 86.6636 38.42C86.6252 38.4045 86.59 38.3809 86.5601 38.3507C86.5302 38.3204 86.5062 38.2841 86.4894 38.2438C86.4727 38.2035 86.4636 38.16 86.4626 38.1158C86.4617 38.0717 86.4689 38.0278 86.4838 37.9867C86.513 37.9048 86.571 37.8386 86.6453 37.8024C86.7196 37.7663 86.8041 37.763 86.8806 37.7934C87.389 38 88.3252 38.2067 88.6662 37.8867C88.846 37.5734 88.2012 35.64 87.2898 33.7467C87.2603 33.6727 87.2572 33.5895 87.2813 33.5132C87.3053 33.4369 87.3547 33.3729 87.42 33.3334C87.4924 33.2933 87.5767 33.2856 87.6544 33.3118C87.7321 33.338 87.7971 33.396 87.8354 33.4734C88.598 35.04 89.7698 37.7667 89.0754 38.42C88.7859 38.6433 88.4324 38.7495 88.0772 38.72Z" fill="#093269"/>
<path d="M86.407 31.5261C86.5629 30.8053 86.4541 30.1621 86.1639 30.0896C85.8737 30.017 85.5122 30.5426 85.3563 31.2634C85.2004 31.9842 85.3093 32.6274 85.5994 32.6999C85.8896 32.7725 86.2512 32.2469 86.407 31.5261Z" fill="#093269"/>
<path d="M91.6312 32.8279C91.7871 32.1071 91.6782 31.4639 91.3881 31.3914C91.0979 31.3188 90.7363 31.8444 90.5804 32.5652C90.4246 33.286 90.5334 33.9292 90.8236 34.0018C91.1137 34.0743 91.4753 33.5488 91.6312 32.8279Z" fill="#093269"/>
<path d="M84.8408 44.9934C84.8408 44.9934 82.2864 45.08 79.6204 42.52C79.6204 42.52 80.0234 47.64 84.289 48.7934L84.8408 44.9934Z" fill="#093269"/>
<path d="M84.32 49.1267H84.2456C79.8188 47.9267 79.3476 42.6067 79.3476 42.5534C79.3412 42.4871 79.3537 42.4202 79.3837 42.3618C79.4136 42.3034 79.4594 42.2563 79.515 42.2267C79.5705 42.196 79.6333 42.184 79.6953 42.1923C79.7572 42.2007 79.8154 42.2289 79.8622 42.2734C81.2044 43.6742 82.9628 44.5216 84.8284 44.6667C84.874 44.6648 84.9195 44.6741 84.9613 44.6937C85.0032 44.7133 85.0404 44.7428 85.0702 44.78C85.0999 44.8173 85.1219 44.861 85.1347 44.9081C85.1475 44.9552 85.1509 45.0047 85.1446 45.0534L84.599 48.8534C84.5926 48.8994 84.5771 48.9435 84.5536 48.9826C84.5301 49.0217 84.499 49.0549 84.4626 49.08C84.4197 49.1089 84.3705 49.125 84.32 49.1267ZM80.0668 43.3334C80.3644 44.7334 81.3068 47.4334 84.041 48.36L84.4812 45.3C82.8664 45.1064 81.3357 44.4245 80.0668 43.3334Z" fill="#093269"/>
<path d="M87.1596 41.7134C86.1586 41.765 85.1788 41.3915 84.4316 40.6734C82.6832 38.8934 83.1296 35.5267 83.1482 35.3867C83.1619 35.2999 83.2064 35.2222 83.2723 35.17C83.3383 35.1178 83.4204 35.0951 83.5016 35.1067C83.5419 35.1132 83.5807 35.1282 83.6156 35.1508C83.6505 35.1735 83.6809 35.2033 83.7051 35.2386C83.7293 35.2739 83.7468 35.314 83.7565 35.3566C83.7663 35.3991 83.7682 35.4434 83.762 35.4867C83.762 35.52 83.3466 38.6534 84.8594 40.1867C85.6716 41.0134 86.9116 41.2467 88.5484 40.8534C88.6288 40.8374 88.7118 40.8556 88.78 40.9041C88.8482 40.9526 88.8963 41.0276 88.9142 41.1134C88.9232 41.1563 88.9241 41.2008 88.9167 41.2441C88.9093 41.2874 88.8939 41.3287 88.8713 41.3655C88.8487 41.4022 88.8194 41.4337 88.7853 41.4579C88.7511 41.4822 88.7127 41.4988 88.6724 41.5067C88.1759 41.6305 87.6691 41.6998 87.1596 41.7134Z" fill="#093269"/>
<path d="M105.189 70.3C105.605 71.04 106.008 71.7267 106.342 72.3C106.663 72.8696 106.763 73.5512 106.621 74.1991C106.48 74.847 106.108 75.4097 105.586 75.7667L101.06 78.9067C100.537 79.2657 99.905 79.3906 99.2979 79.2548C98.6909 79.119 98.1573 78.7333 97.8112 78.18L96.5712 76.18C94.4694 72.7734 91.7848 68.3267 91.5616 67.5134C91.466 67.1676 91.4241 66.8072 91.4376 66.4467C91.4376 65.3334 91.7414 64.1067 91.388 63.1667C90.9168 61.9134 88.8584 62.46 87.8106 60.3067C87.5041 59.6982 87.3545 59.0126 87.3774 58.321C87.4003 57.6294 87.5948 56.9569 87.9408 56.3734L92.1444 53.4867C92.7825 53.3983 93.431 53.4936 94.0236 53.763C94.6162 54.0324 95.1316 54.4662 95.5172 55.02C96.8874 56.9534 95.5544 58.7334 96.4162 59.6867C97.0362 60.4334 98.2204 60.66 99.1566 61.12C99.466 61.2658 99.7542 61.4589 100.012 61.6934C100.595 62.32 103.205 66.8134 105.189 70.3Z" fill="#E7EB2E"/>
<path d="M99.758 79.6467C99.3185 79.6471 98.8857 79.5304 98.4983 79.3071C98.111 79.0837 97.7812 78.7606 97.5384 78.3667L96.8812 77.3333L96.317 76.4133C94.5438 73.54 91.5244 68.58 91.2702 67.68C91.1664 67.2993 91.1204 66.9031 91.1338 66.5067C91.1338 66.1533 91.1338 65.7867 91.1958 65.4333C91.3155 64.7439 91.2836 64.0339 91.1028 63.36C90.9602 62.9667 90.5758 62.7933 89.9682 62.5533C89.3725 62.3889 88.8218 62.074 88.3618 61.635C87.9019 61.1959 87.5459 60.6452 87.3235 60.0287C87.101 59.4121 87.0185 58.7474 87.0827 58.0896C87.1469 57.4319 87.3561 56.8001 87.6928 56.2467C87.7152 56.2093 87.7448 56.1775 87.7796 56.1533L91.9832 53.2733C92.0171 53.2498 92.055 53.2339 92.0948 53.2267C92.702 53.1368 93.3203 53.203 93.8991 53.4199C94.4778 53.6369 95.0004 53.9984 95.424 54.4747C95.8476 54.951 96.1601 55.5285 96.3358 56.1599C96.5115 56.7913 96.5454 57.4585 96.4348 58.1067C96.379 58.7733 96.3604 59.2467 96.627 59.56C97.1226 60.0201 97.7103 60.3509 98.3444 60.5267C98.6544 60.6467 98.9644 60.7667 99.2744 60.92C99.6114 61.0756 99.9249 61.2846 100.204 61.54C100.824 62.2067 103.763 67.2067 105.437 70.1533L105.946 71.0533C106.175 71.4533 106.392 71.8333 106.566 72.18C106.932 72.8234 107.048 73.5958 106.889 74.3304C106.73 75.065 106.309 75.703 105.716 76.1067L101.172 79.22C100.746 79.4991 100.257 79.6467 99.758 79.6467ZM88.164 56.6667C87.8942 57.1383 87.7321 57.672 87.6909 58.224C87.6498 58.776 87.7309 59.3306 87.9274 59.8424C88.124 60.3542 88.4305 60.8087 88.8219 61.1687C89.2132 61.5286 89.6783 61.7838 90.179 61.9133C90.799 62.1667 91.419 62.4067 91.6794 63.0933C91.8996 63.8661 91.9464 64.684 91.8158 65.48C91.7848 65.8267 91.7538 66.1467 91.7538 66.5C91.7426 66.8283 91.7782 67.1566 91.8592 67.4733C92.0266 68.06 93.8866 71.26 96.8192 76.0333L97.3896 76.9467L98.0406 78.0067C98.3342 78.4951 98.7953 78.8391 99.3235 78.964C99.8518 79.0888 100.405 78.9844 100.862 78.6733L105.406 75.56C105.862 75.2496 106.186 74.7593 106.309 74.1945C106.432 73.6297 106.344 73.0356 106.063 72.54L105.443 71.4267L104.929 70.52C102.145 65.5867 100.235 62.4267 99.82 62C99.5882 61.7864 99.3267 61.6132 99.045 61.4867C98.766 61.3467 98.4622 61.2267 98.1646 61.1133C97.4359 60.912 96.7608 60.5308 96.193 60C95.7218 59.46 95.7776 58.7733 95.8334 58.04C95.9182 57.5633 95.9125 57.073 95.8166 56.5987C95.7207 56.1244 95.5366 55.6758 95.2754 55.28C94.9331 54.78 94.4744 54.3855 93.9456 54.1363C93.4167 53.887 92.8361 53.7918 92.2622 53.86L88.164 56.6667Z" fill="#093269"/>
<path d="M90.7355 51.1442L86.8351 53.8171L88.2512 56.2065L92.1516 53.5336L90.7355 51.1442Z" fill="white"/>
<path d="M88.2508 56.54C88.1982 56.5399 88.1466 56.525 88.1009 56.497C88.0553 56.4689 88.0172 56.4286 87.9904 56.38L86.5706 54C86.5493 53.9637 86.5351 53.9231 86.5287 53.8808C86.5223 53.8384 86.5239 53.7951 86.5334 53.7534C86.5515 53.666 86.6004 53.5895 86.6698 53.54L90.5696 50.8734C90.6034 50.8505 90.6411 50.8352 90.6805 50.8283C90.7199 50.8214 90.7602 50.8231 90.799 50.8334C90.8396 50.842 90.8782 50.8594 90.9123 50.8847C90.9464 50.9099 90.9754 50.9423 90.9974 50.98L92.411 53.3334C92.4553 53.4077 92.4703 53.4978 92.4529 53.584C92.4355 53.6703 92.387 53.7455 92.318 53.7934L88.4182 56.46C88.3701 56.5023 88.3122 56.53 88.2508 56.54ZM87.265 53.92L88.3438 55.74L91.7228 53.4267L90.6378 51.6067L87.265 53.92Z" fill="#093269"/>
<path d="M105.189 70.3L96.5774 76.2067C94.4756 72.8 91.791 68.3533 91.5678 67.54C91.4722 67.1942 91.4303 66.8338 91.4438 66.4733L99.1628 61.18C99.4722 61.3257 99.7604 61.5189 100.018 61.7533C100.595 62.32 103.205 66.8133 105.189 70.3Z" fill="#093269"/>
<path d="M96.5774 76.54C96.5256 76.5393 96.4748 76.525 96.4294 76.4983C96.384 76.4715 96.3454 76.4332 96.317 76.3867C94.5438 73.5134 91.5244 68.5534 91.2702 67.6534C91.1664 67.2727 91.1204 66.8765 91.1338 66.48C91.135 66.4245 91.1485 66.37 91.1733 66.3213C91.1981 66.2726 91.2335 66.231 91.2764 66.2L98.9954 60.9134C99.0412 60.8871 99.0923 60.8734 99.1442 60.8734C99.1961 60.8734 99.2472 60.8871 99.293 60.9134C99.63 61.069 99.9435 61.278 100.223 61.5334C100.843 62.2 103.782 67.2 105.456 70.1467C105.498 70.2212 105.511 70.3104 105.492 70.3951C105.473 70.4798 105.425 70.5533 105.357 70.6L96.72 76.4867C96.6767 76.5155 96.628 76.5337 96.5774 76.54ZM91.76 66.6667C91.7628 66.9349 91.7982 67.2017 91.8654 67.46C92.0328 68.04 93.8246 71.1267 96.6704 75.7467L104.78 70.1934C102.089 65.4667 100.242 62.42 99.82 62.0134C99.6317 61.8388 99.4233 61.6909 99.2 61.5734L91.76 66.6667Z" fill="#093269"/>
<path d="M58.1746 71.5533C58.1746 72.0333 60.5802 94.3667 63.891 94.5267C67.2018 94.6867 89.7574 80.1267 89.7574 80.1267C93.713 78.9067 103.583 76.7933 100.105 69.8667C99.8668 69.3444 99.4891 68.9104 99.0202 68.62C98.2879 68.3 97.4721 68.2787 96.7262 68.56C95.9391 68.7792 95.1793 69.0993 94.4632 69.5133C94.2256 69.7003 93.931 69.7837 93.6386 69.7467C93.4624 69.6719 93.3067 69.5503 93.186 69.3933L91.946 68.0133C91.2144 69.56 90.5138 71.6467 89.1994 72.58C88.5179 72.9397 87.803 73.2213 87.0666 73.42L79.98 76.22L69.285 80.4467L67.4808 68.4467" fill="#FFDEC0"/>
<path d="M63.9406 94.86H63.86C60.0966 94.6734 57.846 71.78 57.846 71.5267C57.846 71.4383 57.8787 71.3535 57.9368 71.291C57.9949 71.2285 58.0738 71.1933 58.156 71.1933C58.2382 71.1933 58.3171 71.2285 58.3752 71.291C58.4333 71.3535 58.466 71.4383 58.466 71.5267C58.5156 73.3534 61.0762 94.0334 63.8848 94.1934C66.4082 94.3067 81.8028 84.86 89.5776 79.84L89.652 79.8067L90.8176 79.46C93.8804 78.5734 99.0078 77.0934 100.229 74.04C100.707 72.8533 100.57 71.54 99.8138 70.04C99.6058 69.5783 99.273 69.1949 98.859 68.94C98.1972 68.6513 97.4593 68.6371 96.7882 68.9C96.0231 69.1144 95.2843 69.4255 94.5872 69.8267C94.4376 69.9431 94.2677 70.026 94.0878 70.0707C93.9078 70.1154 93.7214 70.1208 93.5394 70.0867C93.2972 70.0046 93.0821 69.8496 92.9194 69.64L91.9832 68.6067L91.7662 69.1C91.1462 70.4933 90.4642 72.0733 89.3296 72.88C88.853 73.1786 88.3395 73.403 87.8044 73.5467C87.5688 73.62 87.3394 73.6934 87.1348 73.7734L69.44 80.76C69.3994 80.7812 69.3549 80.7923 69.3098 80.7923C69.2647 80.7923 69.2202 80.7812 69.1796 80.76C69.1397 80.7346 69.1056 80.6998 69.0798 80.6582C69.0541 80.6167 69.0373 80.5695 69.0308 80.52L67.2204 68.52C67.2142 68.4767 67.2161 68.4324 67.2259 68.3899C67.2356 68.3473 67.2531 68.3072 67.2773 68.2719C67.3015 68.2366 67.3319 68.2068 67.3668 68.1842C67.4017 68.1615 67.4405 68.1465 67.4808 68.14C67.5208 68.1324 67.5617 68.1335 67.6013 68.1432C67.6409 68.1529 67.6782 68.171 67.7111 68.1965C67.7441 68.222 67.7719 68.2543 67.7931 68.2915C67.8142 68.3288 67.8282 68.3702 67.8342 68.4133L69.5578 80L86.9612 73.1067C87.1782 73.0267 87.42 72.9467 87.6742 72.8667C88.1484 72.7441 88.6051 72.5535 89.032 72.3C90.0178 71.6333 90.675 70.1133 91.2516 68.8C91.388 68.4733 91.5306 68.1333 91.667 67.86C91.6913 67.813 91.725 67.7724 91.7658 67.7413C91.8066 67.7101 91.8533 67.6892 91.9026 67.68C91.9512 67.6728 92.0008 67.6781 92.0471 67.6955C92.0935 67.7129 92.1353 67.7418 92.1692 67.78L93.4092 69.16C93.494 69.2724 93.6023 69.3615 93.7254 69.42C93.8804 69.4733 94.1036 69.3467 94.3454 69.22C95.0852 68.7921 95.8699 68.4609 96.6828 68.2333C97.5026 67.9358 98.3951 67.9689 99.1938 68.3267C99.7285 68.6398 100.161 69.1214 100.434 69.7067C101.277 71.3867 101.426 72.94 100.874 74.3067C99.5348 77.64 94.426 79.1267 91.0532 80.1067L89.9372 80.4334C88.5546 81.2934 67.4622 94.86 63.9406 94.86Z" fill="#093269"/>
<path d="M68.4046 50.0334C68.4046 50.84 70.215 72.0334 70.215 72.0334L56.668 74.7867C56.668 74.7867 55.614 57.8 55.9178 57.1467" fill="#82D285"/>
<path d="M56.668 75.12C56.6 75.1191 56.5344 75.0932 56.482 75.0467C56.4457 75.0194 56.4157 74.9836 56.3942 74.9421C56.3728 74.9005 56.3604 74.8542 56.358 74.8067C56.0418 69.6733 55.335 57.66 55.6388 57C55.6566 56.9605 55.6815 56.9253 55.7122 56.8964C55.743 56.8675 55.7788 56.8455 55.8175 56.8318C55.8563 56.8181 55.8972 56.813 55.9379 56.8167C55.9786 56.8204 56.0181 56.8329 56.0542 56.8533C56.0909 56.8725 56.1237 56.8993 56.1507 56.9322C56.1778 56.9651 56.1985 57.0033 56.2117 57.0448C56.225 57.0863 56.2305 57.1302 56.2279 57.174C56.2254 57.2178 56.2148 57.2606 56.1968 57.3C56.0232 57.9667 56.5502 67.76 56.9532 74.3867L69.8802 71.7667C69.6508 69.1 68.0946 50.8 68.0946 50.0333C68.0946 49.9449 68.1273 49.8602 68.1854 49.7976C68.2435 49.7351 68.3224 49.7 68.4046 49.7C68.4868 49.7 68.5657 49.7351 68.6238 49.7976C68.6819 49.8602 68.7146 49.9449 68.7146 50.0333C68.7146 50.66 69.8988 64.7 70.5188 72.0333C70.5262 72.115 70.5049 72.1966 70.4589 72.2621C70.413 72.3275 70.3458 72.372 70.2708 72.3867L56.73 75.1133L56.668 75.12Z" fill="#668A67"/>
<path d="M59.0054 129.12C58.9327 129.121 58.8621 129.094 58.8064 129.044C58.7506 128.994 58.7135 128.924 58.7016 128.847C57.2375 119.86 56.2172 110.796 55.645 101.693C55.6431 101.606 55.672 101.521 55.7261 101.455C55.7802 101.39 55.8553 101.348 55.9364 101.34C55.9771 101.337 56.018 101.343 56.0565 101.358C56.0951 101.372 56.1307 101.394 56.1612 101.423C56.1917 101.452 56.2166 101.488 56.2344 101.527C56.2522 101.567 56.2626 101.61 56.265 101.653C56.8295 110.73 57.8457 119.767 59.3092 128.727C59.3237 128.813 59.3058 128.903 59.2593 128.975C59.2128 129.047 59.1416 129.097 59.0612 129.113L59.0054 129.12Z" fill="white"/>
<path d="M51.8692 168.5C51.8692 168.5 47.6904 177.72 48.4406 178.367C49.1908 179.013 69.9608 183.033 69.657 180.147C69.3532 177.26 62.1798 173.353 62.031 169.953L51.8692 168.5Z" fill="#093269"/>
<path d="M66.402 181.5C60.4686 181.5 48.8374 179.133 48.2484 178.627C47.4672 177.96 49.6372 172.667 51.5964 168.353C51.6244 168.291 51.6699 168.239 51.7266 168.205C51.7833 168.172 51.8484 168.158 51.9126 168.167L62.0682 169.627C62.1407 169.636 62.2078 169.673 62.2577 169.73C62.3076 169.787 62.3371 169.862 62.341 169.94C62.4154 171.587 64.3808 173.46 66.2904 175.273C68.1008 176.987 69.812 178.607 69.967 180.12C69.9824 180.316 69.9396 180.511 69.8449 180.679C69.7502 180.847 69.6084 180.978 69.44 181.053C68.4678 181.43 67.4326 181.582 66.402 181.5ZM48.6638 178.12C49.8542 178.713 66.7678 182.087 69.192 180.427C69.3656 180.313 69.3532 180.227 69.347 180.187C69.223 178.933 67.5242 177.327 65.8812 175.767C63.9716 173.96 62.0062 172.093 61.7458 170.253L52.08 168.86C50.22 172.907 48.5026 177.373 48.6638 178.12Z" fill="#093269"/>
<path d="M75.1316 168C75.1316 168 73.1104 170.36 71.8456 177.22C71.8456 177.22 94.9592 179.447 95.2196 178.233C95.48 177.02 89.2366 174.96 87.3208 172.533C85.405 170.107 85.7398 168 85.7398 168H75.1316Z" fill="#093269"/>
<path d="M92.2808 178.94C90.5076 178.94 87.7424 178.827 83.4148 178.527C77.6674 178.127 71.8766 177.573 71.8208 177.567C71.7776 177.563 71.7356 177.549 71.6976 177.527C71.6596 177.504 71.6263 177.474 71.6 177.437C71.5738 177.4 71.555 177.357 71.5449 177.312C71.5349 177.266 71.5338 177.219 71.5418 177.173C72.7818 170.3 74.8154 167.887 74.9022 167.787C74.9317 167.753 74.9672 167.726 75.0067 167.708C75.0461 167.69 75.0886 167.68 75.1316 167.68H85.7398C85.7851 167.678 85.8301 167.689 85.8711 167.709C85.9121 167.73 85.9478 167.761 85.9754 167.8C86.0054 167.836 86.0272 167.878 86.039 167.925C86.0509 167.971 86.0524 168.02 86.0436 168.067C86.0436 168.067 85.7646 170.067 87.5564 172.327C88.474 173.493 90.4766 174.593 92.2436 175.567C94.5128 176.813 95.6908 177.5 95.5234 178.32C95.48 178.6 95.387 178.94 92.2808 178.94ZM72.2176 176.94C80.4884 177.727 93.4774 178.693 94.9034 178.1C94.7298 177.68 93.0434 176.767 91.9584 176.16C90.1418 175.16 88.0834 174.027 87.0852 172.76C86.0417 171.56 85.4439 169.989 85.405 168.347H75.2742C74.896 168.867 73.3026 171.333 72.2176 176.94Z" fill="#093269"/>
<path d="M127.503 62.7734C127.503 62.7734 129.363 66.62 132.81 76.2067C136.257 85.7934 141.986 106.5 140.486 120.573C138.985 134.647 130.925 149.86 120.993 151.64C111.061 153.42 103.013 149.193 100.837 144.107C98.6606 139.02 100.155 112.827 99.7084 105.44C99.4584 101.167 98.9927 96.912 98.3134 92.6934C98.3134 92.6934 126.902 75.8 127.503 62.7734Z" fill="#202020"/>
<path d="M116.696 152.347C109.92 152.347 102.889 149.68 100.576 144.247C99.0884 140.78 99.2806 127.913 99.4294 117.58C99.5038 112.4 99.572 107.927 99.4294 105.493C99.1797 101.234 98.7161 96.9922 98.0406 92.7867C98.0286 92.7177 98.0371 92.6465 98.0649 92.5831C98.0927 92.5196 98.1385 92.4672 98.1956 92.4334C98.4808 92.2667 126.641 75.46 127.23 62.7667C127.235 62.6945 127.261 62.626 127.306 62.5714C127.35 62.5168 127.409 62.4792 127.475 62.4641C127.541 62.4491 127.609 62.4574 127.67 62.488C127.731 62.5185 127.781 62.5695 127.813 62.6334C127.813 62.6734 129.704 66.6334 133.133 76.0934C136.698 85.98 142.333 106.48 140.821 120.627C139.364 134.267 131.403 150.133 121.074 151.96C119.627 152.217 118.163 152.346 116.696 152.347ZM98.6606 92.8867C99.3131 97.0409 99.7643 101.229 100.012 105.433C100.167 107.9 100.099 112.387 100.012 117.58C99.8634 127.853 99.6774 140.64 101.103 143.967C103.236 148.94 111.234 153.053 120.943 151.3C130.981 149.5 138.744 133.927 140.163 120.527C141.664 106.527 136.059 86.14 132.506 76.3134C130.076 69.5734 128.433 65.6467 127.683 63.94C126.827 69.2267 121.849 75.5867 112.859 82.88C108.32 86.5242 103.579 89.866 98.6606 92.8867Z" fill="#093269"/>
<path d="M128.08 68.9667C127.521 73.4427 126.127 77.7511 123.981 81.6334C123.541 82.46 123.058 83.3 122.537 84.1334C121.268 86.1414 119.765 87.9673 118.067 89.5667C117.022 90.5558 115.92 91.4732 114.768 92.3134C113.597 93.1737 112.375 93.9509 111.11 94.64C109.631 95.4633 108.077 96.1202 106.473 96.6C105.827 96.7865 105.167 96.9092 104.501 96.9667C104.157 97.0104 103.81 97.0104 103.466 96.9667C101.048 96.6467 98.9954 95.5334 98.4064 93.1734C98.0778 91.84 98.208 90.2 98.952 88.0734C101.06 82.0734 108.773 76.1734 113.739 72.2534C118.705 68.3334 126.48 62.4067 126.48 62.4067C127.677 61.96 128.545 64.6667 128.08 68.9667Z" fill="#202020"/>
<path d="M103.986 97.3333C103.801 97.3442 103.614 97.3442 103.428 97.3333C100.508 96.9467 98.6668 95.5533 98.1088 93.2933C97.7492 91.86 97.9352 90.0733 98.6668 87.96C100.719 82.1133 108.078 76.3067 112.927 72.4667L113.547 71.9933C118.463 68.1133 126.226 62.2133 126.306 62.1533L126.381 62.1133C126.552 62.0437 126.737 62.0249 126.917 62.059C127.097 62.093 127.265 62.1786 127.404 62.3067C128.346 63.12 128.731 65.7533 128.377 69.02C127.806 73.5383 126.4 77.8881 124.242 81.8133C123.789 82.6667 123.299 83.5133 122.791 84.3333C121.506 86.3638 119.985 88.2098 118.265 89.8267C117.211 90.8258 116.102 91.7543 114.942 92.6067C113.748 93.4702 112.505 94.2539 111.222 94.9533C109.726 95.7931 108.153 96.4633 106.528 96.9533C105.865 97.1457 105.186 97.2729 104.501 97.3333C104.334 97.3333 104.16 97.3333 103.986 97.3333ZM126.629 62.72C126.009 63.18 118.649 68.7867 113.919 72.52L113.299 73C108.488 76.7933 101.215 82.5267 99.2248 88.1867C98.5428 90.14 98.363 91.7867 98.6916 93.0867C99.3116 95.58 101.637 96.42 103.484 96.6333C103.808 96.6709 104.134 96.6709 104.458 96.6333C105.107 96.5688 105.75 96.4462 106.38 96.2667C107.96 95.7939 109.491 95.1483 110.949 94.34C112.202 93.6532 113.413 92.8828 114.576 92.0333C115.725 91.2119 116.823 90.3099 117.862 89.3333C119.542 87.7537 121.027 85.9503 122.283 83.9667C122.785 83.16 123.268 82.3267 123.715 81.4867C125.828 77.6403 127.206 73.3794 127.77 68.9533C128.142 65.5067 127.639 63.3667 127.026 62.8333C126.974 62.7784 126.911 62.738 126.842 62.7159C126.773 62.6938 126.7 62.6906 126.629 62.7067V62.72Z" fill="#093269"/>
<path d="M115.94 88.3334C115.559 89.1126 115.132 89.8652 114.663 90.5867C112.739 93.6194 109.824 95.7616 106.497 96.5867C105.852 96.7727 105.192 96.8954 104.526 96.9534C104.182 96.9971 103.834 96.9971 103.49 96.9534C101.761 96.7067 99.8882 96.0534 98.9148 94.3667C97.9414 92.68 99.169 90.1867 100.911 89.5534C100.875 89.0046 100.962 88.4545 101.163 87.9489C101.365 87.4433 101.676 86.9969 102.071 86.6467C103.094 85.7467 105.543 85.3134 106.807 85.5867C106.711 84.2604 106.965 82.9319 107.539 81.7534C107.832 81.1679 108.267 80.6785 108.797 80.337C109.327 79.9955 109.934 79.8146 110.552 79.8134C110.638 78.988 110.932 78.2037 111.404 77.5455C111.875 76.8874 112.504 76.3806 113.224 76.08C114.731 75.4734 116.101 75.98 117.385 76.86C118.668 77.74 118.625 78.82 118.364 80.42C117.936 83.1753 117.119 85.8439 115.94 88.3334Z" fill="white"/>
<path d="M103.986 97.3334C103.801 97.3443 103.614 97.3443 103.428 97.3334C101.103 97 99.4852 96.08 98.6296 94.5934C98.3988 94.182 98.2597 93.7188 98.2231 93.2399C98.1865 92.7611 98.2535 92.2797 98.4188 91.8334C98.6012 91.2865 98.8864 90.7859 99.2565 90.3627C99.6266 89.9395 100.074 89.6027 100.57 89.3734C100.566 88.812 100.679 88.2568 100.9 87.7482C101.121 87.2396 101.445 86.7904 101.847 86.4334C102.87 85.54 105.065 85.1 106.466 85.2467C106.418 83.9863 106.688 82.7353 107.248 81.6267C107.549 81.0369 107.981 80.5364 108.505 80.1699C109.03 79.8035 109.631 79.5825 110.255 79.5267C110.391 78.6973 110.724 77.9197 111.221 77.2692C111.719 76.6187 112.364 76.1172 113.094 75.8134C114.954 75.0734 116.504 75.9267 117.527 76.6267C118.997 77.6334 118.91 78.9334 118.649 80.5267C118.205 83.3131 117.368 86.0106 116.169 88.5267C115.784 89.3182 115.351 90.0821 114.874 90.8134C112.905 93.9101 109.927 96.099 106.528 96.9467C105.867 97.1395 105.19 97.2667 104.507 97.3267C104.334 97.3334 104.16 97.3334 103.986 97.3334ZM105.896 85.8534C104.656 85.8534 103.001 86.2467 102.238 86.9134C101.882 87.2304 101.603 87.6342 101.421 88.091C101.24 88.5479 101.163 89.0447 101.196 89.54C101.202 89.614 101.185 89.688 101.147 89.7498C101.108 89.8117 101.051 89.8576 100.986 89.88C100.53 90.0623 100.117 90.3486 99.7745 90.7192C99.432 91.0898 99.1683 91.5359 99.0016 92.0267C98.8689 92.3782 98.8139 92.758 98.8408 93.1363C98.8677 93.5145 98.9758 93.8809 99.1566 94.2067C99.913 95.54 101.376 96.3334 103.497 96.64C103.818 96.6739 104.142 96.6739 104.464 96.64C105.113 96.575 105.756 96.4523 106.386 96.2734C109.637 95.4623 112.487 93.3687 114.371 90.4067C114.827 89.6949 115.241 88.9535 115.611 88.1867C116.778 85.7275 117.585 83.09 118.005 80.3667C118.284 78.7 118.228 77.88 117.161 77.1467C115.692 76.14 114.495 75.9067 113.274 76.4C112.607 76.6774 112.023 77.1459 111.586 77.7546C111.149 78.3634 110.875 79.0892 110.794 79.8534C110.786 79.9382 110.748 80.0166 110.688 80.0724C110.628 80.1282 110.551 80.1572 110.472 80.1534C109.911 80.1613 109.363 80.3298 108.884 80.6415C108.404 80.9532 108.011 81.3969 107.744 81.9267C107.194 83.0485 106.955 84.3165 107.055 85.58C107.057 85.6307 107.048 85.681 107.028 85.7272C107.009 85.7734 106.98 85.8143 106.944 85.8467C106.909 85.8796 106.867 85.9033 106.822 85.9161C106.776 85.9288 106.729 85.9301 106.683 85.92C106.424 85.8664 106.16 85.8396 105.896 85.84V85.8534Z" fill="#093269"/>
<path d="M125.86 61.0734C126.579 60.64 127.422 60.3467 127.404 61.4134C127.367 63.26 126.331 67.1933 125.302 67.5133C123.256 68.18 124.322 63.26 124.322 63.26" fill="#FFDEC0"/>
<path d="M124.98 67.9067C124.848 67.9096 124.718 67.8846 124.595 67.8331C124.473 67.7816 124.361 67.7047 124.267 67.6067C123.324 66.6467 123.969 63.5334 124.043 63.18C124.063 63.0944 124.112 63.0204 124.182 62.9742C124.252 62.928 124.336 62.9133 124.415 62.9334C124.455 62.9427 124.493 62.9606 124.526 62.986C124.559 63.0114 124.588 63.0437 124.609 63.081C124.63 63.1183 124.645 63.1599 124.651 63.2033C124.657 63.2466 124.655 63.2909 124.645 63.3334C124.391 64.52 124.174 66.5934 124.694 67.1267C124.775 67.2067 124.911 67.3 125.24 67.1934C126.009 66.9534 127.1 63.3467 127.1 61.4067C127.1 61.2134 127.069 61.0734 127.013 61.0334C126.957 60.9934 126.771 60.9067 126.021 61.36C125.986 61.3823 125.947 61.3967 125.906 61.4024C125.866 61.4081 125.825 61.4049 125.785 61.3931C125.746 61.3813 125.709 61.361 125.677 61.3336C125.645 61.3061 125.619 61.272 125.6 61.2334C125.559 61.1564 125.549 61.0655 125.571 60.9805C125.593 60.8955 125.646 60.8234 125.717 60.78C126.449 60.34 126.957 60.2333 127.336 60.4667C127.475 60.5725 127.584 60.7173 127.652 60.8854C127.72 61.0536 127.743 61.2385 127.72 61.42C127.689 63.0667 126.728 67.42 125.395 67.8334C125.261 67.8793 125.121 67.904 124.98 67.9067Z" fill="#093269"/>
<path d="M87.3766 103.273C87.3266 103.274 87.2775 103.26 87.234 103.233C85.498 102.24 83.359 98.42 83.2722 98.2534C83.2509 98.2163 83.2368 98.175 83.2306 98.132C83.2244 98.089 83.2263 98.0451 83.2361 98.0028C83.246 97.9606 83.2635 97.9209 83.2878 97.8861C83.3121 97.8512 83.3426 97.822 83.3776 97.8C83.4125 97.777 83.4514 97.7617 83.4919 97.755C83.5324 97.7483 83.5737 97.7502 83.6135 97.7607C83.6532 97.7713 83.6907 97.7902 83.7236 97.8164C83.7566 97.8426 83.7844 97.8755 83.8054 97.9134C83.8054 97.9534 85.9444 101.74 87.5254 102.647C87.5862 102.682 87.6344 102.738 87.6621 102.806C87.6899 102.874 87.6956 102.95 87.6785 103.022C87.6614 103.095 87.6224 103.158 87.5677 103.204C87.513 103.249 87.4457 103.274 87.3766 103.273Z" fill="white"/>
<path d="M61.256 104.727C61.184 104.725 61.1146 104.697 61.0594 104.648C61.0041 104.598 60.9663 104.529 60.9522 104.453C60.9377 104.367 60.9556 104.278 61.0021 104.205C61.0486 104.133 61.1198 104.083 61.2002 104.067C61.3614 104.067 65.0256 103.26 64.3374 99.1134C64.3247 99.026 64.3442 98.9368 64.3916 98.8646C64.4391 98.7924 64.5108 98.743 64.5916 98.7267C64.6319 98.719 64.6733 98.7201 64.7132 98.7297C64.7532 98.7393 64.7909 98.7574 64.8244 98.7828C64.8578 98.8082 64.8862 98.8405 64.908 98.8777C64.9298 98.915 64.9445 98.9566 64.9512 99C65.7448 103.8 61.3614 104.713 61.3118 104.727H61.256Z" fill="white"/>
<path d="M128.08 68.9667C127.521 73.4426 126.127 77.7511 123.981 81.6333C123.541 82.46 123.058 83.3 122.537 84.1333C120.451 87.3634 117.815 90.139 114.768 92.3133C114.973 92.1667 114.526 87.7867 114.551 87.1733C114.576 86.56 114.756 85.8867 114.768 85.2867C114.768 84.42 114.285 83.62 114.148 82.76C114.034 82.1005 114.074 81.4209 114.265 80.7821C114.455 80.1433 114.79 79.5653 115.239 79.1C114.954 78.9845 114.717 78.763 114.57 78.4757C114.423 78.1884 114.377 77.8541 114.44 77.5333C114.582 76.8945 114.92 76.3259 115.401 75.92C116.677 74.6372 118.177 73.6401 119.815 72.9867C120.054 72.8613 120.325 72.8283 120.584 72.8933C120.857 73.0067 120.999 73.3267 121.253 73.48C121.805 73.8267 122.456 73.2467 122.958 72.8133C123.461 72.38 124.428 72.2067 124.577 72.8733C124.555 72.3647 124.631 71.8568 124.799 71.3808C124.967 70.9048 125.224 70.4709 125.554 70.1056C125.884 69.7403 126.28 69.4514 126.717 69.2567C127.155 69.062 127.625 68.9656 128.098 68.9733L128.08 68.9667Z" fill="white"/>
<path d="M114.768 92.6667C114.714 92.6663 114.661 92.6507 114.614 92.6213C114.567 92.5919 114.528 92.5498 114.501 92.4992C114.474 92.4485 114.46 92.3912 114.46 92.3329C114.46 92.2745 114.474 92.2172 114.502 92.1667C114.502 91.1001 114.45 90.0341 114.347 88.9734C114.278 88.0134 114.235 87.4067 114.241 87.18C114.26 86.8534 114.297 86.5283 114.353 86.2067C114.407 85.9074 114.443 85.6045 114.458 85.3C114.434 84.822 114.325 84.3535 114.136 83.92C114.006 83.5715 113.903 83.2126 113.826 82.8467C113.717 82.2093 113.74 81.5539 113.893 80.9271C114.046 80.3003 114.326 79.7175 114.712 79.22C114.477 79.0178 114.295 78.7521 114.187 78.45C114.078 78.1478 114.045 77.8201 114.092 77.5C114.239 76.7833 114.614 76.1442 115.153 75.6934C116.457 74.3807 117.991 73.3608 119.666 72.6934C119.976 72.5361 120.329 72.5053 120.658 72.6067C120.845 72.6961 121.011 72.8307 121.142 73C121.207 73.082 121.282 73.1538 121.365 73.2134C121.718 73.4334 122.252 72.98 122.679 72.6134C122.893 72.4153 123.146 72.2722 123.419 72.1948C123.692 72.1175 123.977 72.1078 124.254 72.1667C124.381 71.2921 124.763 70.4838 125.347 69.8591C125.93 69.2345 126.683 68.8261 127.497 68.6934C127.683 68.6795 127.869 68.6795 128.055 68.6934C128.098 68.6919 128.142 68.7007 128.182 68.7192C128.222 68.7377 128.257 68.7654 128.286 68.8003C128.315 68.8353 128.337 68.8767 128.349 68.9216C128.362 68.9664 128.365 69.0137 128.359 69.06C127.787 73.5783 126.381 77.9281 124.223 81.8534C123.771 82.7067 123.281 83.5534 122.772 84.3734C120.668 87.6398 118.004 90.4453 114.923 92.64C114.874 92.6607 114.821 92.6698 114.768 92.6667ZM120.348 73.2067C120.197 73.2205 120.049 73.2587 119.908 73.32C118.31 73.9603 116.845 74.9346 115.599 76.1867C115.168 76.5431 114.862 77.046 114.731 77.6134C114.684 77.8524 114.716 78.1014 114.821 78.3179C114.927 78.5343 115.098 78.7048 115.308 78.8C115.361 78.8153 115.409 78.8456 115.447 78.8879C115.485 78.9301 115.512 78.9827 115.525 79.04C115.539 79.0978 115.538 79.1587 115.523 79.2161C115.508 79.2736 115.478 79.3256 115.438 79.3667C115.031 79.7922 114.727 80.3186 114.553 80.8997C114.379 81.4808 114.34 82.099 114.44 82.7C114.508 83.0285 114.604 83.3497 114.725 83.66C114.941 84.1768 115.064 84.7336 115.084 85.3C115.068 85.6357 115.031 85.9698 114.973 86.3C114.921 86.5929 114.885 86.8891 114.867 87.1867C114.867 87.3867 114.917 88.1267 114.973 88.9C115.072 90.28 115.128 91.12 115.14 91.64C117.932 89.5567 120.354 86.9508 122.289 83.9467C122.791 83.14 123.275 82.3067 123.721 81.4667C125.761 77.7335 127.119 73.615 127.72 69.3334H127.596C126.821 69.4682 126.118 69.8992 125.616 70.5472C125.114 71.1952 124.846 72.0166 124.862 72.86C124.873 72.9484 124.852 73.0381 124.802 73.1094C124.752 73.1807 124.677 73.2277 124.595 73.24C124.513 73.2524 124.43 73.2292 124.363 73.1754C124.297 73.1216 124.253 73.0418 124.242 72.9534C124.233 72.9138 124.215 72.8774 124.189 72.8481C124.162 72.8188 124.129 72.7976 124.093 72.7867C123.92 72.7575 123.743 72.7679 123.575 72.8173C123.406 72.8667 123.249 72.954 123.113 73.0734C122.524 73.58 121.78 74.22 121.055 73.74C120.923 73.6504 120.804 73.5404 120.702 73.4134C120.628 73.3174 120.537 73.2381 120.435 73.18C120.404 73.1748 120.373 73.1748 120.342 73.18L120.348 73.2067Z" fill="#093269"/>
<path d="M124 81.6267C123.56 82.4533 123.076 83.2933 122.555 84.1267C119.623 88.8333 115.153 92.4533 111.129 94.6333C109.65 95.4567 108.096 96.1135 106.491 96.5933C105.673 95.36 105.443 93.6533 106.138 91.6667C107.235 88.5267 111.228 88.0334 113.931 88.0667C113.82 86.94 113.497 85.8067 113.776 84.6533C114.055 83.5 115.016 82.48 116.095 82.6533C116.393 82.6533 116.715 82.8 116.969 82.62C117.139 82.4383 117.253 82.206 117.298 81.9533C117.455 81.4825 117.712 81.057 118.048 80.7101C118.383 80.3632 118.788 80.1043 119.232 79.9533C120.091 79.682 121.006 79.6966 121.857 79.9953C122.708 80.294 123.455 80.8627 124 81.6267Z" fill="white"/>
<path d="M106.473 96.9267C106.423 96.9259 106.374 96.9129 106.33 96.8886C106.286 96.8643 106.248 96.8294 106.218 96.7867C105.751 96.0195 105.47 95.1381 105.401 94.2237C105.333 93.3092 105.48 92.391 105.828 91.5534C106.913 88.4467 110.558 87.7467 113.559 87.7334C113.559 87.5734 113.516 87.4134 113.491 87.2534C113.309 86.3763 113.299 85.4683 113.46 84.5867C113.758 83.34 114.836 82.1467 116.114 82.3067H116.312C116.463 82.3592 116.626 82.3592 116.777 82.3067C116.864 82.2467 116.907 82.0667 116.957 81.88V81.7934C117.127 81.2692 117.407 80.7943 117.776 80.4058C118.145 80.0172 118.592 79.7255 119.083 79.5534C120.011 79.2621 121 79.285 121.915 79.619C122.83 79.9529 123.627 80.5818 124.198 81.42C124.235 81.4744 124.254 81.5397 124.254 81.6067C124.254 81.6737 124.235 81.739 124.198 81.7934C123.746 82.6467 123.256 83.4934 122.748 84.3134C119.778 88.8304 115.808 92.4804 111.197 94.9333C109.701 95.7731 108.128 96.4434 106.504 96.9333L106.473 96.9267ZM113.652 88.4C110.831 88.4 107.384 89.0067 106.411 91.7867C106.118 92.4883 105.983 93.2542 106.018 94.0222C106.052 94.7902 106.255 95.5387 106.609 96.2067C108.107 95.7337 109.561 95.1086 110.949 94.34C115.466 91.9378 119.354 88.3635 122.264 83.94C122.729 83.2 123.169 82.4334 123.585 81.66C123.081 80.9908 122.407 80.4946 121.644 80.2328C120.882 79.971 120.065 79.9549 119.294 80.1867C118.895 80.3218 118.53 80.5546 118.229 80.867C117.928 81.1793 117.698 81.5626 117.558 81.9867V82.0667C117.508 82.3739 117.358 82.6522 117.137 82.8534C117 82.9379 116.849 82.9922 116.692 83.0128C116.536 83.0334 116.377 83.02 116.225 82.9734H116.052C115.115 82.8534 114.297 83.8067 114.068 84.7534C113.924 85.5521 113.939 86.3745 114.111 87.1667C114.154 87.46 114.198 87.7534 114.229 88.0534C114.232 88.1003 114.227 88.1476 114.213 88.1923C114.2 88.237 114.177 88.2782 114.148 88.3134C114.118 88.3472 114.081 88.374 114.04 88.3923C114 88.4107 113.956 88.4201 113.913 88.42L113.652 88.4Z" fill="#093269"/>
<path d="M110.844 94.12C110.907 94.3052 110.997 94.4785 111.11 94.6334C109.058 95.8378 106.818 96.6264 104.501 96.96C104.782 96.4434 104.947 95.8638 104.985 95.2667C104.985 93.9333 102.883 93.5867 102.666 91.16C102.597 90.4721 102.701 89.777 102.966 89.1465C103.231 88.516 103.647 87.9729 104.172 87.5734L104.526 87.5067L109.07 86.6067C109.695 86.7812 110.265 87.1322 110.72 87.6234C111.176 88.1146 111.501 88.7281 111.662 89.4C112.251 91.7467 110.391 92.8533 110.844 94.12Z" fill="white"/>
<path d="M104.501 97.2934C104.451 97.2941 104.401 97.281 104.356 97.2554C104.312 97.2297 104.274 97.1923 104.247 97.1467C104.22 97.096 104.205 97.0386 104.205 96.98C104.205 96.9215 104.22 96.8641 104.247 96.8134C104.505 96.3413 104.659 95.8125 104.699 95.2667C104.699 94.8467 104.402 94.5334 103.924 94.06C103.429 93.667 103.027 93.1522 102.754 92.5586C102.481 91.9649 102.344 91.3097 102.354 90.6475C102.365 89.9853 102.522 89.3353 102.814 88.7519C103.105 88.1684 103.522 87.6683 104.03 87.2934C104.065 87.2721 104.102 87.2564 104.141 87.2467L109.039 86.28H109.12C109.718 86.4391 110.272 86.7492 110.736 87.1844C111.2 87.6197 111.561 88.1676 111.789 88.7829C112.017 89.3981 112.105 90.0628 112.046 90.722C111.988 91.3812 111.784 92.0159 111.451 92.5734C111.154 93.2 110.98 93.6 111.123 94C111.175 94.1585 111.25 94.3071 111.346 94.44C111.372 94.4789 111.39 94.5235 111.399 94.5707C111.408 94.618 111.406 94.6667 111.395 94.7134C111.385 94.7603 111.365 94.8041 111.337 94.8421C111.309 94.88 111.274 94.9111 111.234 94.9334C109.147 96.1555 106.869 96.9554 104.513 97.2934H104.501ZM104.29 87.8934C103.826 88.2607 103.461 88.753 103.23 89.3206C102.999 89.8882 102.912 90.5111 102.976 91.1267C103.034 91.6106 103.182 92.0769 103.413 92.4974C103.643 92.9179 103.95 93.2839 104.315 93.5734C104.584 93.761 104.811 94.0099 104.98 94.3026C105.15 94.5952 105.257 94.9244 105.295 95.2667C105.282 95.7156 105.188 96.1574 105.016 96.5667C106.984 96.1845 108.887 95.4879 110.664 94.5C110.62 94.4143 110.583 94.3252 110.552 94.2334C110.304 93.5667 110.602 92.9 110.906 92.2734C111.153 91.8676 111.321 91.4117 111.399 90.9337C111.477 90.4556 111.463 89.9655 111.358 89.4934C111.219 88.8895 110.934 88.3362 110.531 87.8899C110.127 87.4437 109.621 87.1205 109.064 86.9534L104.29 87.8934Z" fill="#093269"/>
<path d="M108.598 83.8356L104.048 84.7291L104.521 87.5164L109.071 86.6228L108.598 83.8356Z" fill="white"/>
<path d="M104.526 87.84C104.462 87.8397 104.399 87.8188 104.346 87.78C104.313 87.755 104.285 87.7233 104.264 87.6867C104.243 87.6501 104.229 87.6093 104.222 87.5667L103.745 84.78C103.737 84.7367 103.738 84.6922 103.747 84.6493C103.756 84.6063 103.773 84.5657 103.797 84.5297C103.82 84.4938 103.85 84.4632 103.885 84.4398C103.92 84.4164 103.958 84.4006 103.999 84.3933L108.543 83.5C108.625 83.4837 108.71 83.5029 108.779 83.5533C108.812 83.578 108.84 83.6097 108.861 83.6464C108.883 83.683 108.897 83.724 108.903 83.7667L109.38 86.5533C109.395 86.6399 109.377 86.7292 109.33 86.8016C109.284 86.8741 109.213 86.9238 109.132 86.94L104.582 87.8333L104.526 87.84ZM104.414 84.9867L104.774 87.12L108.711 86.3467L108.351 84.2133L104.414 84.9867Z" fill="#093269"/>
<path d="M119.524 76.54C119.463 76.5387 119.404 76.5188 119.354 76.4826C119.304 76.4464 119.264 76.3955 119.24 76.3358C119.216 76.2761 119.208 76.2103 119.218 76.146C119.227 76.0818 119.254 76.0219 119.294 75.9734C119.864 75.2331 120.633 74.7001 121.495 74.4471C122.357 74.1941 123.271 74.2336 124.112 74.56C124.187 74.5963 124.246 74.6634 124.276 74.7465C124.306 74.8296 124.303 74.922 124.27 75.0034C124.236 75.0847 124.174 75.1483 124.096 75.1802C124.019 75.2121 123.933 75.2096 123.857 75.1734C123.771 75.1267 121.7 74.18 119.753 76.4334C119.692 76.4994 119.61 76.5376 119.524 76.54Z" fill="#D5E6FB"/>
<path d="M116.052 89.7067C115.975 89.7073 115.902 89.6777 115.845 89.6236C115.787 89.5695 115.751 89.4947 115.742 89.4134C115.513 87.9725 115.639 86.4923 116.107 85.1201C116.358 84.4066 116.78 83.7779 117.332 83.2986C117.883 82.8193 118.543 82.5068 119.245 82.3934C119.285 82.3878 119.326 82.3913 119.366 82.4036C119.405 82.4159 119.441 82.4368 119.473 82.465C119.504 82.4931 119.53 82.5279 119.548 82.5672C119.567 82.6065 119.577 82.6495 119.579 82.6934C119.584 82.7368 119.58 82.7808 119.568 82.8226C119.556 82.8644 119.537 82.9032 119.511 82.9368C119.485 82.9704 119.453 82.998 119.417 83.018C119.38 83.038 119.341 83.0501 119.3 83.0534C118.712 83.1559 118.16 83.4248 117.7 83.8325C117.24 84.2401 116.89 84.772 116.684 85.3734C116.253 86.6396 116.14 88.0053 116.355 89.3334C116.366 89.4209 116.344 89.5093 116.294 89.5793C116.244 89.6493 116.17 89.6951 116.089 89.7067H116.052Z" fill="#D5E6FB"/>
<path d="M110.155 83.0133C110.115 83.0116 110.075 83.0013 110.038 82.9829C110.001 82.9646 109.967 82.9386 109.94 82.9064C109.912 82.8742 109.891 82.8364 109.877 82.7953C109.863 82.7542 109.856 82.7105 109.858 82.6667C109.906 81.9476 110.169 81.2646 110.608 80.72C111.026 80.208 111.515 79.7694 112.059 79.42C112.128 79.3777 112.209 79.3655 112.286 79.3858C112.363 79.4062 112.43 79.4575 112.473 79.5293C112.516 79.6011 112.532 79.6879 112.517 79.7717C112.502 79.8556 112.458 79.9301 112.394 79.98C111.903 80.2924 111.462 80.6861 111.085 81.1467C110.728 81.5785 110.51 82.1236 110.465 82.7C110.459 82.7844 110.424 82.8632 110.367 82.9211C110.309 82.9791 110.234 83.0119 110.155 83.0133Z" fill="#D5E6FB"/>
<path d="M115.94 122.707C115.89 122.708 115.841 122.695 115.797 122.671C115.752 122.646 115.714 122.611 115.686 122.567C115.639 122.494 115.621 122.404 115.635 122.317C115.649 122.23 115.694 122.152 115.76 122.1C126.083 114.28 130.126 84.84 130.163 84.5467C130.174 84.4583 130.218 84.3784 130.284 84.3247C130.351 84.2709 130.434 84.2477 130.516 84.26C130.598 84.2724 130.673 84.3194 130.723 84.3907C130.773 84.4619 130.794 84.5516 130.783 84.64C129.995 90.0241 128.887 95.3484 127.466 100.58C124.366 111.86 120.559 119.287 116.126 122.647C116.071 122.687 116.006 122.708 115.94 122.707Z" fill="#D5E6FB"/>
<path d="M111.216 137.873C109.054 137.863 106.927 137.291 105.016 136.207C104.945 136.161 104.894 136.086 104.874 136C104.855 135.914 104.867 135.823 104.91 135.747C104.953 135.671 105.022 135.616 105.102 135.595C105.182 135.574 105.267 135.587 105.338 135.633C105.716 135.873 114.688 141.427 121.458 130.56C121.503 130.487 121.574 130.436 121.654 130.419C121.734 130.401 121.817 130.418 121.886 130.467C121.954 130.517 122.002 130.594 122.018 130.681C122.034 130.768 122.018 130.859 121.973 130.933C118.563 136.44 114.502 137.873 111.216 137.873Z" fill="#D5E6FB"/>
</svg>
