<svg width="300" height="225" viewBox="0 0 300 225" fill="none" xmlns="http://www.w3.org/2000/svg">
<path d="M163.402 167.551C163.115 167.29 162.887 166.971 162.732 166.615C162.578 166.258 162.502 165.873 162.508 165.485C162.55 165.213 162.508 164.933 162.389 164.684C162.145 164.346 161.632 164.415 161.232 164.515C160.768 164.602 160.329 164.788 159.944 165.06C159.756 165.201 159.619 165.399 159.553 165.625C159.488 165.851 159.497 166.092 159.581 166.311C159.733 166.557 159.949 166.756 160.206 166.887C160.933 167.304 161.6 167.818 162.189 168.414C162.484 168.714 162.713 169.072 162.862 169.465C163.012 169.858 163.079 170.278 163.058 170.698C162.933 171.831 161.976 172.982 162.539 173.971C163.165 175.104 164.884 174.741 165.61 175.767C165.96 176.268 165.754 177.144 166.273 177.532C166.515 177.657 166.789 177.708 167.059 177.676C167.33 177.645 167.585 177.534 167.792 177.357C168.374 176.662 167.517 175.26 167.38 174.516C167.117 173.051 168.224 171.793 167.699 170.379C166.979 168.502 164.716 168.696 163.402 167.551Z" fill="white"/>
<path d="M166.842 177.995C166.566 178.005 166.293 177.931 166.06 177.782C165.898 177.633 165.767 177.454 165.675 177.254C165.582 177.054 165.531 176.838 165.522 176.618C165.505 176.384 165.439 176.156 165.328 175.949C164.974 175.567 164.504 175.314 163.99 175.229C163.639 175.172 163.304 175.045 163.003 174.856C162.702 174.667 162.442 174.419 162.239 174.128C161.807 173.37 162.101 172.582 162.389 171.818C162.547 171.448 162.659 171.059 162.72 170.661C162.736 170.286 162.674 169.912 162.538 169.562C162.403 169.212 162.197 168.893 161.933 168.627C161.372 168.069 160.742 167.587 160.056 167.194L159.981 167.15C159.682 166.986 159.434 166.744 159.262 166.449C159.148 166.166 159.13 165.853 159.21 165.558C159.29 165.263 159.464 165.002 159.706 164.816C160.125 164.504 160.608 164.29 161.119 164.19C161.388 164.121 162.195 163.915 162.602 164.478C162.761 164.738 162.825 165.046 162.783 165.348V165.46C162.779 165.801 162.848 166.138 162.985 166.45C163.122 166.762 163.324 167.041 163.577 167.269C164.098 167.67 164.687 167.973 165.316 168.164C166.373 168.558 167.467 168.971 167.936 170.241C168.169 171.031 168.136 171.875 167.842 172.644C167.64 173.218 167.567 173.829 167.63 174.434C167.691 174.682 167.77 174.925 167.868 175.16C168.149 175.936 168.493 176.9 167.974 177.532C167.825 177.68 167.649 177.798 167.454 177.877C167.26 177.957 167.052 177.997 166.842 177.995ZM161.789 164.747C161.625 164.75 161.463 164.775 161.307 164.822C160.887 164.893 160.488 165.055 160.138 165.298C160.005 165.396 159.905 165.533 159.854 165.69C159.802 165.847 159.801 166.016 159.85 166.174C159.978 166.362 160.15 166.516 160.35 166.624L160.425 166.668C161.15 167.09 161.815 167.608 162.402 168.208C162.723 168.537 162.973 168.929 163.134 169.36C163.296 169.791 163.366 170.251 163.34 170.711C163.276 171.161 163.154 171.6 162.977 172.019C162.72 172.707 162.495 173.27 162.783 173.802C162.95 174.022 163.158 174.206 163.397 174.345C163.635 174.483 163.898 174.573 164.171 174.609C164.821 174.728 165.41 175.066 165.841 175.567C166.012 175.85 166.115 176.169 166.141 176.499C166.198 176.831 166.241 177.125 166.435 177.257C166.612 177.335 166.806 177.366 166.999 177.345C167.191 177.324 167.374 177.252 167.53 177.138C167.824 176.781 167.53 176.011 167.311 175.385C167.2 175.116 167.112 174.837 167.048 174.553C166.961 173.857 167.036 173.15 167.267 172.488C167.52 171.844 167.562 171.136 167.386 170.467C167.011 169.465 166.098 169.121 165.128 168.758C164.428 168.541 163.773 168.197 163.196 167.745C162.875 167.457 162.62 167.105 162.446 166.711C162.273 166.317 162.185 165.891 162.189 165.46V165.335C162.215 165.17 162.193 165 162.126 164.847C162.081 164.806 162.028 164.775 161.969 164.758C161.911 164.741 161.849 164.737 161.789 164.747Z" fill="#D5E6FB"/>
<path d="M156.066 172.876C156.379 172.325 156.521 171.693 156.473 171.061C156.26 169.766 154.74 169.184 153.446 168.971C152.927 168.883 152.408 168.815 151.889 168.758C151.636 168.748 151.389 168.684 151.163 168.571C150.975 168.441 150.823 168.264 150.725 168.057C150.188 167.112 150.1 165.992 149.75 164.96C149.4 163.927 148.612 162.901 147.53 162.87C147.002 162.884 146.491 163.054 146.06 163.358C145.478 163.727 144.903 164.365 145.103 165.029C145.303 165.692 146.029 165.886 146.642 166.124C147.648 166.512 148.649 167.375 148.518 168.445C148.449 169.171 147.892 169.835 148.042 170.548C148.193 171.261 149.187 171.637 149.987 171.8C150.788 171.962 151.751 172.225 151.964 173.014C151.998 173.29 151.998 173.57 151.964 173.846C151.948 174.445 152.1 175.037 152.403 175.555C152.706 176.072 153.147 176.495 153.677 176.775C154.472 177.15 156.235 177.169 156.235 176.149C156.235 175.824 155.541 175.26 155.472 174.803C155.488 174.118 155.693 173.451 156.066 172.876Z" fill="white"/>
<path d="M154.934 177.307C154.477 177.308 154.023 177.217 153.602 177.038C153.019 176.734 152.533 176.271 152.202 175.703C151.87 175.135 151.705 174.485 151.726 173.827V173.627C151.742 173.443 151.731 173.257 151.695 173.076C151.532 172.45 150.632 172.213 149.969 172.094C149.493 172.006 148.03 171.737 147.774 170.617C147.702 170.13 147.786 169.633 148.011 169.196C148.126 168.948 148.204 168.685 148.243 168.414C148.33 167.519 147.455 166.768 146.542 166.418L146.391 166.355C145.766 166.124 145.028 165.842 144.815 165.104C144.565 164.278 145.216 163.514 145.91 163.082C146.39 162.743 146.961 162.555 147.548 162.544C148.837 162.582 149.706 163.796 150.05 164.847C150.181 165.241 150.275 165.648 150.369 166.042C150.491 166.694 150.701 167.325 150.994 167.92C151.07 168.077 151.184 168.212 151.326 168.314C151.507 168.402 151.706 168.451 151.907 168.458C152.445 168.514 152.977 168.589 153.496 168.677C155.422 169.009 156.585 169.835 156.779 171.017C156.843 171.713 156.693 172.412 156.348 173.02L156.254 173.183C155.975 173.65 155.828 174.184 155.829 174.728C155.907 174.959 156.03 175.172 156.191 175.354C156.403 175.569 156.543 175.845 156.592 176.143C156.595 176.323 156.551 176.501 156.463 176.658C156.375 176.815 156.247 176.946 156.091 177.038C155.738 177.233 155.337 177.326 154.934 177.307ZM147.498 163.17C147.049 163.196 146.616 163.348 146.248 163.608C145.772 163.908 145.272 164.434 145.422 164.922C145.572 165.41 146.091 165.548 146.617 165.761L146.773 165.817C147.905 166.255 148.993 167.244 148.874 168.464C148.828 168.793 148.736 169.113 148.599 169.415C148.429 169.736 148.355 170.099 148.386 170.46C148.499 170.949 149.056 171.274 150.088 171.462C150.619 171.562 152.02 171.812 152.308 172.901C152.361 173.143 152.378 173.392 152.358 173.639V173.808C152.343 174.348 152.48 174.881 152.752 175.348C153.023 175.814 153.42 176.196 153.896 176.449C154.498 176.693 155.171 176.693 155.772 176.449C155.837 176.413 155.891 176.359 155.927 176.294C155.964 176.229 155.982 176.155 155.979 176.08C155.903 175.935 155.81 175.798 155.704 175.673C155.472 175.419 155.307 175.112 155.222 174.778C155.201 174.12 155.368 173.468 155.704 172.901L155.785 172.726C156.065 172.229 156.197 171.662 156.166 171.093C155.966 169.878 154.34 169.422 153.39 169.259C152.883 169.178 152.364 169.103 151.851 169.046C151.555 169.034 151.264 168.957 151.001 168.821C150.768 168.661 150.579 168.446 150.45 168.195C150.129 167.559 149.897 166.88 149.762 166.18C149.68 165.797 149.578 165.419 149.456 165.047C149.168 164.196 148.486 163.17 147.517 163.17H147.498Z" fill="#D5E6FB"/>
<path d="M159.531 207.902L158.211 175.786H150.913L149.587 207.902H159.531Z" fill="#D1D1D1"/>
<path d="M159.531 208.227H149.587C149.503 208.227 149.422 208.193 149.362 208.133C149.331 208.103 149.308 208.067 149.293 208.027C149.278 207.987 149.271 207.944 149.274 207.902L150.625 175.773C150.629 175.693 150.663 175.616 150.721 175.56C150.78 175.504 150.857 175.473 150.938 175.473H158.236C158.317 175.473 158.395 175.504 158.453 175.56C158.511 175.616 158.546 175.693 158.549 175.773L159.869 207.889C159.872 207.932 159.866 207.975 159.85 208.015C159.835 208.055 159.812 208.091 159.781 208.121C159.75 208.156 159.711 208.183 159.668 208.202C159.625 208.22 159.578 208.229 159.531 208.227ZM149.912 207.601H159.206L157.911 176.111H151.207L149.912 207.601Z" fill="#093269"/>
<path d="M157.892 179.259H150.782C150.699 179.259 150.619 179.226 150.561 179.167C150.502 179.109 150.469 179.029 150.469 178.946C150.469 178.863 150.502 178.784 150.561 178.725C150.619 178.666 150.699 178.633 150.782 178.633H157.892C157.975 178.633 158.055 178.666 158.114 178.725C158.172 178.784 158.205 178.863 158.205 178.946C158.205 179.029 158.172 179.109 158.114 179.167C158.055 179.226 157.975 179.259 157.892 179.259Z" fill="#093269"/>
<path d="M171.157 207.902L169.831 175.786H162.533L161.207 207.902H171.157Z" fill="#D1D1D1"/>
<path d="M171.157 208.227H161.207C161.165 208.227 161.123 208.219 161.084 208.202C161.046 208.186 161.011 208.161 160.981 208.131C160.952 208.101 160.929 208.065 160.914 208.025C160.9 207.986 160.893 207.944 160.894 207.902L162.22 175.786C162.223 175.705 162.258 175.629 162.316 175.573C162.374 175.517 162.452 175.486 162.533 175.486H169.831C169.912 175.486 169.99 175.517 170.048 175.573C170.106 175.629 170.141 175.705 170.144 175.786L171.47 207.902C171.471 207.944 171.465 207.986 171.45 208.025C171.435 208.065 171.412 208.101 171.383 208.131C171.354 208.161 171.319 208.186 171.28 208.202C171.241 208.219 171.199 208.227 171.157 208.227ZM161.532 207.601H170.826L169.531 176.111H162.833L161.532 207.601Z" fill="#093269"/>
<path d="M169.512 179.259H162.402C162.319 179.259 162.239 179.226 162.18 179.167C162.122 179.109 162.089 179.029 162.089 178.946C162.089 178.863 162.122 178.784 162.18 178.725C162.239 178.666 162.319 178.633 162.402 178.633H169.512C169.595 178.633 169.675 178.666 169.733 178.725C169.792 178.784 169.825 178.863 169.825 178.946C169.825 179.029 169.792 179.109 169.733 179.167C169.675 179.226 169.595 179.259 169.512 179.259Z" fill="#093269"/>
<path d="M145.635 197.707V191.099L124.759 198.853V211.187H142.564H145.635H163.446V191.099L145.635 197.707Z" fill="#D1D1D1"/>
<path d="M163.446 211.5H124.759C124.676 211.5 124.596 211.467 124.538 211.408C124.479 211.35 124.446 211.27 124.446 211.187V198.84C124.446 198.776 124.466 198.713 124.503 198.661C124.54 198.608 124.592 198.568 124.653 198.546L145.528 190.792C145.576 190.774 145.627 190.768 145.677 190.774C145.727 190.781 145.775 190.8 145.816 190.83C145.856 190.86 145.889 190.898 145.912 190.943C145.935 190.987 145.947 191.037 145.947 191.087V197.251L163.333 190.792C163.38 190.773 163.432 190.767 163.482 190.773C163.533 190.78 163.58 190.799 163.621 190.83C163.663 190.858 163.698 190.896 163.722 190.941C163.746 190.986 163.759 191.036 163.759 191.087V211.175C163.759 211.216 163.752 211.258 163.737 211.297C163.722 211.336 163.699 211.372 163.67 211.402C163.641 211.432 163.606 211.457 163.568 211.473C163.529 211.49 163.488 211.499 163.446 211.5ZM125.072 210.874H163.133V191.55L145.747 198.002C145.7 198.02 145.65 198.027 145.6 198.021C145.549 198.016 145.501 197.998 145.46 197.97C145.417 197.941 145.382 197.902 145.358 197.856C145.334 197.81 145.322 197.759 145.322 197.708V191.55L125.072 199.059V210.874Z" fill="#093269"/>
<path d="M139.5 203.903H132.22V211.187H139.5V203.903Z" fill="white"/>
<path d="M139.5 211.5H132.22C132.137 211.5 132.057 211.467 131.999 211.408C131.94 211.35 131.907 211.27 131.907 211.187V203.903C131.907 203.82 131.94 203.74 131.999 203.682C132.057 203.623 132.137 203.59 132.22 203.59H139.5C139.582 203.59 139.662 203.623 139.721 203.682C139.779 203.74 139.812 203.82 139.812 203.903V211.187C139.811 211.27 139.777 211.348 139.719 211.407C139.661 211.465 139.582 211.498 139.5 211.5ZM132.533 210.874H139.187V204.216H132.533V210.874Z" fill="#093269"/>
<path d="M156.404 203.903H149.124V211.187H156.404V203.903Z" fill="white"/>
<path d="M156.398 211.5H149.124C149.041 211.5 148.962 211.467 148.903 211.408C148.845 211.35 148.812 211.27 148.812 211.187V203.903C148.812 203.82 148.845 203.74 148.903 203.682C148.962 203.623 149.041 203.59 149.124 203.59H156.398C156.481 203.59 156.56 203.623 156.619 203.682C156.678 203.74 156.71 203.82 156.71 203.903V211.187C156.71 211.228 156.702 211.269 156.687 211.307C156.671 211.345 156.648 211.379 156.619 211.408C156.59 211.437 156.555 211.46 156.517 211.476C156.48 211.492 156.439 211.5 156.398 211.5ZM149.437 210.874H156.085V204.216H149.437V210.874Z" fill="#093269"/>
<path d="M175.316 191.099H163.446V211.187H175.316V191.099Z" fill="#093269"/>
<path d="M175.316 211.5H163.433C163.35 211.5 163.271 211.467 163.212 211.408C163.154 211.35 163.121 211.27 163.121 211.187V191.099C163.121 191.016 163.154 190.937 163.212 190.878C163.271 190.819 163.35 190.786 163.433 190.786H175.316C175.399 190.786 175.478 190.819 175.537 190.878C175.596 190.937 175.629 191.016 175.629 191.099V211.187C175.627 211.27 175.594 211.348 175.535 211.407C175.477 211.465 175.398 211.498 175.316 211.5ZM163.759 210.874H175.016V191.412H163.759V210.874Z" fill="#093269"/>
<path d="M105.547 168.802C105.547 168.802 112.539 177.15 117.767 178.959L115.503 182.132C115.503 182.132 106.597 179.979 100.056 174.234L96.4785 177.632V165.116L109.068 165.592L105.547 168.802Z" fill="#53B953"/>
<path d="M107.223 96.6544C107.223 96.6544 99.349 104.164 97.8794 109.508L94.571 107.474C94.571 107.474 96.147 98.4442 101.45 91.5417L97.8356 88.1874L110.344 87.3802L110.675 99.9836L107.223 96.6544Z" fill="#53B953"/>
<path d="M189.162 100.685C189.162 100.685 182.17 92.3364 176.942 90.5279L179.206 87.3551C179.206 87.3551 188.112 89.5141 194.653 95.2526L198.231 91.8608V104.377L185.648 103.914L189.162 100.685Z" fill="#53B953"/>
<path d="M187.486 172.838C187.486 172.838 195.36 165.329 196.83 159.985L200.138 162.037C200.138 162.037 198.562 171.074 193.259 177.97L196.905 181.318L184.397 182.119L184.065 169.522L187.486 172.838Z" fill="#53B953"/>
<path d="M57.3349 140.598V126.286H106.722V140.598L86.3408 155.698L57.3349 140.598Z" fill="white"/>
<path d="M86.3408 156.011C86.2904 156.011 86.2408 155.998 86.197 155.973L57.1911 140.879C57.1405 140.852 57.0982 140.811 57.0685 140.761C57.0388 140.712 57.0229 140.655 57.0222 140.598V126.286C57.0222 126.203 57.0551 126.123 57.1138 126.064C57.1724 126.006 57.252 125.973 57.3349 125.973H106.741C106.824 125.973 106.904 126.006 106.962 126.064C107.021 126.123 107.054 126.203 107.054 126.286V140.598C107.053 140.646 107.042 140.694 107.02 140.737C106.999 140.781 106.967 140.818 106.929 140.848L86.5284 155.948C86.475 155.99 86.4087 156.012 86.3408 156.011ZM57.6476 140.41L86.3095 155.329L106.41 140.441V126.599H57.6288L57.6476 140.41Z" fill="#093269"/>
<path d="M106.722 126.286L86.3408 141.386C86.3408 141.386 82.5009 139.34 77.5852 136.755C69.0236 132.225 57.2473 126.035 57.3099 126.286C57.4099 126.68 82.0068 115.021 82.0068 115.021L106.722 126.286Z" fill="white"/>
<path d="M86.3408 141.699C86.2904 141.699 86.2408 141.686 86.1969 141.661L77.4414 137.031C60.318 127.969 57.6226 126.699 57.2849 126.592C57.2691 126.599 57.252 126.603 57.2348 126.603C57.2176 126.603 57.2006 126.599 57.1848 126.592C57.1421 126.572 57.1043 126.542 57.0741 126.505C57.0439 126.468 57.0219 126.426 57.0097 126.38C56.9946 126.32 56.9972 126.258 57.0172 126.2C57.0372 126.142 57.0737 126.091 57.1222 126.054C57.1479 126.03 57.1796 126.014 57.2138 126.008C57.2481 126.001 57.2835 126.004 57.3161 126.017C58.1979 125.885 72.482 119.214 81.8692 114.752C81.9105 114.734 81.9552 114.724 82.0005 114.724C82.0458 114.724 82.0906 114.734 82.1319 114.752L106.829 126.017C106.878 126.041 106.921 126.077 106.952 126.122C106.984 126.166 107.004 126.219 107.01 126.273C107.014 126.327 107.004 126.38 106.982 126.429C106.96 126.478 106.927 126.521 106.885 126.555L86.5284 141.636C86.4735 141.676 86.4082 141.697 86.3408 141.699ZM58.1979 126.317C59.8802 127.074 64.5144 129.446 77.7791 136.48C82.0568 138.739 85.5278 140.591 86.3345 141.017L106.128 126.348L82.0506 115.353C65.4275 123.232 60.0053 125.622 58.1792 126.317H58.1979Z" fill="#093269"/>
<path d="M106.722 126.286L91.6442 137.456L77.6103 136.755C77.6103 136.755 57.2724 126.035 57.3349 126.286C57.435 126.68 82.0318 115.021 82.0318 115.021L106.722 126.286Z" fill="#D1D1D1"/>
<path d="M91.6442 137.769L77.6165 137.068C77.5711 137.062 77.5268 137.05 77.4852 137.031C69.7553 132.969 58.0666 126.874 57.2974 126.592C57.269 126.602 57.2382 126.602 57.2098 126.592C57.1671 126.572 57.1293 126.542 57.0991 126.505C57.0689 126.468 57.0469 126.426 57.0347 126.38C57.0196 126.32 57.0222 126.258 57.0422 126.2C57.0622 126.142 57.0988 126.091 57.1473 126.054C57.1473 126.054 57.2161 125.998 57.3411 126.054C58.223 125.923 72.507 119.252 81.8942 114.79C81.9355 114.771 81.9803 114.762 82.0256 114.762C82.0708 114.762 82.1156 114.771 82.1569 114.79L106.854 126.054C106.903 126.078 106.946 126.114 106.977 126.159C107.009 126.204 107.029 126.256 107.035 126.311C107.039 126.364 107.029 126.418 107.007 126.467C106.986 126.516 106.952 126.559 106.91 126.592L91.838 137.706C91.7824 137.749 91.714 137.771 91.6442 137.769ZM77.6978 136.442L91.5441 137.137L106.11 126.348L82.0318 115.353C65.3462 123.269 59.9428 125.622 58.1542 126.33C59.824 127.087 64.4331 129.452 77.6978 136.442Z" fill="#093269"/>
<path d="M77.1975 136.536C77.1975 136.536 87.9105 138.889 91.863 137.293C91.863 137.293 87.8417 134.164 86.9287 131.774C86.9287 131.774 82.1006 136.524 77.1975 136.536Z" fill="#093269"/>
<path d="M87.823 138.138C84.2258 138.021 80.6466 137.579 77.1287 136.818C77.0538 136.799 76.9881 136.754 76.9434 136.691C76.8988 136.628 76.878 136.551 76.8848 136.474C76.8953 136.398 76.9326 136.328 76.99 136.278C77.0474 136.227 77.121 136.199 77.1975 136.198C81.913 136.198 86.6598 131.574 86.7098 131.53C86.7471 131.493 86.7928 131.466 86.8429 131.451C86.893 131.436 86.946 131.433 86.9975 131.442C87.0484 131.455 87.0954 131.48 87.1346 131.515C87.1738 131.55 87.204 131.593 87.2226 131.643C88.0919 133.945 92.0131 136.987 92.0507 137.018C92.0959 137.051 92.1311 137.096 92.1521 137.148C92.1731 137.2 92.1791 137.257 92.1695 137.312C92.1638 137.366 92.1433 137.418 92.1102 137.461C92.077 137.504 92.0326 137.537 91.9819 137.556C90.6419 137.999 89.233 138.197 87.823 138.138ZM79.2113 136.58C82.2757 137.137 88.192 138.007 91.2189 137.156C90.2058 136.317 87.7667 134.19 86.8411 132.281C85.8217 133.207 82.726 135.804 79.2113 136.605V136.58Z" fill="#093269"/>
<path d="M86.3408 156.011C86.2578 156.011 86.1783 155.978 86.1197 155.919C86.061 155.861 86.0281 155.781 86.0281 155.698V141.386C86.0281 141.303 86.061 141.224 86.1197 141.165C86.1783 141.106 86.2578 141.073 86.3408 141.073C86.4237 141.073 86.5032 141.106 86.5619 141.165C86.6205 141.224 86.6535 141.303 86.6535 141.386V155.698C86.6535 155.781 86.6205 155.861 86.5619 155.919C86.5032 155.978 86.4237 156.011 86.3408 156.011Z" fill="#093269"/>
<path d="M87.6479 143.145C87.5994 143.144 87.5517 143.133 87.5083 143.111C87.465 143.089 87.4272 143.058 87.3977 143.019C87.3479 142.953 87.3266 142.87 87.3383 142.787C87.35 142.705 87.3939 142.631 87.4602 142.581L105.816 128.92C105.883 128.871 105.967 128.849 106.05 128.862C106.132 128.874 106.207 128.919 106.257 128.986C106.306 129.053 106.327 129.138 106.315 129.22C106.303 129.303 106.258 129.377 106.191 129.427L87.8355 143.076C87.7811 143.117 87.7158 143.141 87.6479 143.145Z" fill="#D5E6FB"/>
<path d="M87.3539 145.779C87.3052 145.78 87.257 145.769 87.2134 145.748C87.1698 145.726 87.1322 145.694 87.1038 145.654C87.054 145.588 87.0326 145.504 87.0444 145.422C87.0561 145.34 87.0999 145.266 87.1663 145.216L105.49 131.524C105.523 131.499 105.561 131.481 105.6 131.471C105.64 131.461 105.682 131.458 105.722 131.464C105.763 131.47 105.802 131.484 105.837 131.505C105.873 131.526 105.904 131.553 105.928 131.586C105.953 131.619 105.971 131.656 105.981 131.696C105.991 131.736 105.993 131.778 105.988 131.818C105.982 131.859 105.968 131.898 105.947 131.933C105.926 131.969 105.899 132 105.866 132.024L87.5415 145.717C87.4876 145.758 87.4216 145.78 87.3539 145.779Z" fill="#D5E6FB"/>
<path d="M87.4602 148.151C87.4103 148.15 87.3612 148.138 87.3167 148.115C87.2722 148.092 87.2336 148.06 87.2038 148.02C87.1798 147.986 87.1627 147.948 87.1535 147.908C87.1443 147.867 87.1431 147.826 87.1501 147.785C87.1571 147.744 87.1721 147.705 87.1942 147.67C87.2163 147.635 87.2451 147.605 87.2789 147.581L105.503 134.54C105.57 134.493 105.652 134.474 105.733 134.486C105.813 134.499 105.886 134.543 105.934 134.609C105.982 134.676 106.001 134.76 105.989 134.842C105.976 134.923 105.932 134.997 105.866 135.047L87.6416 148.088C87.5901 148.129 87.5261 148.151 87.4602 148.151Z" fill="#D5E6FB"/>
<path d="M87.9543 150.617C87.8892 150.615 87.8261 150.594 87.7739 150.555C87.7217 150.516 87.6828 150.462 87.6629 150.4C87.6429 150.338 87.6428 150.271 87.6625 150.209C87.6822 150.147 87.7209 150.092 87.773 150.053L105.49 136.912C105.523 136.882 105.561 136.859 105.603 136.845C105.644 136.831 105.688 136.826 105.732 136.83C105.776 136.834 105.818 136.848 105.856 136.869C105.895 136.891 105.928 136.921 105.954 136.956C105.98 136.991 105.998 137.032 106.008 137.075C106.017 137.118 106.017 137.162 106.009 137.205C106 137.248 105.982 137.289 105.956 137.325C105.93 137.36 105.897 137.39 105.859 137.412L88.1419 150.554C88.0872 150.593 88.0218 150.615 87.9543 150.617Z" fill="#D5E6FB"/>
<path d="M87.6479 152.938C87.5822 152.938 87.5183 152.918 87.465 152.879C87.4118 152.841 87.372 152.787 87.3512 152.724C87.3305 152.662 87.3298 152.595 87.3494 152.532C87.369 152.469 87.4077 152.414 87.4603 152.375L105.49 139.071C105.558 139.023 105.642 139.004 105.723 139.017C105.805 139.029 105.878 139.074 105.928 139.14C105.953 139.173 105.97 139.21 105.98 139.251C105.989 139.291 105.991 139.332 105.985 139.373C105.978 139.414 105.964 139.453 105.943 139.488C105.921 139.523 105.893 139.553 105.859 139.578L87.8355 152.876C87.7816 152.917 87.7156 152.939 87.6479 152.938Z" fill="#D5E6FB"/>
<path d="M85.0337 143.145C84.9865 143.157 84.937 143.157 84.8899 143.145L57.9103 128.995C57.8377 128.957 57.7832 128.891 57.7587 128.813C57.7341 128.734 57.7414 128.649 57.7789 128.576C57.7974 128.54 57.823 128.507 57.8542 128.481C57.8855 128.454 57.9217 128.434 57.9607 128.422C57.9998 128.41 58.0409 128.405 58.0816 128.409C58.1224 128.413 58.1619 128.425 58.1979 128.445L85.1776 142.519C85.2143 142.538 85.2469 142.564 85.2734 142.596C85.2999 142.628 85.3199 142.665 85.3321 142.704C85.3443 142.744 85.3486 142.785 85.3446 142.827C85.3406 142.868 85.3285 142.908 85.3089 142.944C85.2879 143.001 85.2506 143.051 85.2016 143.086C85.1527 143.122 85.0942 143.142 85.0337 143.145Z" fill="#D5E6FB"/>
<path d="M84.5334 145.16C84.4811 145.159 84.4297 145.146 84.3833 145.122C58.0666 131.38 58.0666 131.179 58.0666 130.923C58.0666 130.84 58.0995 130.76 58.1582 130.702C58.2168 130.643 58.2964 130.61 58.3793 130.61C58.4239 130.61 58.4679 130.62 58.508 130.64C58.548 130.659 58.5832 130.687 58.6107 130.723C59.43 131.348 74.5958 139.308 84.671 144.565C84.744 144.605 84.7985 144.672 84.8231 144.751C84.8476 144.831 84.8402 144.917 84.8023 144.991C84.7766 145.04 84.7382 145.082 84.6909 145.112C84.6436 145.142 84.5892 145.158 84.5334 145.16Z" fill="#D5E6FB"/>
<path d="M84.2519 147.713C84.1997 147.712 84.1482 147.7 84.1019 147.675L57.9102 133.814C57.8711 133.796 57.836 133.771 57.8072 133.739C57.7783 133.708 57.7562 133.67 57.7424 133.63C57.7285 133.589 57.7232 133.546 57.7266 133.503C57.7301 133.461 57.7423 133.419 57.7625 133.381C57.7827 133.343 57.8104 133.31 57.844 133.283C57.8776 133.257 57.9163 133.237 57.9577 133.226C57.9992 133.215 58.0424 133.213 58.0848 133.219C58.1272 133.226 58.1678 133.241 58.2042 133.263L84.3958 147.118C84.4787 147.137 84.5507 147.189 84.5958 147.261C84.641 147.333 84.6556 147.42 84.6366 147.503C84.6175 147.586 84.5663 147.658 84.4941 147.703C84.422 147.749 84.3349 147.763 84.2519 147.744V147.713Z" fill="#D5E6FB"/>
<path d="M84.5334 150.26C84.483 150.26 84.4334 150.247 84.3896 150.222L58.2417 136.762C58.202 136.745 58.1662 136.72 58.1364 136.689C58.1066 136.658 58.0835 136.621 58.0686 136.581C58.0537 136.541 58.0473 136.498 58.0497 136.455C58.0522 136.412 58.0635 136.37 58.0829 136.331C58.1023 136.293 58.1294 136.259 58.1625 136.232C58.1956 136.204 58.234 136.184 58.2754 136.172C58.3167 136.16 58.36 136.157 58.4026 136.162C58.4453 136.168 58.4863 136.182 58.5231 136.205L84.671 149.665C84.7121 149.674 84.7509 149.691 84.7854 149.716C84.8199 149.74 84.8493 149.77 84.872 149.806C84.8946 149.841 84.9101 149.881 84.9174 149.922C84.9248 149.964 84.9239 150.006 84.9149 150.047C84.9059 150.088 84.8888 150.127 84.8648 150.162C84.8407 150.196 84.8101 150.226 84.7747 150.248C84.7392 150.271 84.6997 150.286 84.6583 150.294C84.6169 150.301 84.5745 150.3 84.5334 150.291V150.26Z" fill="#D5E6FB"/>
<path d="M84.5334 152.938C84.4838 152.938 84.4349 152.927 84.3895 152.907L58.2417 139.39C58.2052 139.371 58.1727 139.345 58.1461 139.314C58.1196 139.282 58.0995 139.246 58.087 139.206C58.0746 139.167 58.0699 139.126 58.0734 139.085C58.0768 139.044 58.0883 139.004 58.1072 138.967C58.1261 138.931 58.152 138.898 58.1835 138.872C58.2149 138.845 58.2513 138.825 58.2905 138.813C58.3297 138.8 58.3709 138.796 58.4119 138.799C58.4529 138.802 58.4928 138.814 58.5294 138.833L84.671 152.381C84.708 152.399 84.7411 152.424 84.7682 152.455C84.7953 152.486 84.8159 152.523 84.8287 152.562C84.8416 152.601 84.8464 152.642 84.843 152.683C84.8395 152.724 84.8278 152.764 84.8086 152.801C84.7785 152.845 84.7373 152.881 84.6891 152.906C84.6409 152.93 84.5872 152.941 84.5334 152.938Z" fill="#D5E6FB"/>
<path d="M127.06 63.0431L123.771 63.8065L124.359 65.1833L122.833 65.5087L123.421 66.4724L122.126 67.0356C122.126 67.0356 124.671 70.4963 124.302 72.9369C123.677 76.992 127.26 83.1873 132.814 80.3713C138.368 77.5552 132.401 65.5963 127.06 63.0431Z" fill="white"/>
<path d="M130.081 81.3663C128.988 81.3614 127.925 81.0061 127.048 80.3525C125.937 79.4683 125.073 78.3132 124.537 76.9981C124.001 75.6829 123.813 74.2521 123.99 72.843C124.34 70.5589 121.901 67.2109 121.876 67.1733C121.848 67.1352 121.829 67.0911 121.82 67.0445C121.811 66.9979 121.813 66.9499 121.826 66.9042C121.839 66.8596 121.862 66.8182 121.892 66.7826C121.922 66.7471 121.959 66.7182 122.001 66.6977L122.964 66.2784L122.564 65.6213C122.542 65.5764 122.531 65.5272 122.531 65.4774C122.531 65.4276 122.542 65.3784 122.564 65.3335C122.586 65.2889 122.618 65.2497 122.657 65.2184C122.696 65.1871 122.741 65.1645 122.789 65.152L123.921 64.9205L123.483 63.8942C123.463 63.8521 123.453 63.8062 123.453 63.7596C123.453 63.7131 123.463 63.6671 123.483 63.6251C123.504 63.5848 123.533 63.5495 123.569 63.5215C123.604 63.4934 123.646 63.4733 123.689 63.4624L126.979 62.6989C127.046 62.6773 127.118 62.6773 127.185 62.6989C131.175 64.6326 135.316 71.3724 135.316 76.0596C135.316 78.2123 134.509 79.783 132.92 80.5841C132.05 81.0672 131.076 81.3354 130.081 81.3663ZM122.576 67.142C123.202 68.0745 124.909 70.8342 124.584 72.9556C124.435 74.2468 124.614 75.5548 125.105 76.7583C125.595 77.9617 126.382 79.0215 127.392 79.8394C128.455 80.6153 130.231 81.2787 132.645 80.0521C134.021 79.3512 134.715 78.0183 134.696 76.0909C134.653 71.7103 130.713 65.2146 126.998 63.3372L124.184 63.963L124.621 64.9955C124.64 65.038 124.649 65.0838 124.649 65.1301C124.649 65.1764 124.64 65.2222 124.621 65.2646C124.575 65.3449 124.498 65.4034 124.409 65.4273L123.308 65.6589L123.671 66.2471C123.688 66.2878 123.697 66.3314 123.697 66.3754C123.697 66.4195 123.688 66.4631 123.671 66.5037C123.656 66.5461 123.633 66.585 123.603 66.6183C123.573 66.6516 123.536 66.6786 123.496 66.6977L122.576 67.142Z" fill="#093269"/>
<path d="M129.168 76.7104C129.118 76.7107 129.068 76.6977 129.024 76.6728C128.955 76.6415 127.367 75.7529 127.217 71.2723C127.062 69.227 126.101 67.3272 124.546 65.9906C124.481 65.9391 124.438 65.8637 124.428 65.781C124.418 65.6983 124.442 65.6149 124.493 65.5494C124.545 65.4838 124.62 65.4414 124.703 65.4314C124.785 65.4214 124.869 65.4447 124.934 65.4962C125.779 66.2123 126.472 67.0908 126.972 68.0798C127.471 69.0687 127.767 70.1479 127.842 71.2535C127.98 75.2961 129.306 76.1159 129.324 76.1221C129.395 76.164 129.447 76.2317 129.469 76.311C129.491 76.3903 129.482 76.4751 129.443 76.5477C129.417 76.5975 129.377 76.6391 129.328 76.6678C129.28 76.6965 129.224 76.7112 129.168 76.7104Z" fill="#D5E6FB"/>
<path d="M127.323 78.3875C127.278 78.3871 127.234 78.3774 127.193 78.3591C127.152 78.3408 127.116 78.3143 127.085 78.2811C127.023 78.206 125.634 76.5101 125.691 72.7554C125.747 69.0006 123.577 67.2734 123.552 67.2546C123.487 67.2039 123.444 67.1294 123.433 67.0473C123.423 66.9651 123.445 66.8822 123.496 66.8166C123.546 66.7516 123.62 66.7087 123.702 66.6971C123.784 66.6854 123.866 66.7058 123.933 66.754C124.033 66.8354 126.385 68.6689 126.316 72.7679C126.26 76.2661 127.567 77.8618 127.567 77.8743C127.62 77.9387 127.646 78.0211 127.639 78.1041C127.632 78.1872 127.592 78.2642 127.529 78.3187C127.47 78.3638 127.398 78.388 127.323 78.3875Z" fill="#D5E6FB"/>
<path d="M131.094 81.5601C131.094 81.5601 135.191 79.107 132.633 72.5862C130.075 66.0654 125.303 67.6237 124.065 59.4445L157.455 51.3405C157.455 51.3405 158.931 59.9765 164.272 64.382C169.612 68.7876 165.222 77.336 165.222 77.336L131.094 81.5601Z" fill="#D1D1D1"/>
<path d="M131.094 81.8732C131.029 81.8718 130.967 81.8507 130.914 81.8127C130.862 81.7747 130.822 81.7216 130.8 81.6604C130.777 81.5931 130.777 81.5198 130.801 81.4527C130.825 81.3855 130.871 81.3286 130.932 81.2912C131.088 81.1973 134.765 78.8756 132.345 72.6991C131.509 70.5936 130.098 68.7656 128.274 67.4236C126.316 65.7715 124.471 64.2133 123.758 59.4948C123.745 59.4179 123.762 59.3388 123.805 59.2737C123.848 59.2086 123.914 59.1624 123.99 59.1444L157.38 51.0091C157.463 50.989 157.55 51.0025 157.624 51.0466C157.66 51.0702 157.692 51.1014 157.715 51.1381C157.739 51.1748 157.755 51.2161 157.761 51.2594C157.761 51.3407 159.281 59.8327 164.472 64.1069C169.944 68.6189 165.547 77.3612 165.504 77.4488C165.481 77.4942 165.447 77.5333 165.406 77.5627C165.364 77.5922 165.316 77.6111 165.266 77.6178L131.132 81.8544L131.094 81.8732ZM124.421 59.6638C125.128 63.9317 126.854 65.3835 128.68 66.923C130.2 68.1746 131.807 69.5388 132.927 72.4738C134.803 77.236 133.171 79.9457 132.07 81.1222L165.009 77.0295C165.547 75.8969 168.762 68.4875 164.065 64.6013C159.225 60.6087 157.53 53.337 157.186 51.7037L124.421 59.6638Z" fill="#093269"/>
<path d="M150.05 76.8105L138.061 76.7292C138.016 76.7292 137.971 76.7191 137.93 76.6996C137.889 76.6802 137.852 76.6518 137.823 76.6165C137.793 76.5822 137.77 76.541 137.758 76.4964C137.747 76.4519 137.745 76.4051 137.755 76.3599C138.336 73.231 134.459 68.7816 134.421 68.7315C134.387 68.692 134.363 68.6442 134.352 68.5927C134.341 68.5411 134.343 68.4877 134.359 68.4374C134.373 68.3872 134.4 68.3417 134.437 68.3054C134.475 68.2691 134.521 68.2434 134.571 68.2309C144.697 65.2771 145.003 65.4273 145.128 65.4837C150.413 67.9868 150.369 76.1221 150.363 76.4976C150.363 76.5806 150.33 76.6602 150.271 76.7189C150.212 76.7776 150.133 76.8105 150.05 76.8105ZM138.418 76.1096L149.731 76.1847C149.687 74.6828 149.224 68.1871 144.915 66.0782C144.221 66.1282 138.818 67.6489 135.203 68.694C136.116 69.8016 138.68 73.256 138.418 76.0846V76.1096Z" fill="#D5E6FB"/>
<path d="M132.02 66.754C131.952 66.7551 131.886 66.7335 131.831 66.6927C131.777 66.6519 131.738 66.5943 131.72 66.5287C131.708 66.4893 131.704 66.4479 131.709 66.4071C131.713 66.3663 131.726 66.3267 131.746 66.2907C131.765 66.2546 131.792 66.2228 131.824 66.1971C131.856 66.1714 131.893 66.1522 131.932 66.1407L157.886 58.7313C157.966 58.7098 158.051 58.7199 158.123 58.7596C158.195 58.7992 158.249 58.8654 158.274 58.9441C158.297 59.0238 158.288 59.1094 158.248 59.1822C158.208 59.2549 158.141 59.3089 158.061 59.3321L132.101 66.7415L132.02 66.754Z" fill="#D5E6FB"/>
<path d="M148.555 64.8516C148.487 64.8512 148.42 64.8284 148.366 64.7865C148.312 64.7447 148.273 64.6862 148.255 64.6201C148.244 64.5806 148.24 64.5393 148.245 64.4985C148.25 64.4578 148.263 64.4185 148.284 64.3829C148.304 64.3473 148.332 64.3161 148.364 64.2913C148.397 64.2665 148.434 64.2485 148.474 64.2383L159.168 61.3534C159.251 61.3318 159.339 61.3441 159.413 61.3875C159.487 61.431 159.541 61.502 159.562 61.585C159.584 61.6679 159.572 61.7561 159.528 61.83C159.485 61.904 159.414 61.9576 159.331 61.9792L148.637 64.8641L148.555 64.8516Z" fill="#D5E6FB"/>
<path d="M150.5 67.0356C150.433 67.0346 150.367 67.0123 150.314 66.9718C150.26 66.9313 150.22 66.8748 150.2 66.8103C150.189 66.7709 150.185 66.7296 150.189 66.6887C150.194 66.6479 150.206 66.6083 150.226 66.5723C150.246 66.5362 150.272 66.5045 150.304 66.4787C150.337 66.453 150.373 66.4338 150.413 66.4223L160.357 63.4436C160.435 63.4201 160.52 63.4286 160.593 63.4672C160.665 63.5059 160.72 63.5716 160.744 63.6501C160.757 63.6895 160.761 63.731 160.757 63.7722C160.753 63.8133 160.74 63.8532 160.721 63.8894C160.701 63.9257 160.674 63.9575 160.641 63.9831C160.609 64.0086 160.572 64.0273 160.532 64.0381L150.625 67.0231L150.5 67.0356Z" fill="#D5E6FB"/>
<path d="M135.372 58.9191L136.141 58.7126L138.374 60.7214L137.748 58.2933L138.33 58.1368L139.206 61.4097L138.468 61.61L136.179 59.5324L136.854 62.0355L136.272 62.192L135.372 58.9191Z" fill="#D5E6FB"/>
<path d="M139.994 57.6863L142.157 57.1043L142.301 57.6362L140.719 58.0555L140.932 58.8628L142.433 58.4623L142.576 58.9879L141.076 59.3884L141.313 60.2771L142.977 59.8265L143.121 60.3584L140.869 60.9842L139.994 57.6863Z" fill="#D5E6FB"/>
<path d="M143.346 56.7851L143.971 56.6162L145.222 58.8064L145.322 56.2532L145.897 56.0968L147.248 58.262V55.7588L147.874 55.6024L147.799 59.1319L147.242 59.2758L145.816 56.9916L145.728 59.6888L145.191 59.8327L143.346 56.7851Z" fill="#D5E6FB"/>
<path d="M150.957 55.4897C150.87 55.42 150.767 55.3747 150.657 55.3583C150.543 55.34 150.427 55.34 150.313 55.3583C150.247 55.3774 150.184 55.4048 150.125 55.4397C150.068 55.4702 150.018 55.5105 149.975 55.5586C149.933 55.6047 149.903 55.6606 149.887 55.7213C149.869 55.7889 149.869 55.8602 149.887 55.9278C149.898 55.9762 149.92 56.0215 149.951 56.0596C149.983 56.0978 150.023 56.1277 150.069 56.1468C150.175 56.1878 150.287 56.2131 150.4 56.2219C150.536 56.2289 150.671 56.2289 150.807 56.2219C150.949 56.226 151.09 56.2491 151.226 56.2908C151.359 56.3298 151.482 56.4006 151.582 56.4973C151.707 56.612 151.792 56.7631 151.826 56.9291C151.863 57.0897 151.863 57.2566 151.826 57.4172C151.798 57.56 151.738 57.6947 151.651 57.8114C151.564 57.9311 151.454 58.0313 151.326 58.1056C151.187 58.1882 151.038 58.2514 150.882 58.2933C150.679 58.351 150.467 58.3701 150.256 58.3496C150.049 58.3309 149.851 58.2575 149.681 58.1368L150.006 57.5987C150.106 57.6861 150.227 57.7464 150.356 57.7739C150.484 57.8052 150.617 57.8052 150.744 57.7739C150.813 57.7538 150.878 57.7243 150.938 57.6863C151 57.6531 151.055 57.6085 151.101 57.5549C151.163 57.5217 151.215 57.4719 151.251 57.4109C151.272 57.3417 151.272 57.2674 151.251 57.1982C151.24 57.1459 151.218 57.0967 151.185 57.0544C151.153 57.0121 151.111 56.9778 151.063 56.9541C150.958 56.9066 150.846 56.877 150.732 56.8665C150.596 56.8597 150.461 56.8597 150.325 56.8665C150.184 56.8619 150.043 56.8409 149.906 56.8039C149.775 56.7622 149.654 56.6941 149.55 56.6036C149.426 56.4855 149.341 56.3328 149.306 56.1656C149.265 56.0139 149.265 55.8542 149.306 55.7025C149.341 55.5637 149.405 55.4337 149.493 55.3208C149.59 55.2071 149.704 55.1099 149.831 55.0329C149.965 54.9565 150.108 54.8976 150.256 54.8577C150.427 54.8081 150.605 54.789 150.782 54.8014C150.943 54.8061 151.103 54.8423 151.251 54.9077L150.957 55.4897Z" fill="#D5E6FB"/>
<path d="M130.844 75.4212C130.804 75.4229 130.765 75.4159 130.728 75.4007C130.691 75.3856 130.658 75.3627 130.631 75.3336C130.55 75.2585 129.837 74.5138 129.337 71.7604C128.928 70.034 128.028 68.4628 126.748 67.2359C126.719 67.2073 126.695 67.1732 126.68 67.1356C126.664 67.098 126.656 67.0576 126.656 67.0168C126.656 66.976 126.664 66.9357 126.68 66.8981C126.695 66.8604 126.719 66.8264 126.748 66.7978C126.777 66.7685 126.811 66.7452 126.849 66.7293C126.888 66.7134 126.928 66.7053 126.97 66.7053C127.011 66.7053 127.052 66.7134 127.09 66.7293C127.128 66.7452 127.163 66.7685 127.192 66.7978C128.581 68.1118 129.549 69.8082 129.975 71.6727C130.438 74.2197 131.082 74.9081 131.088 74.9144C131.117 74.9429 131.14 74.977 131.156 75.0146C131.172 75.0522 131.18 75.0926 131.18 75.1334C131.18 75.1742 131.172 75.2146 131.156 75.2522C131.14 75.2898 131.117 75.3239 131.088 75.3524C131.055 75.3806 131.015 75.4014 130.973 75.4132C130.931 75.4251 130.887 75.4278 130.844 75.4212Z" fill="#D5E6FB"/>
<path d="M151.301 69.883C151.233 69.882 151.168 69.8597 151.114 69.8192C151.06 69.7787 151.02 69.7222 151.001 69.6577C150.977 69.578 150.987 69.4924 151.027 69.4196C151.066 69.3469 151.134 69.2929 151.213 69.2697L162.896 65.7089C162.974 65.6854 163.059 65.6939 163.132 65.7326C163.204 65.7712 163.259 65.8369 163.283 65.9154C163.307 65.9951 163.299 66.0809 163.26 66.1545C163.222 66.2281 163.156 66.2838 163.077 66.3097L151.395 69.8642C151.365 69.8764 151.333 69.8828 151.301 69.883Z" fill="#D5E6FB"/>
<path d="M152.064 73.0871C152.025 73.1015 151.983 73.1015 151.945 73.0871C151.909 73.067 151.878 73.0399 151.853 73.0074C151.827 72.975 151.809 72.9378 151.799 72.8981C151.788 72.8584 151.786 72.817 151.791 72.7764C151.797 72.7358 151.811 72.6967 151.832 72.6615C151.863 72.6089 151.908 72.5661 151.963 72.5384C152.017 72.5107 152.078 72.4991 152.139 72.5051C152.802 72.43 159.644 70.3148 164.103 68.9005C164.141 68.8879 164.182 68.8831 164.222 68.8863C164.263 68.8896 164.302 68.9009 164.338 68.9195C164.374 68.9381 164.406 68.9637 164.433 68.9949C164.459 69.026 164.478 69.062 164.49 69.1007C164.504 69.1397 164.51 69.1811 164.507 69.2223C164.504 69.2635 164.493 69.3037 164.474 69.3405C164.456 69.3773 164.43 69.41 164.398 69.4365C164.366 69.4631 164.33 69.483 164.29 69.495C154.178 72.6678 152.451 73.0871 152.064 73.0871Z" fill="#D5E6FB"/>
<path d="M123.733 77.3424L122.57 80.0459L132.576 101.548C132.576 101.548 142.145 93.4128 150.907 94.2764C150.907 94.2764 162.414 88.1061 167.261 88.1061L168.512 86.2287L144.171 73.5877L123.733 77.3424Z" fill="#093269"/>
<path d="M132.608 101.842H132.545C132.498 101.833 132.454 101.813 132.416 101.784C132.378 101.755 132.347 101.717 132.326 101.673L122.32 80.171C122.303 80.1315 122.294 80.0889 122.294 80.0459C122.294 80.0028 122.303 79.9603 122.32 79.9207L123.483 77.2173C123.502 77.1685 123.533 77.1256 123.574 77.0927C123.614 77.0597 123.663 77.038 123.714 77.0295L144.134 73.2748C144.199 73.2533 144.269 73.2533 144.334 73.2748L168.724 85.9408C168.802 85.984 168.861 86.0558 168.887 86.1411C168.905 86.2291 168.889 86.3205 168.843 86.3977L167.592 88.275C167.562 88.3165 167.522 88.3504 167.477 88.3743C167.431 88.3981 167.381 88.4113 167.33 88.4127C162.62 88.4127 151.238 94.4829 151.119 94.5455C151.065 94.5708 151.004 94.5816 150.944 94.5768C142.401 93.7257 132.945 101.698 132.852 101.78C132.78 101.829 132.694 101.851 132.608 101.842ZM122.933 80.0396L132.72 101.047C134.471 99.6332 142.908 93.2126 150.857 93.951C151.982 93.3252 162.326 87.9183 167.117 87.7932L168.068 86.3726L144.115 73.9193L123.971 77.624L122.933 80.0396Z" fill="#093269"/>
<path d="M150.938 92.8433L139.281 73.6815C139.281 73.6815 131.019 72.7178 123.733 77.3424L133.189 98.901C133.189 98.901 143.746 90.7469 150.938 92.8433Z" fill="white"/>
<path d="M133.189 99.2139C133.165 99.22 133.139 99.22 133.114 99.2139C133.068 99.2034 133.026 99.182 132.99 99.1515C132.954 99.121 132.926 99.0823 132.908 99.0387L123.464 77.4801C123.434 77.4121 123.429 77.3351 123.45 77.2636C123.472 77.1922 123.52 77.1312 123.583 77.0921C130.857 72.4613 139.218 73.3374 139.318 73.3749C139.365 73.3789 139.409 73.3941 139.448 73.4191C139.488 73.4442 139.52 73.4784 139.543 73.5189L151.201 92.6931C151.233 92.7467 151.248 92.8086 151.245 92.871C151.242 92.9334 151.22 92.9934 151.182 93.0432C151.144 93.093 151.093 93.1304 151.034 93.1505C150.974 93.1707 150.911 93.1727 150.85 93.1562C143.877 91.1349 133.489 99.0825 133.383 99.1639C133.325 99.1987 133.257 99.2161 133.189 99.2139ZM124.146 77.4676L133.321 98.4129C135.103 97.0925 143.696 91.0723 150.275 92.3615L139.093 73.9694C137.961 73.8756 130.644 73.4438 124.146 77.4676Z" fill="#093269"/>
<path d="M150.938 92.8434C150.938 92.8434 163.759 85.678 168.53 86.26L156.06 67.2547C156.06 67.2547 144.546 67.53 139.281 73.669L150.938 92.8434Z" fill="white"/>
<path d="M150.938 93.1562C150.884 93.156 150.831 93.142 150.784 93.1158C150.737 93.0895 150.698 93.0518 150.669 93.006L139.012 73.8317C138.974 73.7787 138.954 73.7153 138.954 73.6502C138.954 73.5852 138.974 73.5218 139.012 73.4688C144.309 67.2922 155.547 66.9543 156.023 66.9417C156.075 66.9401 156.128 66.9519 156.175 66.9759C156.222 67 156.262 67.0356 156.291 67.0794L168.762 86.0848C168.794 86.1352 168.811 86.1938 168.811 86.2537C168.811 86.3136 168.794 86.3723 168.762 86.4227C168.731 86.4742 168.685 86.5152 168.63 86.5408C168.576 86.5664 168.515 86.5754 168.455 86.5666C163.834 86.0097 151.176 93.0436 151.051 93.1124C151.017 93.1352 150.978 93.1502 150.938 93.1562ZM139.668 73.6815L151.044 92.4553C152.871 91.4541 163.089 85.9533 167.93 85.9471L155.897 67.5738C154.465 67.6426 144.49 68.2997 139.668 73.6815Z" fill="#093269"/>
<path d="M132.608 101.842H132.539C132.459 101.824 132.389 101.775 132.344 101.706C132.3 101.637 132.284 101.553 132.301 101.473L132.883 98.8259C132.901 98.7429 132.952 98.6706 133.023 98.6248C133.095 98.5791 133.181 98.5636 133.264 98.5819C133.347 98.6001 133.42 98.6506 133.465 98.7222C133.511 98.7938 133.526 98.8806 133.508 98.9636L132.927 101.604C132.909 101.675 132.868 101.737 132.81 101.781C132.752 101.824 132.68 101.846 132.608 101.842Z" fill="#093269"/>
<path d="M127.654 79.4952C127.585 79.4955 127.517 79.4725 127.462 79.4299C127.407 79.3872 127.367 79.3273 127.35 79.2597C127.333 79.1921 127.339 79.1206 127.366 79.0567C127.394 78.9928 127.443 78.9401 127.504 78.9069C127.755 78.7692 133.602 75.6653 138.48 76.2223C138.563 76.2314 138.639 76.2731 138.691 76.3382C138.743 76.4034 138.768 76.4866 138.758 76.5696C138.749 76.6526 138.708 76.7285 138.642 76.7807C138.577 76.833 138.494 76.8572 138.411 76.8481C133.721 76.3099 127.861 79.4263 127.78 79.4576C127.741 79.4783 127.698 79.4911 127.654 79.4952Z" fill="#D5E6FB"/>
<path d="M129.18 82.355C129.129 82.3563 129.079 82.3443 129.034 82.3202C128.989 82.296 128.951 82.2606 128.924 82.2174C128.901 82.1839 128.884 82.146 128.875 82.1059C128.867 82.0659 128.866 82.0245 128.874 81.9843C128.881 81.9441 128.897 81.9057 128.919 81.8716C128.942 81.8375 128.971 81.8082 129.005 81.7856C129.249 81.6229 134.972 77.7993 139.318 78.3437C139.401 78.3545 139.476 78.3978 139.527 78.4641C139.578 78.5304 139.601 78.6143 139.59 78.6973C139.579 78.7803 139.536 78.8556 139.47 78.9066C139.404 78.9577 139.32 78.9803 139.237 78.9695C135.134 78.4501 129.412 82.2674 129.356 82.305C129.304 82.3402 129.243 82.3578 129.18 82.355Z" fill="#D5E6FB"/>
<path d="M130.05 85.3714C129.997 85.3725 129.945 85.3598 129.899 85.3345C129.853 85.3093 129.814 85.2723 129.787 85.2274C129.742 85.1577 129.727 85.0731 129.745 84.9921C129.762 84.9112 129.811 84.8405 129.881 84.7956C130.156 84.6204 136.666 80.5215 140.675 81.2849C140.716 81.2923 140.756 81.3077 140.791 81.3303C140.826 81.3529 140.856 81.3821 140.88 81.4164C140.904 81.4507 140.921 81.4893 140.929 81.5301C140.938 81.5709 140.939 81.6131 140.932 81.6542C140.924 81.6952 140.909 81.7345 140.886 81.7696C140.864 81.8047 140.835 81.8351 140.8 81.8589C140.766 81.8827 140.727 81.8996 140.687 81.9085C140.646 81.9174 140.604 81.9181 140.563 81.9107C136.81 81.1911 130.281 85.2963 130.219 85.3401C130.166 85.3649 130.108 85.3757 130.05 85.3714Z" fill="#D5E6FB"/>
<path d="M131.926 87.7494C131.874 87.7494 131.824 87.7362 131.779 87.711C131.734 87.6858 131.696 87.6494 131.67 87.6055C131.646 87.5719 131.629 87.5341 131.621 87.494C131.612 87.454 131.612 87.4126 131.619 87.3724C131.627 87.3321 131.642 87.2938 131.665 87.2597C131.688 87.2256 131.717 87.1963 131.751 87.1737C131.995 87.0109 137.811 83.131 142.589 83.5941C142.63 83.5972 142.67 83.6085 142.706 83.6273C142.743 83.6461 142.775 83.672 142.801 83.7036C142.827 83.7351 142.847 83.7715 142.859 83.8108C142.871 83.85 142.875 83.8913 142.87 83.932C142.862 84.014 142.823 84.0895 142.759 84.1422C142.696 84.195 142.615 84.2206 142.533 84.2137C137.974 83.7819 132.157 87.6555 132.101 87.6931C132.05 87.7301 131.989 87.7498 131.926 87.7494Z" fill="#D5E6FB"/>
<path d="M132.445 90.578C132.393 90.5791 132.341 90.5664 132.295 90.5411C132.248 90.5159 132.21 90.4789 132.182 90.434C132.159 90.3998 132.144 90.3612 132.136 90.3207C132.128 90.2802 132.129 90.2385 132.137 90.1982C132.146 90.1579 132.163 90.1197 132.187 90.0861C132.211 90.0524 132.241 90.0239 132.276 90.0022C132.57 89.8083 139.587 85.3276 144.309 86.1661C144.349 86.1729 144.388 86.1877 144.423 86.2098C144.458 86.2318 144.487 86.2606 144.511 86.2945C144.534 86.3284 144.55 86.3666 144.559 86.4069C144.567 86.4472 144.567 86.4887 144.559 86.5291C144.552 86.5697 144.537 86.6085 144.515 86.6432C144.493 86.6779 144.465 86.7079 144.431 86.7312C144.397 86.7546 144.359 86.7709 144.318 86.7792C144.278 86.7874 144.237 86.7875 144.196 86.7794C139.725 85.9846 132.683 90.4841 132.614 90.5342C132.563 90.5636 132.504 90.5787 132.445 90.578Z" fill="#D5E6FB"/>
<path d="M133.971 93.8821C133.904 93.8807 133.839 93.8577 133.787 93.8167C133.734 93.7758 133.695 93.7189 133.677 93.6544C133.659 93.59 133.662 93.5214 133.685 93.4588C133.709 93.3961 133.752 93.3427 133.808 93.3064C134.14 93.1062 141.939 88.4127 145.297 88.9634C145.378 88.9787 145.451 89.0251 145.499 89.0929C145.547 89.1606 145.566 89.2444 145.553 89.3264C145.538 89.4079 145.492 89.4803 145.424 89.5282C145.356 89.5761 145.273 89.5958 145.191 89.583C142.095 89.0761 134.215 93.7945 134.134 93.8383C134.085 93.8682 134.028 93.8834 133.971 93.8821Z" fill="#D5E6FB"/>
<path d="M143.452 75.2523C143.386 75.2523 143.322 75.2316 143.269 75.1932C143.216 75.1548 143.176 75.1006 143.155 75.0383C143.135 74.976 143.134 74.9088 143.154 74.8461C143.173 74.7834 143.212 74.7285 143.264 74.6891C143.508 74.5076 149.149 70.3085 154.703 70.3085H155.003C155.045 70.3093 155.086 70.3184 155.124 70.3353C155.162 70.3522 155.196 70.3765 155.225 70.4068C155.253 70.4371 155.275 70.4728 155.29 70.5118C155.305 70.5508 155.311 70.5923 155.31 70.6339C155.303 70.7158 155.266 70.7923 155.206 70.848C155.146 70.9037 155.066 70.9346 154.984 70.9343H154.69C149.337 70.9343 143.683 75.1334 143.621 75.1772C143.574 75.2197 143.515 75.2461 143.452 75.2523Z" fill="#D5E6FB"/>
<path d="M144.778 78.1372C144.728 78.1386 144.678 78.1272 144.633 78.1043C144.588 78.0813 144.55 78.0474 144.521 78.0058C144.497 77.9721 144.48 77.9341 144.471 77.8938C144.462 77.8535 144.461 77.8118 144.468 77.7711C144.475 77.7304 144.49 77.6914 144.512 77.6565C144.534 77.6216 144.563 77.5914 144.597 77.5677C144.847 77.3988 150.732 73.3061 156.204 72.8618C156.286 72.8566 156.367 72.8839 156.429 72.9377C156.491 72.9916 156.529 73.0677 156.535 73.1496C156.54 73.1904 156.536 73.2317 156.524 73.2709C156.512 73.3102 156.492 73.3466 156.466 73.3781C156.44 73.4096 156.407 73.4355 156.371 73.4543C156.335 73.4731 156.295 73.4844 156.254 73.4876C150.944 73.9131 144.997 78.0433 144.953 78.0809C144.902 78.1179 144.841 78.1377 144.778 78.1372Z" fill="#D5E6FB"/>
<path d="M146.504 80.4839C146.454 80.4844 146.406 80.4733 146.361 80.4516C146.316 80.4299 146.278 80.3981 146.248 80.3588C146.2 80.2911 146.181 80.2075 146.194 80.1258C146.206 80.0441 146.25 79.9706 146.316 79.9207C146.598 79.7142 153.196 74.9144 158.574 75.1772C158.657 75.1813 158.735 75.2183 158.791 75.2799C158.846 75.3415 158.875 75.4227 158.871 75.5057C158.867 75.5887 158.83 75.6667 158.769 75.7224C158.707 75.7781 158.626 75.8071 158.543 75.803C153.44 75.5276 146.754 80.3775 146.66 80.4276C146.614 80.4596 146.56 80.479 146.504 80.4839Z" fill="#D5E6FB"/>
<path d="M147.967 82.9808C147.921 82.9809 147.875 82.9709 147.833 82.9515C147.791 82.932 147.753 82.9036 147.723 82.8682C147.672 82.8033 147.649 82.7209 147.658 82.6388C147.668 82.5568 147.709 82.4818 147.773 82.4301C148.03 82.2174 154.109 77.3362 160.319 77.6866C160.36 77.6882 160.4 77.6979 160.437 77.7153C160.474 77.7326 160.507 77.7571 160.534 77.7874C160.562 77.8177 160.583 77.8532 160.596 77.8918C160.61 77.9304 160.615 77.9712 160.613 78.012C160.612 78.0537 160.603 78.0948 160.586 78.1327C160.568 78.1706 160.543 78.2045 160.512 78.2322C160.481 78.2598 160.444 78.2807 160.404 78.2934C160.365 78.3062 160.323 78.3105 160.281 78.3062C154.303 77.9807 148.224 82.8619 148.167 82.912C148.111 82.9575 148.04 82.9819 147.967 82.9808Z" fill="#D5E6FB"/>
<path d="M149.618 85.3714C149.552 85.3699 149.487 85.347 149.434 85.306C149.381 85.265 149.343 85.2081 149.324 85.1437C149.306 85.0792 149.309 85.0106 149.333 84.948C149.357 84.8854 149.4 84.832 149.456 84.7956C149.744 84.6142 156.523 80.4151 161.488 80.4151H161.57C161.653 80.4151 161.732 80.4481 161.791 80.5067C161.85 80.5654 161.882 80.645 161.882 80.728C161.881 80.8105 161.847 80.8891 161.789 80.9475C161.731 81.0058 161.652 81.0393 161.57 81.0409H161.488C156.704 81.0409 149.856 85.2963 149.787 85.3401C149.735 85.3655 149.677 85.3763 149.618 85.3714Z" fill="#D5E6FB"/>
<path d="M151.714 88.25C151.668 88.2513 151.624 88.2424 151.583 88.2239C151.541 88.2055 151.505 88.1781 151.476 88.1436C151.447 88.1151 151.424 88.081 151.408 88.0434C151.392 88.0058 151.384 87.9654 151.384 87.9246C151.384 87.8838 151.392 87.8434 151.408 87.8058C151.424 87.7682 151.447 87.7341 151.476 87.7056C153.31 86.1943 155.361 84.9685 157.561 84.0697C157.637 84.041 157.72 84.0428 157.795 84.0746C157.869 84.1064 157.928 84.1657 157.96 84.2402C157.991 84.3147 157.993 84.3985 157.964 84.474C157.935 84.5496 157.878 84.611 157.805 84.6454C155.671 85.527 153.678 86.7161 151.889 88.1749C151.839 88.2169 151.778 88.243 151.714 88.25Z" fill="#D5E6FB"/>
<path d="M159.95 76.7667L160.169 79.0383L169.619 83.2812L173.89 73.8505L173.446 71.4788L159.95 76.7667Z" fill="white"/>
<path d="M169.619 83.5941C169.577 83.6035 169.535 83.6035 169.494 83.5941L160.038 79.3137C159.988 79.2897 159.946 79.2536 159.914 79.2088C159.882 79.1639 159.862 79.1117 159.856 79.0571L159.637 76.8105C159.632 76.7428 159.648 76.675 159.684 76.6174C159.72 76.5598 159.774 76.5156 159.837 76.4914L173.334 71.1784C173.375 71.1597 173.42 71.1501 173.465 71.1501C173.51 71.1501 173.555 71.1597 173.596 71.1784C173.638 71.1989 173.675 71.2297 173.702 71.268C173.73 71.3062 173.747 71.3507 173.753 71.3974L174.197 73.7692C174.215 73.8304 174.215 73.8957 174.197 73.9569L169.925 83.3876C169.901 83.4491 169.859 83.5018 169.804 83.5386C169.749 83.5755 169.685 83.5949 169.619 83.5941ZM160.463 78.8256L169.462 82.8682L173.565 73.813L173.208 71.9356L160.288 76.9983L160.463 78.8256Z" fill="#093269"/>
<path d="M164.897 67.7177L159.95 76.7667L168.949 80.8093L173.446 71.4788L164.897 67.7177Z" fill="#D1D1D1"/>
<path d="M168.949 81.1222C168.906 81.1308 168.861 81.1308 168.818 81.1222L159.825 77.0859C159.785 77.068 159.75 77.0421 159.721 77.0098C159.692 76.9775 159.67 76.9394 159.656 76.8981C159.639 76.8586 159.631 76.816 159.631 76.773C159.631 76.73 159.639 76.6874 159.656 76.6478L164.609 67.5988C164.64 67.5231 164.699 67.4624 164.774 67.4297C164.848 67.397 164.933 67.3948 165.009 67.4236L173.552 71.1784C173.591 71.1958 173.626 71.2209 173.655 71.252C173.684 71.2832 173.707 71.3199 173.721 71.3599C173.738 71.3984 173.747 71.4399 173.747 71.4819C173.747 71.5239 173.738 71.5654 173.721 71.6039L169.225 80.9282C169.201 80.983 169.163 81.0302 169.115 81.0645C169.066 81.0988 169.009 81.1188 168.949 81.1222ZM160.388 76.6228L168.799 80.3775L173.027 71.6164L165.009 68.1245L160.388 76.6228Z" fill="#093269"/>
<path d="M169.619 83.5941C169.55 83.5937 169.484 83.5709 169.429 83.529C169.375 83.4872 169.336 83.4287 169.318 83.3626L168.649 80.8594C168.639 80.8183 168.636 80.7755 168.642 80.7335C168.648 80.6914 168.662 80.6509 168.683 80.6143C168.705 80.5777 168.733 80.5457 168.767 80.5201C168.801 80.4945 168.84 80.4758 168.881 80.4651C168.922 80.4545 168.964 80.452 169.007 80.4578C169.049 80.4637 169.089 80.4778 169.126 80.4993C169.162 80.5208 169.194 80.5493 169.22 80.5831C169.245 80.617 169.264 80.6556 169.275 80.6967L169.944 83.1686C169.956 83.208 169.96 83.2496 169.956 83.2906C169.951 83.3317 169.938 83.3714 169.918 83.4072C169.897 83.443 169.869 83.4742 169.836 83.4988C169.803 83.5235 169.765 83.541 169.725 83.5503L169.619 83.5941Z" fill="#093269"/>
<path d="M170.676 72.9431C170.634 72.9496 170.592 72.9496 170.55 72.9431L165.547 70.8279C165.51 70.8122 165.476 70.7892 165.447 70.7602C165.418 70.7311 165.396 70.6966 165.381 70.6587C165.365 70.6209 165.358 70.5803 165.359 70.5395C165.359 70.4987 165.368 70.4585 165.385 70.4212C165.417 70.3451 165.477 70.2846 165.553 70.253C165.629 70.2213 165.715 70.2211 165.791 70.2522L170.794 72.3611C170.877 72.3769 170.951 72.425 170.998 72.4948C171.046 72.5646 171.063 72.6505 171.048 72.7335C171.032 72.8165 170.984 72.8898 170.914 72.9373C170.844 72.9848 170.758 73.0027 170.676 72.9869V72.9431Z" fill="#D5E6FB"/>
<path d="M168.524 74.9331C168.483 74.9414 168.44 74.9414 168.399 74.9331L164.647 73.2936C164.603 73.2819 164.563 73.261 164.529 73.2325C164.494 73.2039 164.466 73.1682 164.447 73.1279C164.427 73.0876 164.417 73.0435 164.416 72.9987C164.415 72.9539 164.423 72.9094 164.441 72.8682C164.458 72.827 164.485 72.7901 164.518 72.76C164.551 72.7298 164.59 72.7072 164.633 72.6935C164.676 72.6798 164.721 72.6755 164.765 72.6808C164.81 72.686 164.852 72.7008 164.891 72.7241L168.643 74.3574C168.681 74.3737 168.715 74.3974 168.744 74.427C168.773 74.4567 168.795 74.4917 168.81 74.5301C168.825 74.5685 168.833 74.6095 168.832 74.6507C168.831 74.692 168.822 74.7327 168.806 74.7704C168.779 74.8212 168.738 74.8634 168.688 74.8922C168.638 74.921 168.582 74.9352 168.524 74.9331Z" fill="#D5E6FB"/>
<path d="M145.103 116.235C147.367 116.699 148.618 118.488 150.037 119.99L144.315 129.471L137.054 125.191C137.148 125.034 137.217 124.903 137.298 124.778C138.774 122.437 140.269 120.109 141.726 117.75C141.948 117.367 142.252 117.038 142.616 116.786C142.981 116.535 143.397 116.368 143.834 116.298C143.904 116.279 143.973 116.253 144.04 116.223L145.103 116.235Z" fill="#53B953"/>
<path d="M156.173 149.753L156.335 153.232C156.229 153.088 156.166 153.007 156.11 152.919C154.576 150.479 153.041 148.036 151.507 145.591C151.451 145.519 151.42 145.43 151.42 145.338C151.42 145.246 151.451 145.157 151.507 145.085C152.927 142.663 154.334 140.235 155.754 137.807C155.791 137.738 155.847 137.675 155.947 137.531C155.985 138.407 156.022 139.202 156.054 139.991C156.054 140.316 156.054 140.616 156.098 140.973C156.098 141.073 156.235 141.23 156.316 141.236C159.273 141.608 162.272 141.477 165.185 140.848C165.81 140.692 166.435 140.422 167.061 140.191C167.026 140.289 166.987 140.385 166.942 140.479C165.612 143.036 164.276 145.591 162.933 148.145C162.735 148.531 162.438 148.858 162.072 149.091C161.706 149.324 161.284 149.456 160.851 149.471C159.525 149.572 158.199 149.628 156.873 149.703L156.173 149.753Z" fill="#53B953"/>
<path d="M144.29 137.124L141.163 135.159C139.162 137.331 136.648 140.936 135.797 144.815C135.703 144.659 135.635 144.553 135.572 144.434C134.242 141.931 132.91 139.427 131.576 136.924C131.375 136.589 131.265 136.209 131.254 135.818C131.243 135.428 131.332 135.042 131.513 134.696C132.245 133.376 133.039 132.099 133.808 130.81C133.883 130.679 133.965 130.554 134.065 130.397L131.182 128.626V128.551H131.576L140.037 128.877C140.244 128.877 140.419 128.877 140.531 129.127C141.745 131.718 142.966 134.302 144.196 136.88C144.221 136.937 144.234 136.987 144.29 137.124Z" fill="#53B953"/>
<path d="M150.457 127.681L153.696 125.804C152.326 122.318 150.613 119.07 147.705 116.486H148.155H156.654C157.101 116.481 157.541 116.598 157.925 116.825C158.31 117.053 158.625 117.381 158.837 117.775C159.562 118.976 160.269 120.191 160.982 121.398L161.207 121.786L164.247 120.015C164.14 120.209 164.096 120.303 164.04 120.397C162.589 122.863 161.14 125.326 159.694 127.788C159.652 127.883 159.582 127.963 159.491 128.015C159.401 128.067 159.297 128.088 159.193 128.076C156.36 127.932 153.565 127.806 150.7 127.675L150.457 127.681Z" fill="#53B953"/>
<path d="M148.812 141.674L148.461 150.097C147.836 150.06 147.211 150.028 146.585 149.985C144.215 149.816 141.845 149.64 139.468 149.484C138.859 149.45 138.283 149.194 137.848 148.764C137.305 148.289 136.901 147.674 136.681 146.986C136.46 146.298 136.432 145.562 136.598 144.859C136.885 143.576 137.298 142.312 137.642 141.105L148.812 141.674Z" fill="#53B953"/>
<path d="M157.111 131.211L164.284 126.743C164.365 126.874 164.447 126.98 164.509 127.099C165.898 129.465 167.282 131.834 168.662 134.208C169.087 134.899 169.254 135.719 169.131 136.522C169.009 137.324 168.605 138.057 167.993 138.589C167.123 139.331 166.09 139.856 164.978 140.122C164.353 140.31 163.727 140.466 163.102 140.616C163.037 140.624 162.972 140.616 162.911 140.593C162.85 140.571 162.795 140.533 162.752 140.485C160.913 137.494 159.081 134.494 157.255 131.486C157.217 131.398 157.18 131.323 157.111 131.211Z" fill="#53B953"/>
<path d="M203.822 116.029L218.556 111.267L242.665 120.366L228.956 131.611L203.822 116.029Z" fill="#093269"/>
<path d="M228.956 131.93C228.901 131.927 228.847 131.91 228.8 131.88L203.659 116.298C203.607 116.267 203.565 116.221 203.538 116.167C203.512 116.113 203.502 116.052 203.509 115.991C203.518 115.932 203.543 115.877 203.582 115.832C203.62 115.787 203.671 115.753 203.728 115.735L218.456 110.973C218.522 110.948 218.596 110.948 218.662 110.973L242.771 120.072C242.824 120.09 242.87 120.123 242.905 120.166C242.94 120.209 242.963 120.261 242.971 120.316C242.98 120.369 242.974 120.424 242.954 120.475C242.934 120.525 242.901 120.57 242.859 120.604L229.15 131.868C229.095 131.911 229.026 131.933 228.956 131.93ZM204.566 116.123L228.956 131.229L242.09 120.466L218.543 111.598L204.566 116.123Z" fill="#093269"/>
<path d="M221.464 110.491C221.939 110.935 222.296 111.492 222.715 111.974C223.305 112.604 224.039 113.083 224.854 113.369C225.106 113.436 225.343 113.548 225.554 113.701C225.713 113.894 225.827 114.12 225.887 114.363C225.946 114.605 225.95 114.858 225.898 115.103C225.811 116.341 225.629 117.572 225.354 118.782C225.303 119.211 225.107 119.609 224.797 119.909C224.449 120.118 224.045 120.214 223.64 120.184C220.739 120.253 217.705 120.247 215.116 118.933C213.865 118.307 212.677 117.224 212.496 115.804C212.352 114.734 212.965 112.856 213.978 112.393C214.551 112.183 215.151 112.057 215.76 112.018C215.868 112.016 215.975 111.992 216.073 111.946C216.171 111.901 216.258 111.836 216.33 111.755C216.377 111.661 216.415 111.562 216.442 111.461C216.539 111.232 216.689 111.031 216.88 110.872C218.081 109.827 220.213 109.352 221.464 110.491Z" fill="white"/>
<path d="M222.108 120.516C219.575 120.516 217.149 120.303 215.004 119.221C213.421 118.426 212.377 117.162 212.208 115.848C212.064 114.727 212.652 112.668 213.872 112.093C214.357 111.897 214.87 111.779 215.391 111.742L215.742 111.692C215.817 111.692 216.036 111.655 216.092 111.573C216.11 111.533 216.125 111.491 216.136 111.448L216.173 111.342C216.283 111.062 216.464 110.816 216.699 110.628C218.024 109.439 220.338 109.001 221.702 110.247C221.982 110.525 222.243 110.822 222.483 111.135C222.646 111.342 222.815 111.548 222.996 111.761C223.551 112.353 224.239 112.804 225.004 113.075H225.098C225.357 113.146 225.6 113.27 225.811 113.438C226.012 113.659 226.158 113.924 226.236 114.213C226.315 114.501 226.323 114.804 226.261 115.097C226.173 116.36 225.989 117.616 225.71 118.851C225.648 119.352 225.408 119.814 225.035 120.153C224.637 120.407 224.168 120.527 223.697 120.497L222.108 120.516ZM219.607 110.128C218.684 110.147 217.797 110.493 217.105 111.104C216.948 111.224 216.825 111.384 216.749 111.567V111.642C216.722 111.741 216.682 111.836 216.63 111.924C216.536 112.045 216.417 112.143 216.281 112.213C216.144 112.282 215.995 112.32 215.842 112.324L215.485 112.374C215.026 112.403 214.574 112.504 214.147 112.675C213.315 113.056 212.708 114.74 212.84 115.766C212.971 116.792 213.903 117.956 215.291 118.657C217.755 119.909 220.664 119.909 223.672 119.871C224.009 119.9 224.347 119.826 224.641 119.659C224.872 119.404 225.015 119.081 225.048 118.739C225.324 117.545 225.504 116.331 225.585 115.109C225.629 114.912 225.631 114.708 225.59 114.511C225.549 114.313 225.466 114.127 225.348 113.964C225.199 113.851 225.029 113.771 224.847 113.726L224.747 113.689C223.885 113.385 223.109 112.879 222.483 112.212C222.296 112.005 222.121 111.78 221.946 111.586C221.724 111.296 221.481 111.022 221.22 110.766C220.789 110.358 220.219 110.13 219.625 110.128H219.607Z" fill="#093269"/>
<path d="M240.614 113.538L232.884 105.966C232.739 105.798 232.554 105.669 232.346 105.591C232.042 105.543 231.731 105.612 231.477 105.785C227.756 107.7 225.492 111.536 223.428 115.172C223.547 114.959 228.431 118.2 228.856 118.52C229.919 119.302 231.533 121.517 232.871 120.591C234.016 119.796 234.654 117.618 235.723 116.573C237.106 115.209 238.777 114.171 240.614 113.538Z" fill="#E0E0E0"/>
<path d="M232.183 121.142C231.22 121.142 230.245 120.222 229.488 119.508C229.229 119.251 228.956 119.008 228.669 118.782C228.081 118.351 224.078 115.729 223.453 115.497C223.392 115.499 223.331 115.484 223.278 115.453C223.241 115.434 223.209 115.407 223.184 115.375C223.158 115.343 223.139 115.306 223.128 115.266C223.117 115.226 223.114 115.184 223.119 115.144C223.124 115.103 223.138 115.063 223.159 115.028C225.035 111.686 227.405 107.518 231.333 105.503C231.464 105.401 231.614 105.326 231.775 105.283C231.935 105.239 232.103 105.228 232.268 105.25C232.432 105.272 232.591 105.327 232.735 105.411C232.878 105.496 233.003 105.608 233.103 105.741L240.833 113.313C240.869 113.351 240.895 113.398 240.909 113.449C240.924 113.5 240.925 113.553 240.913 113.605C240.901 113.656 240.877 113.704 240.842 113.744C240.807 113.783 240.763 113.814 240.714 113.832C238.922 114.456 237.292 115.472 235.942 116.805C235.461 117.353 235.053 117.961 234.729 118.614C234.333 119.473 233.76 120.239 233.046 120.86C232.795 121.041 232.493 121.14 232.183 121.142ZM223.878 115.028C225.298 115.704 229 118.251 229.038 118.282C229.346 118.521 229.641 118.778 229.919 119.052C231.033 120.103 231.939 120.866 232.69 120.347C233.319 119.775 233.826 119.081 234.178 118.307C234.533 117.603 234.979 116.949 235.504 116.361C236.8 115.081 238.343 114.078 240.038 113.413L232.665 106.223C232.556 106.093 232.419 105.991 232.265 105.922C232.043 105.907 231.823 105.966 231.639 106.091C227.974 107.937 225.673 111.811 223.878 115.028Z" fill="#093269"/>
<path d="M222.821 109.414L232.802 112.725L228.049 129.99L217.293 125.779L222.821 109.414Z" fill="#E0E0E0"/>
<path d="M228.049 130.303C228.012 130.309 227.974 130.309 227.937 130.303L217.174 126.092C217.099 126.061 217.039 126.003 217.006 125.93C216.972 125.857 216.967 125.774 216.992 125.697L222.546 109.314C222.572 109.235 222.628 109.17 222.702 109.133C222.775 109.095 222.861 109.088 222.94 109.114L232.946 112.424C233.022 112.45 233.085 112.504 233.123 112.575C233.16 112.646 233.168 112.729 233.146 112.806L228.4 130.072C228.373 130.157 228.315 130.229 228.237 130.272C228.178 130.299 228.114 130.309 228.049 130.303ZM217.68 125.622L227.843 129.596L232.421 112.95L223.04 109.821L217.68 125.622Z" fill="#093269"/>
<path d="M222.821 109.414L220.176 110.315L217.293 125.779L220.057 125.159L222.821 109.414Z" fill="#D1D1D1"/>
<path d="M217.286 126.092C217.207 126.091 217.131 126.06 217.074 126.004C217.036 125.968 217.008 125.924 216.992 125.875C216.976 125.826 216.972 125.774 216.98 125.723L219.869 110.259C219.879 110.205 219.903 110.154 219.94 110.112C219.976 110.07 220.023 110.039 220.076 110.021L222.721 109.12C222.772 109.103 222.827 109.1 222.88 109.11C222.933 109.121 222.983 109.145 223.024 109.18C223.064 109.215 223.096 109.261 223.114 109.312C223.132 109.363 223.137 109.417 223.128 109.471L220.363 125.209C220.353 125.27 220.324 125.326 220.282 125.37C220.24 125.415 220.185 125.446 220.126 125.46L217.355 126.085L217.286 126.092ZM220.451 110.553L217.687 125.372L219.782 124.896L222.421 109.877L220.451 110.553Z" fill="#093269"/>
<path d="M224.91 121.686C224.91 121.686 229.288 120.873 231.327 115.009L240.801 118.351C240.801 118.351 239.807 125.028 236.111 128.726C232.415 132.425 223.24 130.71 223.24 130.71L224.91 121.686Z" fill="#E0E0E0"/>
<path d="M227.987 131.43C226.377 131.43 224.77 131.292 223.184 131.017C223.103 131.002 223.031 130.955 222.984 130.887C222.937 130.819 222.919 130.735 222.934 130.654L224.604 121.63C224.616 121.568 224.646 121.511 224.691 121.467C224.735 121.422 224.792 121.392 224.854 121.38C224.897 121.38 229.05 120.516 231.033 114.903C231.061 114.825 231.119 114.761 231.194 114.726C231.269 114.691 231.355 114.687 231.433 114.715L240.901 118.05C240.97 118.075 241.028 118.123 241.065 118.186C241.103 118.248 241.118 118.322 241.108 118.394C241.064 118.67 240.057 125.216 236.33 128.945C234.328 130.948 230.858 131.43 227.987 131.43ZM223.609 130.454C225.223 130.704 232.721 131.674 235.886 128.507C239.05 125.341 240.22 119.803 240.445 118.557L231.514 115.428C229.638 120.472 226.092 121.724 225.185 121.961L223.609 130.454Z" fill="#093269"/>
<path d="M207.968 119.79C207.968 119.79 203.909 113.839 204.722 108.601L214.785 107.612C214.785 107.612 216.355 120.184 219.694 123.826L207.968 119.79Z" fill="#E0E0E0"/>
<path d="M219.694 124.133C219.661 124.139 219.627 124.139 219.594 124.133L207.868 120.103C207.806 120.078 207.752 120.037 207.712 119.984C207.543 119.734 203.596 113.864 204.416 108.57C204.426 108.501 204.459 108.437 204.508 108.389C204.558 108.34 204.622 108.309 204.691 108.3L214.754 107.312C214.834 107.303 214.914 107.326 214.978 107.377C215.041 107.427 215.082 107.5 215.091 107.581C215.091 107.706 216.692 120.097 219.926 123.626C219.968 123.67 219.996 123.726 220.007 123.786C220.017 123.846 220.01 123.908 219.985 123.964C219.96 124.02 219.919 124.067 219.867 124.099C219.815 124.132 219.755 124.148 219.694 124.146V124.133ZM208.162 119.533L218.794 123.188C216.111 119.133 214.741 109.796 214.497 107.95L204.979 108.889C204.409 113.551 207.699 118.801 208.162 119.533Z" fill="#093269"/>
<path d="M215.185 124.577C215.185 124.577 214.284 119.94 215.185 116.035H226.298C226.298 116.035 226.961 127.825 228.975 131.617L215.185 124.577Z" fill="#E0E0E0"/>
<path d="M228.956 131.93C228.9 131.929 228.846 131.912 228.8 131.88L215.041 124.84C215 124.818 214.964 124.786 214.936 124.749C214.908 124.711 214.888 124.667 214.879 124.621C214.841 124.433 213.972 119.878 214.879 115.948C214.896 115.88 214.936 115.82 214.992 115.777C215.047 115.734 215.115 115.71 215.185 115.71H226.298C226.378 115.71 226.455 115.74 226.513 115.795C226.571 115.849 226.606 115.924 226.611 116.004C226.611 116.117 227.293 127.769 229.25 131.455C229.282 131.514 229.293 131.582 229.283 131.649C229.273 131.715 229.242 131.777 229.194 131.824C229.164 131.857 229.127 131.884 229.086 131.903C229.045 131.921 229.001 131.93 228.956 131.93ZM215.466 124.371L228.3 130.935C226.711 126.886 226.092 118.113 225.986 116.354H215.435C214.992 119.009 215.003 121.72 215.466 124.371Z" fill="#093269"/>
<path d="M206.63 111.58C206.553 111.579 206.48 111.551 206.422 111.5C206.365 111.449 206.327 111.38 206.317 111.304C206.308 111.22 206.333 111.137 206.385 111.071C206.438 111.005 206.515 110.963 206.598 110.954L213.509 110.165C213.592 110.156 213.675 110.18 213.74 110.233C213.805 110.285 213.847 110.361 213.856 110.444C213.865 110.527 213.841 110.61 213.789 110.675C213.737 110.74 213.661 110.782 213.578 110.791L206.667 111.586L206.63 111.58Z" fill="#D5E6FB"/>
<path d="M206.911 113.901C206.836 113.901 206.764 113.873 206.708 113.824C206.652 113.774 206.615 113.706 206.605 113.632C206.594 113.55 206.615 113.467 206.664 113.401C206.713 113.334 206.786 113.289 206.867 113.275L213.49 112.337C213.572 112.326 213.655 112.348 213.721 112.399C213.787 112.449 213.83 112.524 213.84 112.606C213.851 112.687 213.83 112.769 213.781 112.835C213.731 112.9 213.659 112.944 213.578 112.956L206.955 113.895L206.911 113.901Z" fill="#D5E6FB"/>
<path d="M207.805 116.029C207.722 116.034 207.641 116.006 207.579 115.951C207.517 115.895 207.479 115.818 207.474 115.735C207.469 115.652 207.497 115.57 207.552 115.508C207.607 115.446 207.685 115.408 207.768 115.403L213.991 114.696C214.073 114.689 214.155 114.713 214.22 114.764C214.285 114.815 214.328 114.89 214.341 114.971C214.35 115.055 214.325 115.139 214.272 115.205C214.219 115.27 214.143 115.312 214.059 115.322L207.843 116.029H207.805Z" fill="#D5E6FB"/>
<path d="M217.105 118.625C217.022 118.625 216.943 118.592 216.884 118.534C216.825 118.475 216.792 118.396 216.792 118.313C216.792 118.23 216.825 118.15 216.884 118.092C216.943 118.033 217.022 118 217.105 118L224.679 117.694C224.72 117.69 224.762 117.695 224.801 117.709C224.84 117.722 224.877 117.744 224.907 117.772C224.938 117.8 224.962 117.835 224.979 117.873C224.995 117.911 225.004 117.952 225.004 117.994C225.005 118.035 224.999 118.076 224.985 118.114C224.971 118.153 224.949 118.188 224.921 118.219C224.893 118.249 224.86 118.273 224.822 118.29C224.785 118.308 224.745 118.317 224.704 118.319L217.136 118.625H217.105Z" fill="#D5E6FB"/>
<path d="M219.675 120.616C218.512 120.616 217.605 120.616 217.499 120.616C217.416 120.603 217.342 120.558 217.292 120.491C217.242 120.423 217.221 120.339 217.233 120.256C217.246 120.173 217.291 120.099 217.358 120.049C217.425 119.999 217.51 119.978 217.593 119.99C217.887 119.99 221.971 119.99 224.679 119.99C224.762 119.99 224.841 120.023 224.9 120.082C224.958 120.14 224.991 120.22 224.991 120.303C224.991 120.386 224.958 120.465 224.9 120.524C224.841 120.583 224.762 120.616 224.679 120.616C223.709 120.616 221.414 120.616 219.675 120.616Z" fill="#D5E6FB"/>
<path d="M238.369 120.616C238.327 120.624 238.285 120.624 238.243 120.616L232.083 117.894C232.046 117.878 232.013 117.854 231.985 117.825C231.957 117.796 231.935 117.761 231.92 117.723C231.906 117.685 231.899 117.645 231.9 117.604C231.901 117.564 231.91 117.524 231.927 117.487C231.961 117.412 232.024 117.353 232.101 117.324C232.178 117.294 232.264 117.297 232.34 117.331L238.5 120.047C238.583 120.063 238.656 120.112 238.703 120.182C238.75 120.253 238.767 120.339 238.75 120.422C238.733 120.505 238.685 120.578 238.614 120.625C238.544 120.672 238.458 120.689 238.375 120.672L238.369 120.616Z" fill="#D5E6FB"/>
<path d="M236.167 122.243C236.122 122.252 236.075 122.252 236.03 122.243C231.277 119.928 231.151 119.803 231.108 119.74C231.078 119.711 231.055 119.676 231.039 119.638C231.023 119.6 231.015 119.559 231.015 119.518C231.015 119.476 231.023 119.436 231.039 119.397C231.055 119.359 231.078 119.325 231.108 119.296C231.165 119.244 231.24 119.215 231.317 119.215C231.395 119.215 231.469 119.244 231.527 119.296C231.783 119.465 234.585 120.841 236.305 121.68C236.369 121.711 236.42 121.763 236.451 121.826C236.481 121.89 236.489 121.963 236.473 122.032C236.457 122.101 236.418 122.163 236.362 122.207C236.307 122.251 236.238 122.275 236.167 122.274V122.243Z" fill="#D5E6FB"/>
<path d="M233.046 123.826C232.998 123.827 232.951 123.816 232.908 123.796C232.864 123.775 232.826 123.745 232.796 123.707C232.54 123.52 230.92 122.7 229.432 121.987C229.394 121.97 229.361 121.946 229.333 121.916C229.305 121.886 229.283 121.85 229.269 121.812C229.255 121.773 229.249 121.732 229.251 121.691C229.253 121.65 229.264 121.61 229.282 121.574C229.299 121.536 229.324 121.502 229.354 121.474C229.385 121.446 229.421 121.425 229.46 121.411C229.499 121.397 229.54 121.391 229.581 121.393C229.623 121.395 229.663 121.405 229.701 121.423C233.359 123.182 233.359 123.301 233.359 123.513C233.359 123.555 233.351 123.595 233.335 123.633C233.32 123.671 233.297 123.706 233.268 123.735C233.238 123.764 233.204 123.787 233.166 123.803C233.128 123.818 233.087 123.826 233.046 123.826Z" fill="#D5E6FB"/>
<path d="M224.679 123.256H224.641L221.833 122.919C221.751 122.909 221.676 122.868 221.625 122.803C221.573 122.739 221.549 122.657 221.558 122.575C221.563 122.533 221.575 122.494 221.595 122.457C221.616 122.421 221.643 122.389 221.675 122.364C221.708 122.338 221.745 122.319 221.785 122.308C221.825 122.297 221.867 122.294 221.908 122.299L224.716 122.631C224.757 122.636 224.797 122.648 224.833 122.668C224.87 122.689 224.901 122.716 224.927 122.748C224.953 122.781 224.971 122.818 224.982 122.858C224.994 122.898 224.997 122.94 224.991 122.981C224.981 123.057 224.943 123.126 224.886 123.177C224.829 123.227 224.755 123.256 224.679 123.256Z" fill="#D5E6FB"/>
<path d="M231.808 120.46C231.645 120.535 231.495 120.616 231.345 120.704C231.175 120.399 230.94 120.135 230.659 119.929C230.377 119.723 230.055 119.579 229.713 119.508C228.884 119.497 228.075 119.766 227.418 120.272C227.297 120.347 227.19 120.445 227.105 120.56C226.972 120.849 226.888 121.157 226.855 121.473C226.84 121.541 226.808 121.604 226.761 121.655C226.686 121.703 226.6 121.733 226.511 121.742C226.271 121.8 226.053 121.925 225.881 122.102C225.709 122.28 225.592 122.502 225.542 122.744C225.41 123.313 225.435 123.914 225.36 124.496C225.255 124.927 225.306 125.382 225.504 125.779C225.654 126.004 225.904 126.173 225.967 126.405C226.054 126.793 225.692 127.156 225.717 127.55C225.751 127.707 225.816 127.855 225.908 127.986C226 128.117 226.118 128.229 226.255 128.313C226.672 128.68 227.127 129.001 227.612 129.271C228.015 129.46 228.433 129.614 228.862 129.734C228.937 129.749 229.013 129.749 229.088 129.734C229.16 129.717 229.226 129.683 229.281 129.634L230.22 128.939C230.288 128.883 230.367 128.841 230.451 128.814C230.542 128.795 230.635 128.795 230.726 128.814C231.234 128.864 231.745 128.864 232.252 128.814C232.579 128.871 232.913 128.871 233.24 128.814C234.066 128.463 234.929 127.256 235.473 126.574C235.529 126.523 235.569 126.456 235.587 126.383C235.605 126.309 235.6 126.231 235.573 126.161L235.235 124.671C235.182 124.311 235.045 123.968 234.835 123.67C234.697 123.501 234.51 123.363 234.46 123.151C234.441 123.034 234.441 122.916 234.46 122.8C234.61 121.692 234.053 121.073 233.565 120.184C233.543 120.13 233.506 120.082 233.459 120.047C233.386 120.024 233.307 120.024 233.234 120.047C232.739 120.105 232.258 120.245 231.808 120.46Z" fill="white"/>
<path d="M229.038 130.109C228.946 130.107 228.855 130.09 228.769 130.059C227.751 129.811 226.816 129.302 226.054 128.582C225.889 128.47 225.748 128.325 225.64 128.156C225.533 127.987 225.461 127.798 225.429 127.6C225.426 127.365 225.48 127.133 225.585 126.924C225.629 126.873 225.662 126.813 225.681 126.748C225.7 126.683 225.705 126.615 225.695 126.548C225.686 126.481 225.662 126.417 225.626 126.36C225.59 126.303 225.542 126.254 225.485 126.217C225.409 126.134 225.338 126.046 225.273 125.954C225.03 125.495 224.961 124.964 225.079 124.458C225.079 124.239 225.116 124.02 225.129 123.833C225.141 123.454 225.187 123.077 225.266 122.706C225.324 122.402 225.468 122.122 225.683 121.9C225.897 121.677 226.172 121.523 226.473 121.455H226.586C226.586 121.336 226.617 121.242 226.636 121.142C226.658 120.886 226.739 120.64 226.874 120.422C226.981 120.279 227.112 120.156 227.261 120.059C227.978 119.51 228.86 119.221 229.763 119.239C230.108 119.293 230.437 119.419 230.73 119.61C231.022 119.801 231.27 120.052 231.458 120.347C231.539 120.303 231.62 120.259 231.708 120.222C232.192 119.999 232.71 119.857 233.24 119.803C233.386 119.781 233.536 119.807 233.666 119.878C233.754 119.944 233.827 120.029 233.878 120.128C233.966 120.291 234.06 120.447 234.147 120.591C234.654 121.26 234.89 122.096 234.81 122.931C234.797 123.012 234.797 123.095 234.81 123.176C234.849 123.268 234.909 123.349 234.985 123.413L235.123 123.564C235.362 123.901 235.52 124.288 235.586 124.696L235.923 126.186C235.951 126.294 235.951 126.408 235.923 126.517C235.892 126.645 235.83 126.763 235.742 126.861L235.504 127.168C234.941 127.882 234.172 128.864 233.39 129.196C233.138 129.285 232.867 129.308 232.602 129.265C232.498 129.255 232.394 129.255 232.29 129.265H232.021C231.582 129.308 231.14 129.308 230.701 129.265C230.651 129.257 230.601 129.257 230.551 129.265C230.509 129.286 230.469 129.311 230.432 129.34L229.494 130.034C229.4 130.112 229.288 130.166 229.169 130.191L229.038 130.109ZM229.544 119.815C228.837 119.853 228.158 120.102 227.593 120.528C227.507 120.586 227.429 120.656 227.362 120.735C227.282 120.877 227.237 121.035 227.23 121.198C227.23 121.317 227.186 121.442 227.155 121.561C227.125 121.685 227.06 121.798 226.968 121.886C226.865 121.97 226.742 122.024 226.611 122.043C226.422 122.084 226.25 122.179 226.114 122.317C225.979 122.455 225.886 122.629 225.848 122.819C225.779 123.155 225.739 123.496 225.729 123.839C225.729 124.07 225.729 124.302 225.673 124.534C225.581 124.893 225.614 125.272 225.767 125.61C225.815 125.675 225.867 125.738 225.923 125.798C226.114 125.961 226.241 126.188 226.281 126.436C226.321 126.685 226.272 126.94 226.142 127.156C226.078 127.28 226.039 127.416 226.029 127.556C226.029 127.744 226.248 127.925 226.455 128.094C226.853 128.45 227.289 128.761 227.756 129.02C228.141 129.2 228.54 129.346 228.95 129.459H229.038C229.038 129.459 229.069 129.459 229.094 129.408L230.051 128.751C230.15 128.668 230.265 128.606 230.388 128.57C230.517 128.548 230.648 128.548 230.776 128.57C231.175 128.614 231.578 128.614 231.977 128.57H232.246C232.381 128.561 232.517 128.561 232.652 128.57C232.808 128.609 232.972 128.609 233.128 128.57C233.753 128.301 234.479 127.393 235.004 126.73L235.248 126.423C235.271 126.399 235.29 126.372 235.304 126.342C235.304 126.342 235.304 126.292 235.304 126.273L234.96 124.784C234.915 124.473 234.802 124.176 234.629 123.914L234.522 123.795C234.363 123.652 234.246 123.468 234.185 123.263C234.159 123.122 234.159 122.978 234.185 122.838C234.253 122.131 234.047 121.425 233.609 120.866C233.518 120.712 233.424 120.549 233.328 120.378C232.858 120.421 232.399 120.544 231.971 120.741C231.821 120.81 231.677 120.885 231.533 120.966C231.468 121.006 231.39 121.02 231.316 121.006C231.241 120.992 231.173 120.951 231.126 120.891C230.676 120.303 230.288 119.853 229.726 119.815H229.544Z" fill="#093269"/>
<path d="M231.302 125.36H231.176C230.075 125.25 228.991 125.006 227.949 124.634C227.91 124.621 227.873 124.6 227.842 124.572C227.81 124.545 227.784 124.511 227.766 124.473C227.748 124.436 227.737 124.395 227.735 124.353C227.733 124.311 227.739 124.269 227.753 124.23C227.768 124.191 227.79 124.155 227.818 124.124C227.846 124.093 227.881 124.069 227.919 124.051C227.957 124.034 227.998 124.025 228.04 124.024C228.082 124.023 228.123 124.03 228.162 124.045C229.148 124.395 230.173 124.626 231.214 124.734C232.34 124.784 233.303 123.395 233.415 123.107C233.426 123.041 233.457 122.98 233.505 122.933C233.552 122.886 233.612 122.855 233.678 122.844C233.718 122.836 233.76 122.836 233.8 122.845C233.841 122.854 233.879 122.871 233.912 122.895C233.945 122.919 233.974 122.949 233.995 122.985C234.016 123.02 234.029 123.06 234.034 123.1C234.097 123.445 233.372 124.258 233.365 124.264C233.115 124.58 232.803 124.839 232.448 125.028C232.093 125.216 231.702 125.329 231.302 125.36Z" fill="#D5E6FB"/>
<path d="M228.525 123.219C228.186 123.195 227.858 123.085 227.574 122.899C227.289 122.713 227.057 122.457 226.899 122.155C226.879 122.119 226.866 122.08 226.862 122.039C226.858 121.998 226.861 121.956 226.873 121.917C226.885 121.877 226.904 121.84 226.93 121.808C226.956 121.776 226.988 121.75 227.024 121.73C227.059 121.71 227.099 121.698 227.139 121.694C227.18 121.689 227.221 121.693 227.26 121.705C227.299 121.716 227.335 121.736 227.366 121.761C227.398 121.787 227.424 121.819 227.443 121.855C227.443 121.893 227.987 122.813 228.825 122.543C228.908 122.518 228.998 122.526 229.074 122.567C229.151 122.607 229.209 122.676 229.235 122.759C229.26 122.842 229.252 122.932 229.212 123.009C229.171 123.086 229.102 123.144 229.019 123.169C228.857 123.209 228.691 123.226 228.525 123.219Z" fill="#D5E6FB"/>
<path d="M242.665 120.366L228.956 126.743L203.822 116.029L207.43 146.236L224.91 155.016L235.811 147.6L242.665 120.366Z" fill="#D2D3D6"/>
<path d="M224.91 155.329C224.862 155.331 224.815 155.32 224.772 155.298L207.261 146.536C207.216 146.514 207.176 146.48 207.147 146.439C207.117 146.397 207.099 146.349 207.092 146.299L203.484 116.092C203.478 116.037 203.487 115.982 203.509 115.932C203.531 115.881 203.566 115.838 203.611 115.805C203.655 115.773 203.707 115.753 203.762 115.747C203.816 115.741 203.871 115.75 203.922 115.772L228.938 126.411L242.559 120.078C242.612 120.054 242.672 120.045 242.73 120.053C242.789 120.061 242.843 120.086 242.889 120.124C242.934 120.161 242.967 120.211 242.985 120.268C243.003 120.324 243.005 120.384 242.99 120.441L236.111 147.675C236.093 147.749 236.048 147.814 235.986 147.857L225.085 155.279C225.032 155.311 224.972 155.328 224.91 155.329ZM207.718 146.03L224.891 154.659L235.523 147.406L242.183 120.923L229.05 127.024C229.01 127.041 228.966 127.05 228.922 127.05C228.878 127.05 228.834 127.041 228.794 127.024L204.159 116.523L207.718 146.03Z" fill="#093269"/>
<path d="M224.91 155.329H224.866C224.825 155.323 224.786 155.309 224.751 155.287C224.716 155.266 224.685 155.238 224.661 155.205C224.636 155.172 224.619 155.134 224.609 155.094C224.599 155.054 224.597 155.013 224.604 154.972L228.644 126.699C228.649 126.658 228.663 126.618 228.684 126.582C228.705 126.547 228.733 126.515 228.766 126.49C228.799 126.465 228.837 126.447 228.877 126.437C228.917 126.426 228.959 126.424 229 126.43C229.041 126.435 229.081 126.449 229.116 126.47C229.152 126.491 229.183 126.519 229.208 126.552C229.233 126.585 229.252 126.623 229.262 126.663C229.272 126.703 229.275 126.745 229.269 126.786L225.223 155.035C225.216 155.114 225.181 155.188 225.123 155.242C225.065 155.297 224.989 155.327 224.91 155.329Z" fill="#093269"/>
<path d="M214.147 127.212C215.01 127.662 215.466 128.595 215.992 129.421L213.722 132.819L211.095 130.178C211.121 130.129 211.151 130.08 211.183 130.034C211.733 129.208 212.296 128.376 212.852 127.531C212.932 127.392 213.051 127.279 213.195 127.206C213.338 127.134 213.5 127.106 213.659 127.124H213.74L214.147 127.212Z" fill="#53B953"/>
<path d="M217.862 142.569V143.958L217.787 143.802C217.255 142.638 216.73 141.467 216.192 140.291C216.172 140.26 216.161 140.224 216.161 140.188C216.161 140.151 216.172 140.115 216.192 140.084L217.899 137.694L217.981 137.6V138.626C217.981 138.764 217.981 138.902 217.981 139.039C217.989 139.093 218.015 139.141 218.056 139.177C219.139 139.712 220.303 140.063 221.502 140.216C221.758 140.216 222.002 140.216 222.277 140.216L222.221 140.322C221.595 141.192 221.045 142.049 220.463 142.888C220.371 143.015 220.239 143.107 220.088 143.149C219.937 143.191 219.776 143.181 219.632 143.12C219.131 142.982 218.625 142.813 218.124 142.663L217.862 142.569Z" fill="#53B953"/>
<path d="M213.64 135.961L212.54 134.778C211.576 135.614 210.896 136.729 210.595 137.969C210.563 137.894 210.538 137.844 210.52 137.794C210.063 136.649 209.6 135.504 209.144 134.352C209.077 134.211 209.043 134.057 209.043 133.902C209.043 133.746 209.077 133.592 209.144 133.451C209.4 133.007 209.682 132.575 209.951 132.137C209.979 132.089 210.01 132.043 210.044 131.999L209.031 130.942L209.169 130.985L212.189 132.087C212.231 132.095 212.269 132.114 212.3 132.143C212.331 132.172 212.354 132.209 212.365 132.25C212.79 133.464 213.221 134.678 213.615 135.879C213.625 135.906 213.633 135.933 213.64 135.961Z" fill="#53B953"/>
<path d="M216.048 132.781L217.299 132.381C216.867 130.672 216.128 129.056 215.116 127.612L215.291 127.662C216.392 127.982 217.505 128.288 218.637 128.639C218.833 128.703 219.012 128.812 219.159 128.956C219.306 129.1 219.419 129.277 219.488 129.471C219.75 130.097 220.013 130.723 220.27 131.348C220.27 131.405 220.32 131.467 220.357 131.542L221.608 131.129C221.558 131.204 221.539 131.242 221.514 131.273C220.857 132.193 220.213 133.094 219.582 133.989C219.573 134.007 219.56 134.023 219.544 134.036C219.529 134.049 219.51 134.058 219.491 134.063C219.472 134.069 219.451 134.07 219.431 134.067C219.411 134.064 219.392 134.057 219.375 134.046L216.086 132.832L216.048 132.781Z" fill="#53B953"/>
<path d="M215.248 138.37L215.022 141.661L214.347 141.367L211.845 140.247C211.616 140.14 211.421 139.971 211.283 139.759C211.101 139.525 210.971 139.255 210.9 138.967C210.829 138.68 210.819 138.38 210.87 138.088C210.976 137.625 211.126 137.175 211.251 136.743L215.248 138.37Z" fill="#53B953"/>
<path d="M218.556 135.109L221.508 134.096L221.589 134.277L223.084 137.9C223.25 138.19 223.302 138.531 223.229 138.856C223.156 139.182 222.964 139.468 222.69 139.659C222.303 139.853 221.869 139.931 221.439 139.884C221.189 139.884 220.939 139.884 220.689 139.828C220.66 139.822 220.632 139.811 220.609 139.793C220.585 139.776 220.565 139.754 220.551 139.728L218.593 135.241C218.593 135.203 218.575 135.166 218.556 135.109Z" fill="#53B953"/>
<path d="M218.118 113.513C217.91 113.511 217.706 113.458 217.524 113.357C217.156 113.111 216.898 112.732 216.805 112.299C216.796 112.259 216.795 112.218 216.802 112.178C216.809 112.137 216.824 112.099 216.846 112.064C216.868 112.03 216.897 112 216.931 111.977C216.964 111.954 217.002 111.938 217.043 111.93C217.123 111.913 217.207 111.929 217.276 111.973C217.345 112.018 217.394 112.088 217.411 112.168C217.475 112.42 217.626 112.641 217.837 112.794C217.934 112.841 218.041 112.866 218.149 112.866C218.258 112.866 218.365 112.841 218.462 112.794C218.541 112.766 218.627 112.771 218.702 112.808C218.777 112.844 218.835 112.909 218.862 112.988C218.89 113.066 218.885 113.153 218.848 113.228C218.812 113.303 218.747 113.361 218.669 113.388C218.493 113.46 218.307 113.502 218.118 113.513Z" fill="#D5E6FB"/>
<path d="M229.819 116.167H229.738L224.422 114.715C224.346 114.693 224.282 114.644 224.24 114.577C224.198 114.51 224.183 114.43 224.197 114.352L224.604 112.193C224.61 112.149 224.627 112.108 224.651 112.071C224.675 112.035 224.707 112.004 224.745 111.981C224.782 111.958 224.824 111.943 224.868 111.937C224.911 111.932 224.956 111.936 224.998 111.949L230.301 113.495C230.376 113.515 230.44 113.563 230.481 113.63C230.521 113.696 230.535 113.775 230.52 113.851L230.126 115.923C230.111 115.993 230.072 116.057 230.017 116.104C229.961 116.15 229.892 116.177 229.819 116.179V116.167ZM224.866 114.17L229.575 115.46L229.857 114.001L225.154 112.631L224.866 114.17Z" fill="#D5E6FB"/>
</svg>
